<svg width="20" height="20" viewBox="0 0 20 20" fill="none" xmlns="http://www.w3.org/2000/svg">
<path d="M9.30013 13.5996C9.10013 13.5996 8.90013 13.4996 8.70013 13.3996L4.90013 9.19961C4.70013 8.89961 4.70013 8.39961 5.00013 8.19961C5.30013 7.89961 5.80013 7.89961 6.10013 8.19961L9.40013 11.6996L18.4001 2.69961C18.7001 2.39961 19.2001 2.39961 19.5001 2.69961C19.8001 2.99961 19.8001 3.49961 19.5001 3.79961L9.90013 13.3996C9.70013 13.4996 9.50013 13.5996 9.30013 13.5996Z" fill="white"/>
<path d="M10 20C4.5 20 0 15.5 0 10C0 4.5 4.5 0 10 0C10.4 0 10.8 0.3 10.8 0.8C10.8 1.3 10.4 1.5 10 1.5C5.3 1.5 1.5 5.3 1.5 10C1.5 14.7 5.3 18.5 10 18.5C14.7 18.5 18.5 14.7 18.5 10C18.5 9.6 18.8 9.2 19.3 9.2C19.8 9.2 20 9.6 20 10C20 15.5 15.5 20 10 20Z" fill="white"/>
</svg>
