<svg width="17" height="16" viewBox="0 0 17 16" fill="none" xmlns="http://www.w3.org/2000/svg">
<path d="M0 5.7V14.7C0 15.5 0.5 16 1.2 16H14.8C15.5 16 16 15.5 16 14.8V5.8H0V5.7Z" fill="#1790C9"/>
<path d="M6.5 10H3.5C3.3 10 3 9.8 3 9.5C3 9.2 3.3 9 3.5 9H6.5C6.8 9 7 9.2 7 9.5C7 9.8 6.8 10 6.5 10Z" fill="white"/>
<path d="M12.5 10H9.5C9.3 10 9 9.8 9 9.5C9 9.2 9.3 9 9.5 9H12.5C12.8 9 13 9.2 13 9.5C13 9.8 12.8 10 12.5 10Z" fill="white"/>
<path d="M12 2.5V0.5C12 0.2 12.3 0 12.5 0C12.7 0 13 0.2 13 0.5V2.5C13 2.8 12.8 3 12.5 3C12.2 3 12 2.8 12 2.5Z" fill="#1790C9"/>
<path d="M3 2.5V0.5C3 0.2 3.3 0 3.5 0C3.7 0 4 0.2 4 0.5V2.5C4 2.8 3.8 3 3.5 3C3.2 3 3 2.8 3 2.5Z" fill="#1790C9"/>
<path d="M6.5 13H3.5C3.3 13 3 12.8 3 12.5C3 12.2 3.3 12 3.5 12H6.5C6.8 12 7 12.2 7 12.5C7 12.8 6.8 13 6.5 13Z" fill="white"/>
<path d="M12.5 13H9.5C9.3 13 9 12.8 9 12.5C9 12.2 9.3 12 9.5 12H12.5C12.8 12 13 12.2 13 12.5C13 12.8 12.8 13 12.5 13Z" fill="white"/>
<path d="M14.9 1.6H14V2.5C14 3.3 13.4 4 12.5 4C11.6 4 11 3.3 11 2.5V1.6H5V2.5C5 3.3 4.4 4 3.5 4C2.6 4 2 3.3 2 2.5V1.6H1.2C0.5 1.6 0 2.2 0 2.9V4.9H16.1V2.9C16.1 2.2 15.5 1.6 14.9 1.6Z" fill="#1790C9"/>
</svg>
