<svg width="19" height="24" viewBox="0 0 19 24" fill="none" xmlns="http://www.w3.org/2000/svg">
<path d="M16.5 1.47663C16.9 1.47663 17.3 1.87039 17.3 2.26416V21.3619C17.3 21.7556 16.9 22.1494 16.5 22.1494H2.3C1.9 22.1494 1.5 21.7556 1.5 21.3619V2.26416C1.5 1.87039 1.9 1.47663 2.3 1.47663H16.5V1.47663ZM16.5 0H2.3C0.999999 0 0 0.984418 0 2.26416V21.3619C0 22.6416 0.999999 23.626 2.3 23.626H16.5C17.8 23.626 18.8 22.6416 18.8 21.3619V2.26416C18.8 0.984418 17.8 0 16.5 0Z" fill="#D7E9F3"/>
<path d="M12.4 4.13494H6.6C6 4.13494 5.6 3.64273 5.6 3.05208V0.886363H7.1V2.65832H12V0.984805H13.5V3.15053C13.5 3.64273 13 4.13494 12.4 4.13494Z" fill="#D7E9F3"/>
<path d="M9.99999 12.3052C9.59999 12.3052 9.4 12.0099 9.3 11.7146L8.5 8.85976L8.1 9.54886C8 9.74574 7.7 9.94262 7.5 9.94262H5.1C4.7 9.94262 4.3 9.6473 4.3 9.15509C4.3 8.66288 4.6 8.36755 5.1 8.36755H7L8.1 6.49716C8.3 6.20183 8.5 6.10339 8.8 6.10339C9.1 6.10339 9.29999 6.39872 9.39999 6.5956L10.2 9.45041L10.7 8.85976C10.8 8.66288 11.1 8.466 11.4 8.466H13.9C14.3 8.466 14.7 8.76132 14.7 9.25353C14.7 9.74574 14.4 10.0411 13.9 10.0411H11.9L10.8 12.0099C10.5 12.1083 10.3 12.3052 9.99999 12.3052Z" fill="#D7E9F3"/>
<path d="M15 16.7351H3.8C3.4 16.7351 3 16.4398 3 15.9476C3 15.4554 3.3 15.16 3.8 15.16H15C15.4 15.16 15.8 15.4554 15.8 15.9476C15.8 16.4398 15.4 16.7351 15 16.7351Z" fill="#D7E9F3"/>
<path d="M15 19.4915H3.8C3.4 19.4915 3 19.1962 3 18.7039C3 18.2117 3.3 17.9164 3.8 17.9164H15C15.4 17.9164 15.8 18.2117 15.8 18.7039C15.8 19.1962 15.4 19.4915 15 19.4915Z" fill="#D7E9F3"/>
</svg>
