<svg width="131" height="24" viewBox="0 0 131 24" fill="none" xmlns="http://www.w3.org/2000/svg">
<g clip-path="url(#clip0)">
<path d="M11.9 0C5.4 0 0 5.4 0 12C0 18.6 5.4 23.9 11.9 23.9C12.3 23.9 12.6 23.6 12.6 23.2C12.6 22.8 12.3 22.5 11.9 22.5C6.1 22.5 1.4 17.8 1.4 12C1.4 6.2 6.1 1.4 12 1.4C17.8 1.4 22.6 6.1 22.6 12C22.6 14.4 21.3 16.9 19.4 17.9C18.7 18.3 18 18.5 17.2 18.5H17L17.2 18.4C17.7 18.1 18.1 17.7 18.4 17.3C18.4 17.3 18.4 17.2 18.5 17.2C18.5 17.1 18.6 17.1 18.6 17C18.8 16.6 18.8 16.2 18.9 15.8C18.9 15.6 19 15.3 19 15.1C19 15 19 14.9 18.9 14.8C18.4 14.2 16.9 13.5 16 13.5C15.7 13.5 15.5 13.6 15.4 13.8C15.4 13.9 15.3 14.1 15.3 14.3C15.2 14.8 15.1 15.4 14.9 15.6C14.8 15.7 14.7 15.8 14.5 15.8C14.3 15.8 14 15.7 13.8 15.5C13.2 15 12.6 14.4 12 13.7C11.7 13.4 11.5 13.2 11.2 12.9C11 12.7 10.7 12.4 10.4 12.1C9.8 11.5 9.1 10.9 8.6 10.3C8.4 10.1 8.3 9.8 8.3 9.5C8.3 9.4 8.4 9.3 8.5 9.2C8.5 9 9.1 8.9 9.6 8.8C9.8 8.8 10 8.7 10.1 8.7C10.4 8.6 10.4 8 10.3 7.7C10.2 6.5 9.3 5 8.8 5C8.6 5.1 8.3 5.1 8.1 5.2C7.7 5.2 7.3 5.3 7 5.4C6.9 5.4 6.9 5.5 6.8 5.5C6.8 5.5 6.7 5.5 6.7 5.6C5.8 6.2 5.2 7.1 5.1 8.2C4.9 9.6 5.4 11.1 6.4 12.4C7.1 13.3 7.9 14.2 8.8 15C8.8 15 8.8 15 8.9 15.1C9.1 15.3 9.3 15.5 9.5 15.7C10.2 16.4 11.1 17.4 12.4 18.2C14 19.3 15.5 19.8 17 19.8C18.1 19.8 19.1 19.5 20 19C22.7 17.5 23.9 14.4 23.9 11.9C23.9 5.4 18.5 0 11.9 0Z" fill="white"/>
<path d="M12.2 6.9C15 6.9 17.3 9.2 17.3 12H18.5C18.5 8.5 15.7 5.6 12.1 5.6V6.9H12.2Z" fill="white"/>
<path d="M20.7 12.1C20.7 7.4 16.9 3.6 12.2 3.6V4.8C16.2 4.8 19.4 8.1 19.4 12H20.7V12.1Z" fill="white"/>
</g>
<path d="M36.5218 15.9264H35.391V11.983H31.0902V15.9264H29.9652V7.39511H31.0902V11.0631H35.391V7.39511H36.5218V15.9264ZM38.0629 12.6978C38.0629 12.0768 38.1839 11.5182 38.4261 11.0221C38.6722 10.526 39.0121 10.1432 39.4457 9.87363C39.8832 9.6041 40.3812 9.46933 40.9398 9.46933C41.8031 9.46933 42.5004 9.76816 43.0316 10.3658C43.5668 10.9635 43.8343 11.7584 43.8343 12.7506V12.8268C43.8343 13.4439 43.7152 13.9986 43.4769 14.4908C43.2425 14.9791 42.9047 15.36 42.4632 15.6334C42.0257 15.9068 41.5218 16.0436 40.9515 16.0436C40.0922 16.0436 39.3949 15.7447 38.8597 15.1471C38.3285 14.5494 38.0629 13.7584 38.0629 12.774V12.6978ZM39.1527 12.8268C39.1527 13.5299 39.3148 14.0943 39.639 14.5201C39.9672 14.9459 40.4047 15.1588 40.9515 15.1588C41.5023 15.1588 41.9398 14.9439 42.264 14.5143C42.5882 14.0807 42.7504 13.4752 42.7504 12.6978C42.7504 12.0025 42.5843 11.44 42.2523 11.0103C41.9242 10.5768 41.4867 10.36 40.9398 10.36C40.4047 10.36 39.973 10.5728 39.6449 10.9986C39.3168 11.4244 39.1527 12.0338 39.1527 12.8268ZM46.6644 8.05136V9.58652H47.848V10.4244H46.6644V14.3561C46.6644 14.61 46.7172 14.8014 46.8226 14.9303C46.9281 15.0553 47.1078 15.1178 47.3617 15.1178C47.4867 15.1178 47.6586 15.0943 47.8773 15.0475V15.9264C47.5922 16.0045 47.3148 16.0436 47.0453 16.0436C46.5609 16.0436 46.1957 15.8971 45.9496 15.6041C45.7035 15.3111 45.5804 14.8951 45.5804 14.3561V10.4244H44.4261V9.58652H45.5804V8.05136H46.6644ZM50.2972 15.9264H49.2132V6.92636H50.2972V15.9264ZM53.2152 15.9264H52.1312V9.58652H53.2152V15.9264ZM52.0433 7.90488C52.0433 7.7291 52.0961 7.58066 52.2015 7.45957C52.3109 7.33847 52.4711 7.27793 52.682 7.27793C52.8929 7.27793 53.0531 7.33847 53.1625 7.45957C53.2718 7.58066 53.3265 7.7291 53.3265 7.90488C53.3265 8.08066 53.2718 8.22714 53.1625 8.34433C53.0531 8.46152 52.8929 8.52011 52.682 8.52011C52.4711 8.52011 52.3109 8.46152 52.2015 8.34433C52.0961 8.22714 52.0433 8.08066 52.0433 7.90488ZM55.9808 9.58652L56.016 10.3834C56.5004 9.77402 57.1332 9.46933 57.9144 9.46933C59.2543 9.46933 59.93 10.2252 59.9418 11.7369V15.9264H58.8578V11.7311C58.8539 11.274 58.7484 10.9361 58.5414 10.7174C58.3382 10.4986 58.0199 10.3893 57.5863 10.3893C57.2347 10.3893 56.9261 10.483 56.6605 10.6705C56.3949 10.858 56.1879 11.1041 56.0394 11.4088V15.9264H54.9554V9.58652H55.9808ZM64.2074 16.0436C63.348 16.0436 62.6488 15.7623 62.1097 15.1998C61.5707 14.6334 61.3011 13.8775 61.3011 12.9322V12.733C61.3011 12.1041 61.4203 11.5436 61.6586 11.0514C61.9007 10.5553 62.2367 10.1686 62.6664 9.89121C63.1 9.60996 63.5687 9.46933 64.0726 9.46933C64.8968 9.46933 65.5375 9.74082 65.9945 10.2838C66.4515 10.8268 66.68 11.6041 66.68 12.6158V13.067H62.3851C62.4007 13.692 62.5824 14.1978 62.93 14.5846C63.2816 14.9674 63.7269 15.1588 64.266 15.1588C64.6488 15.1588 64.973 15.0807 65.2386 14.9244C65.5043 14.7682 65.7367 14.5611 65.9359 14.3033L66.598 14.8189C66.0668 15.6353 65.2699 16.0436 64.2074 16.0436ZM64.0726 10.36C63.6351 10.36 63.2679 10.5201 62.9711 10.8404C62.6742 11.1568 62.4906 11.6021 62.4203 12.1764H65.5961V12.0943C65.5648 11.5436 65.4164 11.1178 65.1507 10.817C64.8851 10.5123 64.5257 10.36 64.0726 10.36ZM67.9047 15.358C67.9047 15.1705 67.9593 15.0143 68.0687 14.8893C68.182 14.7643 68.35 14.7018 68.5726 14.7018C68.7953 14.7018 68.9632 14.7643 69.0765 14.8893C69.1937 15.0143 69.2523 15.1705 69.2523 15.358C69.2523 15.5377 69.1937 15.6881 69.0765 15.8092C68.9632 15.9303 68.7953 15.9908 68.5726 15.9908C68.35 15.9908 68.182 15.9303 68.0687 15.8092C67.9593 15.6881 67.9047 15.5377 67.9047 15.358ZM67.9105 10.1842C67.9105 9.99668 67.9652 9.84043 68.0746 9.71543C68.1879 9.59043 68.3558 9.52793 68.5785 9.52793C68.8011 9.52793 68.9691 9.59043 69.0824 9.71543C69.1996 9.84043 69.2582 9.99668 69.2582 10.1842C69.2582 10.3639 69.1996 10.5143 69.0824 10.6353C68.9691 10.7564 68.8011 10.817 68.5785 10.817C68.3558 10.817 68.1879 10.7564 68.0746 10.6353C67.9652 10.5143 67.9105 10.3639 67.9105 10.1842ZM77.2738 15.9264H76.1839V8.70175L73.9984 9.50449V8.52011L77.1039 7.3541H77.2738V15.9264ZM84.6039 12.1764C84.3773 12.4459 84.1058 12.6627 83.7894 12.8268C83.4769 12.9908 83.1332 13.0728 82.7582 13.0728C82.266 13.0728 81.8363 12.9518 81.4691 12.7096C81.1058 12.4674 80.8246 12.1275 80.6254 11.69C80.4261 11.2486 80.3265 10.7623 80.3265 10.2311C80.3265 9.66074 80.4339 9.14707 80.6488 8.69003C80.8675 8.233 81.1761 7.88339 81.5746 7.64121C81.973 7.39902 82.4379 7.27793 82.9691 7.27793C83.8129 7.27793 84.4769 7.59433 84.9613 8.22714C85.4496 8.85605 85.6937 9.71543 85.6937 10.8053V11.1217C85.6937 12.7818 85.3656 13.9947 84.7093 14.7603C84.0531 15.5221 83.0629 15.9127 81.7386 15.9322H81.5277V15.0182H81.7562C82.6507 15.0025 83.3382 14.7701 83.8187 14.3209C84.2992 13.8678 84.5609 13.1529 84.6039 12.1764ZM82.9339 12.1764C83.2972 12.1764 83.6312 12.065 83.9359 11.8424C84.2445 11.6197 84.4691 11.3443 84.6097 11.0162V10.5826C84.6097 9.87168 84.4554 9.29355 84.1468 8.84824C83.8382 8.40293 83.4476 8.18027 82.975 8.18027C82.4984 8.18027 82.1156 8.36386 81.8265 8.73105C81.5375 9.09433 81.3929 9.5748 81.3929 10.1725C81.3929 10.7545 81.5316 11.235 81.8089 11.6139C82.0902 11.9889 82.4652 12.1764 82.9339 12.1764ZM92.5375 12.2877C92.5375 13.5572 92.3207 14.5006 91.8871 15.1178C91.4535 15.735 90.7757 16.0436 89.8539 16.0436C88.9437 16.0436 88.2699 15.7428 87.8324 15.1412C87.3949 14.5357 87.1683 13.6334 87.1527 12.4342V10.9869C87.1527 9.733 87.3695 8.80136 87.8031 8.19199C88.2367 7.58261 88.9164 7.27793 89.8422 7.27793C90.7601 7.27793 91.4359 7.57285 91.8695 8.16269C92.3031 8.74863 92.5257 9.65488 92.5375 10.8814V12.2877ZM91.4535 10.8053C91.4535 9.8873 91.3246 9.21933 91.0668 8.80136C90.8089 8.37949 90.4007 8.16855 89.8422 8.16855C89.2875 8.16855 88.8832 8.37753 88.6293 8.7955C88.3754 9.21347 88.2445 9.85605 88.2367 10.7232V12.4576C88.2367 13.3795 88.3695 14.0611 88.6351 14.5025C88.9047 14.94 89.3109 15.1588 89.8539 15.1588C90.389 15.1588 90.7855 14.9518 91.0433 14.5377C91.305 14.1236 91.4418 13.4713 91.4535 12.5807V10.8053ZM99.2757 12.2877C99.2757 13.5572 99.0589 14.5006 98.6254 15.1178C98.1918 15.735 97.514 16.0436 96.5922 16.0436C95.682 16.0436 95.0082 15.7428 94.5707 15.1412C94.1332 14.5357 93.9066 13.6334 93.891 12.4342V10.9869C93.891 9.733 94.1078 8.80136 94.5414 8.19199C94.975 7.58261 95.6547 7.27793 96.5804 7.27793C97.4984 7.27793 98.1742 7.57285 98.6078 8.16269C99.0414 8.74863 99.264 9.65488 99.2757 10.8814V12.2877ZM98.1918 10.8053C98.1918 9.8873 98.0629 9.21933 97.805 8.80136C97.5472 8.37949 97.139 8.16855 96.5804 8.16855C96.0257 8.16855 95.6214 8.37753 95.3675 8.7955C95.1136 9.21347 94.9828 9.85605 94.975 10.7232V12.4576C94.975 13.3795 95.1078 14.0611 95.3734 14.5025C95.6429 14.94 96.0492 15.1588 96.5922 15.1588C97.1273 15.1588 97.5238 14.9518 97.7816 14.5377C98.0433 14.1236 98.18 13.4713 98.1918 12.5807V10.8053ZM100.799 15.358C100.799 15.1705 100.854 15.0143 100.963 14.8893C101.077 14.7643 101.244 14.7018 101.467 14.7018C101.69 14.7018 101.858 14.7643 101.971 14.8893C102.088 15.0143 102.147 15.1705 102.147 15.358C102.147 15.5377 102.088 15.6881 101.971 15.8092C101.858 15.9303 101.69 15.9908 101.467 15.9908C101.244 15.9908 101.077 15.9303 100.963 15.8092C100.854 15.6881 100.799 15.5377 100.799 15.358ZM107.983 12.1764C107.756 12.4459 107.485 12.6627 107.168 12.8268C106.856 12.9908 106.512 13.0728 106.137 13.0728C105.645 13.0728 105.215 12.9518 104.848 12.7096C104.485 12.4674 104.203 12.1275 104.004 11.69C103.805 11.2486 103.705 10.7623 103.705 10.2311C103.705 9.66074 103.813 9.14707 104.028 8.69003C104.246 8.233 104.555 7.88339 104.953 7.64121C105.352 7.39902 105.817 7.27793 106.348 7.27793C107.192 7.27793 107.856 7.59433 108.34 8.22714C108.828 8.85605 109.073 9.71543 109.073 10.8053V11.1217C109.073 12.7818 108.744 13.9947 108.088 14.7603C107.432 15.5221 106.442 15.9127 105.118 15.9322H104.907V15.0182H105.135C106.03 15.0025 106.717 14.7701 107.198 14.3209C107.678 13.8678 107.94 13.1529 107.983 12.1764ZM106.313 12.1764C106.676 12.1764 107.01 12.065 107.315 11.8424C107.623 11.6197 107.848 11.3443 107.989 11.0162V10.5826C107.989 9.87168 107.834 9.29355 107.526 8.84824C107.217 8.40293 106.827 8.18027 106.354 8.18027C105.877 8.18027 105.494 8.36386 105.205 8.73105C104.916 9.09433 104.772 9.5748 104.772 10.1725C104.772 10.7545 104.911 11.235 105.188 11.6139C105.469 11.9889 105.844 12.1764 106.313 12.1764ZM115.916 12.2877C115.916 13.5572 115.7 14.5006 115.266 15.1178C114.832 15.735 114.155 16.0436 113.233 16.0436C112.323 16.0436 111.649 15.7428 111.211 15.1412C110.774 14.5357 110.547 13.6334 110.532 12.4342V10.9869C110.532 9.733 110.748 8.80136 111.182 8.19199C111.616 7.58261 112.295 7.27793 113.221 7.27793C114.139 7.27793 114.815 7.57285 115.248 8.16269C115.682 8.74863 115.905 9.65488 115.916 10.8814V12.2877ZM114.832 10.8053C114.832 9.8873 114.703 9.21933 114.446 8.80136C114.188 8.37949 113.78 8.16855 113.221 8.16855C112.666 8.16855 112.262 8.37753 112.008 8.7955C111.754 9.21347 111.623 9.85605 111.616 10.7232V12.4576C111.616 13.3795 111.748 14.0611 112.014 14.5025C112.284 14.94 112.69 15.1588 113.233 15.1588C113.768 15.1588 114.164 14.9518 114.422 14.5377C114.684 14.1236 114.821 13.4713 114.832 12.5807V10.8053ZM121.459 12.1764C121.233 12.4459 120.961 12.6627 120.645 12.8268C120.332 12.9908 119.989 13.0728 119.614 13.0728C119.121 13.0728 118.692 12.9518 118.325 12.7096C117.961 12.4674 117.68 12.1275 117.481 11.69C117.282 11.2486 117.182 10.7623 117.182 10.2311C117.182 9.66074 117.289 9.14707 117.504 8.69003C117.723 8.233 118.032 7.88339 118.43 7.64121C118.828 7.39902 119.293 7.27793 119.825 7.27793C120.668 7.27793 121.332 7.59433 121.817 8.22714C122.305 8.85605 122.549 9.71543 122.549 10.8053V11.1217C122.549 12.7818 122.221 13.9947 121.565 14.7603C120.909 15.5221 119.918 15.9127 118.594 15.9322H118.383V15.0182H118.612C119.506 15.0025 120.194 14.7701 120.674 14.3209C121.155 13.8678 121.416 13.1529 121.459 12.1764ZM119.789 12.1764C120.153 12.1764 120.487 12.065 120.791 11.8424C121.1 11.6197 121.325 11.3443 121.465 11.0162V10.5826C121.465 9.87168 121.311 9.29355 121.002 8.84824C120.694 8.40293 120.303 8.18027 119.83 8.18027C119.354 8.18027 118.971 8.36386 118.682 8.73105C118.393 9.09433 118.248 9.5748 118.248 10.1725C118.248 10.7545 118.387 11.235 118.664 11.6139C118.946 11.9889 119.321 12.1764 119.789 12.1764ZM124.541 11.649L124.975 7.39511H129.346V8.39707H125.895L125.637 10.7232C126.055 10.4771 126.53 10.3541 127.061 10.3541C127.838 10.3541 128.455 10.6119 128.912 11.1275C129.369 11.6393 129.598 12.3326 129.598 13.2076C129.598 14.0865 129.36 14.7799 128.883 15.2877C128.411 15.7916 127.748 16.0436 126.897 16.0436C126.143 16.0436 125.528 15.8346 125.051 15.4166C124.575 14.9986 124.303 14.4205 124.237 13.6822H125.262C125.328 14.1705 125.502 14.5396 125.784 14.7896C126.065 15.0357 126.436 15.1588 126.897 15.1588C127.401 15.1588 127.795 14.9869 128.08 14.6432C128.369 14.2994 128.514 13.8248 128.514 13.2193C128.514 12.649 128.358 12.192 128.045 11.8482C127.737 11.5006 127.325 11.3268 126.809 11.3268C126.336 11.3268 125.965 11.4303 125.696 11.6373L125.409 11.8717L124.541 11.649Z" fill="white"/>
<defs>
<clipPath id="clip0">
<rect width="23.9" height="23.9" fill="white"/>
</clipPath>
</defs>
</svg>
