<svg width="25" height="25" viewBox="0 0 25 25" fill="none" xmlns="http://www.w3.org/2000/svg">
<path d="M23.1178 0.302619H24.03V24.33H0V23.367L23.1007 23.317L23.1178 0.302619ZM11.0906 1.30244C11.0906 0.749909 11.505 0.299988 12.015 0.299988H14.7883C15.2983 0.299988 15.7127 0.747278 15.7127 1.30244V21.3253H11.0906V1.30244ZM16.6371 7.30929C16.6371 6.75675 17.0515 6.30683 17.5615 6.30683H20.3348C20.8448 6.30683 21.2592 6.75412 21.2592 7.30929V21.3253H16.6371V7.30929ZM5.54652 13.3188C5.54652 12.7662 5.96091 12.3163 6.47094 12.3163H9.24419C9.75422 12.3163 10.1686 12.7636 10.1686 13.3188V21.3279H5.54652V13.3188ZM0.924419 18.3231H3.69768C4.2077 18.3231 4.6221 18.7704 4.6221 19.3256V21.3279H0V19.3256C0 18.7731 0.414395 18.3231 0.924419 18.3231Z" fill="white"/>
</svg>
