<svg width="25" height="25" viewBox="0 0 25 25" fill="none" xmlns="http://www.w3.org/2000/svg">
<path d="M21.9286 0.799988H2.1014C0.941584 0.799988 0 1.79553 0 3.02548C0 4.25542 0.939132 5.25096 2.1014 5.25096H21.9261C23.086 5.25096 24.0275 4.25542 24.0275 3.02548C24.03 1.79553 23.0884 0.799988 21.9286 0.799988ZM21.9286 20.379H2.1014C0.939132 20.379 0 21.3746 0 22.6045C0 23.8344 0.939132 24.83 2.1014 24.83H21.9261C23.086 24.83 24.0275 23.8344 24.0275 22.6045C24.03 21.3772 23.0884 20.379 21.9286 20.379ZM21.855 10.5895H2.17496C0.97346 10.5895 0 11.585 0 12.815C0 14.0449 0.97346 15.0405 2.17496 15.0405H21.855C23.0565 15.0405 24.03 14.0449 24.03 12.815C24.03 11.585 23.0565 10.5895 21.855 10.5895Z" fill="white"/>
</svg>
