<svg width="16" height="23" viewBox="0 0 16 23" fill="none" xmlns="http://www.w3.org/2000/svg">
<path d="M8.51016 0.743342C8.31068 0.648774 8.11119 0.554207 7.9112 0.553243C7.7112 0.552279 7.51069 0.644918 7.31018 0.737557L0.575245 7.07027C0.273704 7.34963 0.701548 8.17524 0.999999 8.45749C1.29845 8.73975 2.19846 8.73686 2.5 8.45749L6.39382 5.18134L6.39382 22.2653C6.39125 22.7333 7.60001 22.9642 8 22.9662C8.49999 22.9686 9.39176 22.6397 9.39382 22.2653L9.39382 12.6697L9.5 5.18134L13 8.45749C13.2985 8.73975 14.1985 8.73686 14.5 8.45749C14.9021 8.08501 15.2985 7.33568 15 7.05343L8.51016 0.743342Z" fill="white"/>
</svg>
