<svg width="96" height="96" viewBox="0 0 96 96" fill="none" xmlns="http://www.w3.org/2000/svg">
<path d="M48 96C74.5097 96 96 74.5097 96 48C96 21.4903 74.5097 0 48 0C21.4903 0 0 21.4903 0 48C0 74.5097 21.4903 96 48 96Z" fill="#D7E9F3"/>
<path d="M63.4999 43.5C62.4999 42.8 62.5999 52.9 58.4999 56.9C58.1999 57.2 57.8999 57.5 57.5999 57.7C57.3999 57.9 57.0999 58.1 56.8999 58.3C56.8999 60.2 57.0999 63 58.2999 65.7C59.5999 66.2 61.4999 78.1 62.4999 80.4C62.5999 80.5 62.7999 80.5 62.8999 80.6C63.0999 80.7 63.2999 80.8 63.5999 80.9V80.8L65.0999 81.3C65.0999 81.4 65.0999 81.4 65.0999 81.5C65.6999 81.7 66.3999 82 67.1999 82.3C66.0999 77 66.6999 52.8 66.5999 41.9L66.2999 42C65.6999 43.4 64.6999 44.3 63.4999 43.5Z" fill="#B6CDD6"/>
<path d="M29.8 78.3L31.3 77.8V77.9C31.6 77.8 31.8 77.7 31.9 77.7C32 77.6 32.2 77.6 32.3 77.5C33.3 75.2 35.2 73.8 36.5 73.2C37.7 70.5 37.9 60.3 37.9 58.4C37.3 57.9 36.8 57.4 36.2 56.9C32.2 52.9 32.2 42.8 31.2 43.5C30 44.3 29.1 43.4 28.4 42L28.1 41.9C28 52.8 28.6 74 27.5 79.3C28.3 79 29 78.7 29.7 78.5C29.9 78.4 29.9 78.3 29.8 78.3Z" fill="#B6CDD6"/>
<path d="M84.2 79.5C78.5 76.8 66.2001 73 61.9001 71.9C58.1001 70.9 58 61.2 58.3 55.7C55.2001 58.2 51.4001 59.8 47.2001 59.8C43.8 59.8 40.6 59 37.8 57.5C37.9 63.1 37.5 70.9 34.1 71.8C29.7 72.9 17.5 76.7 11.8 79.4C20.6 89.6 33.5 96 48 96C62.5 96 75.4 89.6 84.2 79.5Z" fill="white"/>
<path d="M58.8 66.9C58.1 63.4 58.1 58.8 58.2 55.7C55.1 58.2 51.3 59.8 47.1 59.8C43.7 59.8 40.5 59 37.7 57.5C37.8 61.2 37.6 65.9 36.5 68.9C36.5 68.9 40.5 74.4 45.8 74.4C57.3 74.4 59 67.6 58.8 66.9Z" fill="#F5FAFC"/>
<path d="M31.4001 43.5C32.4001 42.8 32.3001 52.9 36.4001 56.9C36.9001 57.4 37.5001 57.9 38.1001 58.4C38.6001 58.8 39.0001 59.1 39.5001 59.5C40.4001 60.1 41.4001 60.7 42.4001 61.1C43.3001 61.5 44.3001 61.7 45.3001 61.9C46.5001 62.1 47.7001 62.1 48.9001 62C49.9001 61.9 50.8001 61.7 51.7001 61.4C52.7001 61.1 53.7001 60.6 54.6001 60.1C55.4001 59.6 56.2001 59 56.9001 58.4C57.1001 58.2 57.4001 58 57.6001 57.8C57.9001 57.5 58.2001 57.2 58.5001 57C62.5001 53 62.5001 42.9 63.5001 43.6C64.7001 44.4 65.6001 43.5 66.3001 42.1C66.9001 40.8 67.3001 39.2 67.4001 37.9C67.6001 36 67.1001 34.9 66.3001 34.8C66.3001 34.8 66.3001 34.9 66.2001 34.9C64.5001 35.4 64.2001 37.1 63.8001 36.7C62.8001 35.9 55.9001 33.5 50.5001 30.6C44.0001 27.1 42.7001 26 39.0001 25.6L34.6001 29.6C30.9001 32.7 30.5001 36.8 30.1001 36C29.6001 35 29.1001 35.2 28.8001 34.8C28.0001 34.7 27.3001 35.8 27.5001 37.9C27.6001 39.2 28.0001 40.8 28.6001 42.1C29.3001 43.4 30.3001 44.4 31.4001 43.5Z" fill="white"/>
<path d="M30.1 35.8C30.5 36.6 30.8999 32.6 34.5999 29.4L39 25.4C42.7 25.8 44 26.9 50.5 30.4C55.9 33.3 62.8999 35.7 63.7999 36.5C64.2 36.9 64.5999 35.2 66.1999 34.7C66.1999 34.7 66.2 34.7 66.3 34.6C66.8 33.8 67.2999 24.7 63.5999 18.4C59.1999 10.8 46.6 7.7 37.9 12.8C37.1 13.3 37.7 13.6 35.5 14.2C31 15.4 28.2 22.7 28.2 29.8C28.2 33.3 28.3999 34.3 28.7999 34.7C29.0999 35 29.6 34.8 30.1 35.8Z" fill="#B6CDD6"/>
</svg>
