<svg width="20" height="20" viewBox="0 0 20 20" fill="none" xmlns="http://www.w3.org/2000/svg">
<path d="M0.166667 9.16683C0.0833333 9.3335 0 9.50017 0 9.66683C0 9.8335 0.0833333 10.0002 0.166667 10.1668L5.83333 15.7502C6.08333 16.0002 6.58333 16.0002 6.83333 15.7502C7.08333 15.5002 7.08333 15.0002 6.83333 14.7502L2.41667 10.3335H19.3333C19.75 10.3335 20 10.0002 20 9.66683C20 9.25017 19.6667 9.00017 19.3333 9.00017H2.41667L6.83333 4.58348C7.08333 4.33348 7.08333 3.83348 6.83333 3.58348C6.5 3.25014 6.08333 3.25014 5.83333 3.50014L0.166667 9.16683Z" fill="white"/>
</svg>
