<svg width="21" height="24" viewBox="0 0 21 24" fill="none" xmlns="http://www.w3.org/2000/svg">
<path d="M11.2573 9H9.66643V12.8H5.74219V14.3H9.66643V18H11.2573V14.3H15.2876V12.8H11.2573V9Z" fill="white"/>
<path d="M19.8485 6.2L13.4849 0.2C13.2728 0.1 13.0606 0 12.8485 0H2.56064C1.71215 0 0.969727 0.7 0.969727 1.5V22.5C0.969727 23.3 1.71215 24 2.56064 24H18.4697C19.3182 24 20.0606 23.3 20.0606 22.5V6.7C20.0606 6.6 19.9546 6.4 19.8485 6.2ZM13.697 2.6L17.3031 6H13.697V2.6ZM18.4697 22.5H2.56064V1.5H12.1061V6C12.1061 6.8 12.8485 7.5 13.697 7.5H18.4697V22.5Z" fill="white"/>
</svg>
