<svg width="26" height="26" viewBox="0 0 26 26" fill="none" xmlns="http://www.w3.org/2000/svg">
<g clip-path="url(#clip0)">
<path d="M12.6 25.8C5.6 25.8 0 20.1 0 13.2C0 6.29997 5.6 0.599976 12.6 0.599976C13.1 0.599976 13.5 0.999976 13.5 1.49998C13.5 1.99998 13.1 2.39998 12.6 2.39998C6.6 2.39998 1.8 7.29997 1.8 13.2C1.8 19.1 6.6 24 12.6 24C18.6 24 23.4 19.1 23.4 13.2C23.4 12.7 23.8 12.3 24.3 12.3C24.8 12.3 25.2 12.7 25.2 13.2C25.2 20.1 19.5 25.8 12.6 25.8Z" fill="white"/>
<path d="M20.7998 22.1H18.9998C18.9998 18.5 16.0998 15.6 12.4998 15.6C8.8998 15.6 5.9998 18.5 5.9998 22.1H4.2998C4.2998 17.5 7.9998 13.8 12.5998 13.8C17.1998 13.8 20.7998 17.6 20.7998 22.1Z" fill="white"/>
<path d="M12.6002 15.6C9.9002 15.6 7.7002 13.4 7.7002 10.7C7.7002 8.00005 9.9002 5.80005 12.6002 5.80005C15.3002 5.80005 17.5002 8.00005 17.5002 10.7C17.5002 13.4 15.3002 15.6 12.6002 15.6ZM12.6002 7.50005C10.9002 7.50005 9.4002 8.90005 9.4002 10.7C9.4002 12.5 10.8002 13.9 12.6002 13.9C14.4002 13.9 15.8002 12.5 15.8002 10.7C15.8002 8.90005 14.3002 7.50005 12.6002 7.50005Z" fill="white"/>
<path d="M20.7999 9.4C20.2999 9.4 19.8999 9 19.8999 8.5V0.9C19.8999 0.4 20.2999 0 20.7999 0C21.2999 0 21.6999 0.4 21.6999 0.9V8.5C21.6999 9 21.2999 9.4 20.7999 9.4Z" fill="white"/>
<path d="M24.6001 5.60005H17.0001C16.5001 5.60005 16.1001 5.20005 16.1001 4.70005C16.1001 4.20005 16.5001 3.80005 17.0001 3.80005H24.6001C25.1001 3.80005 25.5001 4.20005 25.5001 4.70005C25.5001 5.20005 25.1001 5.60005 24.6001 5.60005Z" fill="white"/>
</g>
<defs>
<clipPath id="clip0">
<rect width="25.5" height="25.8" fill="white"/>
</clipPath>
</defs>
</svg>
