<svg width="12" height="16" viewBox="0 0 12 16" fill="none" xmlns="http://www.w3.org/2000/svg">
<path d="M4.8998 6.2C6.5998 6.2 7.9998 4.8 7.9998 3.1C7.9998 1.4 6.5998 0 4.8998 0C3.1998 0 1.7998 1.4 1.7998 3.1C1.7998 4.8 3.1998 6.2 4.8998 6.2Z" fill="white"/>
<path d="M4.1002 12.8999C4.1002 10.6999 5.9002 8.8999 8.1002 8.8999C8.4002 8.8999 8.7002 8.8999 9.0002 8.9999C8.9002 7.7999 7.9002 6.8999 6.7002 6.8999H3.0002C1.7002 6.8999 0.700195 7.9999 0.700195 9.1999V13.7999C0.700195 14.5999 1.3002 15.1999 2.1002 15.1999H4.8002C4.4002 14.4999 4.1002 13.7999 4.1002 12.8999Z" fill="white"/>
<path d="M8.20059 9.80005C6.50059 9.80005 5.10059 11.2 5.10059 12.9C5.10059 14.6 6.50059 16 8.20059 16C9.90059 16 11.3006 14.6 11.3006 12.9C11.3006 11.2 9.90059 9.80005 8.20059 9.80005ZM9.30058 13.4H8.70059V14C8.70059 14.3 8.50059 14.5 8.20059 14.5C7.90059 14.5 7.70059 14.3 7.70059 14V13.4H7.10059C6.80059 13.4 6.60059 13.2 6.60059 12.9C6.60059 12.6 6.80059 12.4 7.10059 12.4H7.70059V11.8C7.70059 11.5 7.90059 11.3 8.20059 11.3C8.50059 11.3 8.70059 11.5 8.70059 11.8V12.4H9.30058C9.60058 12.4 9.80058 12.6 9.80058 12.9C9.80058 13.2 9.50058 13.4 9.30058 13.4Z" fill="white"/>
</svg>
