<svg width="16" height="23" viewBox="0 0 16 23" fill="none" xmlns="http://www.w3.org/2000/svg">
<path d="M7.01791 22.7742C7.2174 22.8688 7.41688 22.9634 7.61687 22.9643C7.81687 22.9653 8.01738 22.8726 8.2179 22.78L14.9528 16.4473C15.2544 16.1679 14.8265 15.3423 14.5281 15.0601C14.2296 14.7778 13.3296 14.7807 13.0281 15.0601L9.13425 18.3362L9.13425 1.25226C9.13682 0.784241 7.92807 0.553325 7.52807 0.551397C7.02808 0.548987 6.13631 0.877844 6.13425 1.25226L6.13425 10.8479L6.02807 18.3362L2.52807 15.0601C2.22962 14.7778 1.32961 14.7807 1.02807 15.0601C0.626017 15.4326 0.22962 16.1819 0.528071 16.4641L7.01791 22.7742Z" fill="white"/>
</svg>
