<svg width="24" height="24" viewBox="0 0 24 24" fill="none" xmlns="http://www.w3.org/2000/svg">
<path d="M21 0H3.1C1.4 0 0 1.4 0 3.1V21C0 22.7 1.4 24 3.1 24H21C22.7 24 24.1 22.6 24.1 20.9V3.1C24 1.4 22.7 0 21 0ZM1.5 18.4L6.1 14.4C6.3 14.3 6.5 14.3 6.7 14.4L9.6 16.8C9.9 17 10.3 17 10.6 16.8L17.5 9.9C17.6 9.8 17.8 9.8 17.8 9.8C17.9 9.8 18 9.8 18.1 10L22.6 15.5V21C22.6 21.9 21.9 22.6 21 22.6H3.1C2.2 22.6 1.5 21.9 1.5 21V18.4ZM16.5 8.8L10 15.3L7.6 13.3C6.9 12.7 5.9 12.7 5.2 13.3L1.5 16.4V3.1C1.5 2.2 2.2 1.5 3.1 1.5H21C21.9 1.5 22.6 2.2 22.6 3.1V13.1L19.3 9C19 8.6 18.5 8.3 17.9 8.3H17.8C17.3 8.3 16.8 8.5 16.5 8.8Z" fill="white"/>
<path d="M7.6001 3C5.7001 3 4.1001 4.5 4.1001 6.4C4.1001 8.3 5.6001 9.8 7.5001 9.8C9.4001 9.8 10.9001 8.3 10.9001 6.4C10.9001 4.5 9.5001 3 7.6001 3ZM9.5001 6.4C9.5001 7.5 8.6001 8.4 7.5001 8.4C6.4001 8.4 5.5001 7.5 5.5001 6.4C5.5001 5.3 6.4001 4.4 7.5001 4.4C8.7001 4.4 9.5001 5.3 9.5001 6.4Z" fill="white"/>
</svg>
