<svg width="32" height="32" viewBox="0 0 32 32" fill="none" xmlns="http://www.w3.org/2000/svg">
<path d="M27.3002 4.7C24.3002 1.7 20.3002 0 16.0002 0C11.7002 0 7.70024 1.7 4.70024 4.7C0.500239 8.9 -0.89976 14.8 0.60024 20.2C0.70024 20.6 1.10024 20.9 1.50024 20.9H30.6002C31.0002 20.9 31.4002 20.6 31.5002 20.2C31.9002 18.8 32.1002 17.4 32.1002 16C32.0002 11.7 30.3002 7.7 27.3002 4.7ZM29.8002 19H2.20024C0.30024 10.2 7.00024 1.9 16.0002 1.9C25.0002 1.9 31.7002 10.2 29.8002 19Z" fill="white"/>
<path d="M16.0001 8C16.5001 8 16.9001 7.6 16.9001 7.1V5.3C16.9001 4.8 16.5001 4.4 16.0001 4.4C15.5001 4.4 15.1001 4.8 15.1001 5.3V7.1C15.1001 7.6 15.5001 8 16.0001 8Z" fill="white"/>
<path d="M11.5002 6.3C11.2002 5.9 10.7002 5.7 10.2002 6C9.70019 6.2 9.60019 6.8 9.80019 7.2L10.7002 8.7C10.9002 9 11.2002 9.2 11.5002 9.2C12.2002 9.2 12.7002 8.4 12.3002 7.8L11.5002 6.3Z" fill="white"/>
<path d="M8.7003 10.7L7.2003 9.8C6.8003 9.5 6.2003 9.7 5.9003 10.1C5.6003 10.5 5.8003 11.1 6.2003 11.4C7.9003 12.4 7.9003 12.4 8.2003 12.4C9.2003 12.5 9.6003 11.2 8.7003 10.7Z" fill="white"/>
<path d="M7.10039 15.1H5.30039C4.80039 15.1 4.40039 15.5 4.40039 16C4.40039 16.5 4.80039 16.9 5.30039 16.9H7.10039C7.60039 16.9 8.00039 16.5 8.00039 16C8.00039 15.5 7.60039 15.1 7.10039 15.1Z" fill="white"/>
<path d="M24 16C24 16.5 24.4 16.9 24.9 16.9H26.7C27.2 16.9 27.6 16.5 27.6 16C27.6 15.5 27.2 15.1 26.7 15.1H24.9C24.4 15.1 24 15.5 24 16Z" fill="white"/>
<path d="M24.8004 9.8L23.3004 10.7C22.9004 11 22.7004 11.5 23.0004 12C23.3004 12.4 23.8004 12.6 24.3004 12.3L25.8004 11.4C26.2004 11.1 26.4004 10.6 26.1004 10.1C25.8004 9.7 25.2004 9.6 24.8004 9.8Z" fill="white"/>
<path d="M21.8 5.9C21.4 5.6 20.8 5.8 20.5 6.2L19.6 7.7C19.3 8.1 19.5 8.7 19.9 9C20.3 9.3 20.9 9.1 21.2 8.7L22.1 7.2C22.4 6.8 22.3 6.2 21.8 5.9Z" fill="white"/>
<path d="M18.3 12.4L15.4 15.3C14.8 15.9 15.2 16.9 16.1 16.9C16.3 16.9 16.6 16.8 16.8 16.6L19.7 13.7C20.1 13.3 20.1 12.7 19.7 12.4C19.2 12 18.6 12 18.3 12.4Z" fill="white"/>
<path d="M21.8004 23.4C21.7004 22.9 21.3004 22.5 20.8004 22.5C20.3004 22.5 19.8004 22.8 19.7004 23.3L18.3004 28.1L16.9004 23.3C16.7004 22.8 16.3004 22.5 15.8004 22.5C15.3004 22.5 14.9004 22.9 14.8004 23.4L13.5004 30.8C13.4004 31.3 13.7004 31.8 14.3004 31.9C14.8004 32 15.3004 31.7 15.4004 31.1L16.2004 26.9L17.5004 31.1C17.8004 32.1 19.3004 32.1 19.6004 31.1L20.8004 26.9L21.6004 31.1C21.7004 31.6 22.2004 31.9 22.7004 31.8C23.2004 31.7 23.5004 31.2 23.4004 30.7L21.8004 23.4Z" fill="white"/>
<path d="M26.2003 22.5C25.7003 22.5 25.3003 22.9 25.3003 23.4V31C25.3003 31.5 25.7003 31.9 26.2003 31.9C26.7003 31.9 27.1003 31.5 27.1003 31V23.4C27.1003 23 26.7003 22.5 26.2003 22.5Z" fill="white"/>
<path d="M10.3004 26.7C10.6004 26.3 10.7004 25.8 10.7004 25.2C10.7004 23.7 9.50039 22.5 8.00039 22.5H5.80039C5.30039 22.5 4.90039 22.9 4.90039 23.4V31C4.90039 31.5 5.30039 31.9 5.80039 31.9C5.80039 31.9 7.80039 31.9 8.40039 31.9C10.0004 31.9 11.4004 30.6 11.4004 28.9C11.4004 28.1 10.9004 27.2 10.3004 26.7ZM8.00039 24.4C8.40039 24.4 8.80039 24.8 8.80039 25.2C8.80039 25.7 8.50039 26 8.00039 26C7.80039 26 7.50039 26 7.20039 26H6.80039V24.4H8.00039ZM8.40039 30.1C8.10039 30.1 7.40039 30.1 6.80039 30.1V27.9C6.90039 27.9 7.10039 27.9 7.20039 27.9H8.40039C9.00039 27.9 9.50039 28.4 9.50039 29C9.50039 29.6 9.00039 30.1 8.40039 30.1Z" fill="white"/>
</svg>
