<svg width="24" height="24" viewBox="0 0 24 24" fill="none" xmlns="http://www.w3.org/2000/svg">
<path d="M12 0C5.4 0 0 5.4 0 12C0 18.6 5.4 24 12 24C18.6 24 24 18.6 24 12C24 5.4 18.6 0 12 0ZM12 22.3C6.3 22.3 1.7 17.7 1.7 12C1.7 6.3 6.3 1.7 12 1.7C17.7 1.7 22.3 6.3 22.3 12C22.3 17.7 17.7 22.3 12 22.3Z" fill="white"/>
<path d="M12.0001 6.3C12.4001 6.3 12.7001 6.5 12.9001 6.9C12.7001 6.5 12.4001 6.3 12.0001 6.3C11.6001 6.3 11.3001 6.5 11.1001 6.9C11.3001 6.5 11.6001 6.3 12.0001 6.3Z" fill="white"/>
<path d="M16.7 11.1H13H12.9V11V7.2C12.9 6.7 12.5 6.4 12.1 6.4C11.6 6.4 11.3 6.8 11.3 7.2V11V11.1H11.2H7.3C6.8 11.1 6.5 11.5 6.5 11.9C6.5 12.3 6.9 12.7 7.3 12.7H11H11.1V12.8V16.5C11.1 17 11.5 17.3 11.9 17.3C12.4 17.3 12.7 16.9 12.7 16.5V12.8V12.7H12.8H16.5C17 12.7 17.3 12.3 17.3 11.9C17.3 11.5 17.1 11.1 16.7 11.1Z" fill="white"/>
</svg>
