<svg width="24" height="24" viewBox="0 0 24 24" fill="none" xmlns="http://www.w3.org/2000/svg">
<path d="M11.7 24C5.3 24 0 18.7 0 12.3C0 5.9 5.3 0.5 11.7 0.5C12.2 0.5 12.5 0.9 12.5 1.3C12.5 1.7 12.1 2.1 11.7 2.1C6.2 2.2 1.6 6.7 1.6 12.3C1.6 17.9 6.1 22.4 11.7 22.4C17.3 22.4 21.8 17.9 21.8 12.3C21.8 11.8 22.2 11.5 22.6 11.5C23 11.5 23.4 11.9 23.4 12.3C23.5 18.7 18.2 24 11.7 24Z" fill="white"/>
<path d="M19.4 20.5999H17.8C17.8 17.2999 15.1 14.4999 11.7 14.4999C8.3 14.4999 5.6 17.1999 5.6 20.5999H4C4 16.3999 7.5 12.8999 11.7 12.8999C15.9 12.8999 19.4 16.3999 19.4 20.5999Z" fill="white"/>
<path d="M11.7001 14.5999C9.2001 14.5999 7.1001 12.4999 7.1001 9.9999C7.1001 7.4999 9.2001 5.3999 11.7001 5.3999C14.2001 5.3999 16.3001 7.4999 16.3001 9.9999C16.3001 12.4999 14.2001 14.5999 11.7001 14.5999ZM11.7001 6.9999C10.1001 6.9999 8.8001 8.3999 8.8001 9.9999C8.8001 11.5999 10.1001 12.8999 11.7001 12.8999C13.3001 12.8999 14.6001 11.5999 14.6001 9.9999C14.6001 8.3999 13.3001 6.9999 11.7001 6.9999Z" fill="white"/>
<path d="M19.4001 8.7C18.9001 8.7 18.6001 8.3 18.6001 7.9V0.8C18.6001 0.3 19.0001 0 19.4001 0C19.8001 0 20.2001 0.4 20.2001 0.8V7.9C20.2001 8.4 19.8001 8.7 19.4001 8.7Z" fill="white"/>
<path d="M22.9 5.2001H15.8C15.3 5.2001 15 4.8001 15 4.4001C15 4.0001 15.4 3.6001 15.8 3.6001H22.9C23.4 3.6001 23.7 4.0001 23.7 4.4001C23.7 4.8001 23.4 5.2001 22.9 5.2001Z" fill="white"/>
</svg>
