<svg width="24" height="24" viewBox="0 0 24 24" fill="none" xmlns="http://www.w3.org/2000/svg">
<path d="M21.3 11.4C20.8 11.4 20.5 11.8 20.5 12.2V20.8C20.5 21.6 19.9 22.2 19.1 22.2H3.1C2.3 22.2 1.7 21.6 1.7 20.8V4.9C1.7 4.1 2.3 3.5 3.1 3.5H10.8C11.3 3.5 11.6 3.1 11.6 2.7C11.6 2.2 11.2 1.9 10.8 1.9H3.1C1.4 1.8 0 3.2 0 4.9V20.8C0 22.6 1.4 24 3.1 24H19C20.7 24 22.1 22.6 22.1 20.9V12.3C22.2 11.8 21.8 11.4 21.3 11.4Z" fill="white"/>
<path d="M23.7 0.699976C23.7 0.599976 23.7 0.499976 23.7 0.499976C23.7 0.399976 23.6 0.399976 23.6 0.299976C23.6 0.299976 23.6 0.299976 23.6 0.199976C23.6 0.199976 23.6 0.199976 23.5 0.199976C23.4 0.0999756 23.4 0.0999756 23.3 0.0999756C23.2 0.0999756 23.2 0.0999756 23.1 0.0999756H23H14.9C14.4 0.0999756 14.1 0.499976 14.1 0.899976C14.1 1.39998 14.5 1.69998 14.9 1.69998H21L9.00005 13.7C8.80005 13.9 8.80005 14.1 8.80005 14.3C8.80005 14.5 8.90005 14.7 9.00005 14.9C9.20005 15.1 9.40005 15.1 9.60005 15.1C9.80005 15.1 10 15 10.2 14.9L22.2 2.89998V8.79998C22.2 9.29998 22.6 9.59998 23 9.59998C23.5 9.59998 23.8 9.19998 23.8 8.79998L23.7 0.699976C23.7 0.799976 23.7 0.799976 23.7 0.699976Z" fill="white"/>
</svg>
