<svg width="29" height="32" viewBox="0 0 29 32" fill="none" xmlns="http://www.w3.org/2000/svg">
<path d="M11.7998 22.7L6.89977 14.7C6.69977 14.4 6.49977 14.3 6.19977 14.3C5.89977 14.3 5.59977 14.5 5.49977 14.7L0.899766 22.8C0.299766 23.8 0.0997656 24.7 0.0997656 25.7C-0.00023444 29.2 2.79977 32 6.29977 32C9.79977 32 12.5998 29.2 12.5998 25.7C12.6998 24.4 12.2998 23.6 11.7998 22.7ZM6.29977 30.3C3.79977 30.3 1.69977 28.2 1.69977 25.7C1.69977 25 1.89977 24.4 2.29977 23.6L6.19977 16.8L10.2998 23.6C10.6998 24.3 10.9998 24.9 10.9998 25.7C10.8998 28.2 8.89977 30.3 6.29977 30.3Z" fill="white"/>
<path d="M27.7 22.7L22.8 14.7C22.6 14.4 22.4 14.3 22.1 14.3C21.8 14.3 21.5 14.5 21.4 14.7L16.8 22.8C16.2 23.8 16 24.7 16 25.7C16 29.2 18.8 32 22.3 32C25.8 32 28.6 29.2 28.6 25.7C28.6 24.4 28.3 23.6 27.7 22.7ZM22.3 30.3C19.8 30.3 17.7 28.2 17.7 25.7C17.7 25 17.9 24.4 18.3 23.6L22.2 16.8L26.3 23.6C26.7 24.3 27 24.9 27 25.7C26.9 28.2 24.8 30.3 22.3 30.3Z" fill="white"/>
<path d="M19.5 25.1C19.5 25.6 19.9 26 20.4 26H24.2C24.7 26 25.1 25.6 25.1 25.1C25.1 24.6 24.7 24.2 24.2 24.2H20.4C19.9 24.2 19.5 24.6 19.5 25.1Z" fill="white"/>
<path d="M8.19961 24.2H7.29961V23.3C7.29961 22.8 6.89961 22.4 6.39961 22.4C5.89961 22.4 5.49961 22.8 5.49961 23.3V24.2H4.49961C3.99961 24.2 3.59961 24.6 3.59961 25.1C3.59961 25.6 3.89961 26 4.49961 26H5.39961V27C5.39961 27.5 5.79961 27.9 6.29961 27.9C6.79961 27.9 7.19961 27.5 7.19961 27V26H8.09961C8.59961 26 8.99961 25.6 8.99961 25.1C8.99961 24.6 8.69961 24.2 8.19961 24.2Z" fill="white"/>
<path d="M9.39971 7.4C9.79971 7.4 10.1997 7.3 10.5997 7.2C10.9997 7.1 11.3997 7 11.7997 6.7C12.1997 6.4 12.4997 6.1 12.6997 5.6C12.8997 5.2 12.9997 4.6 13.0997 4C13.0997 3.2 12.8997 2.4 12.4997 1.8C12.0997 1.2 11.5997 0.799999 10.9997 0.499998C10.3997 0.199998 9.79971 0.0999985 9.19971 0.0999985H6.19971C5.99971 0.0999985 5.69971 0.199998 5.49971 0.299998C5.29971 0.499999 5.19971 0.799998 5.19971 1.1V12C5.19971 12.3 5.29971 12.6 5.49971 12.8C5.69971 12.9 5.89971 13 6.19971 13C6.49971 13 6.69971 12.9 6.89971 12.7C7.09971 12.5 7.19971 12.3 7.19971 12V7.9L11.4997 12.6C11.6997 12.9 11.9997 13 12.3997 13C12.6997 13 12.8997 12.9 12.9997 12.8C13.1997 12.7 13.2997 12.5 13.2997 12.2C13.2997 11.9 13.1997 11.6 12.8997 11.4L9.39971 7.4ZM10.2997 5.5C9.99971 5.7 9.59971 5.8 9.09971 5.8H7.19971V1.9H8.99971C9.39971 1.9 9.69971 2 9.99971 2.1C10.2997 2.3 10.5997 2.5 10.6997 2.8C10.8997 3.1 10.9997 3.4 10.9997 3.8C10.9997 4.2 10.8997 4.6 10.7997 4.9C10.7997 5.1 10.5997 5.4 10.2997 5.5Z" fill="white"/>
<path d="M22.9997 4.9C22.6997 4.3 22.2997 3.9 21.6997 3.6C20.6997 3 19.3997 2.9 18.3997 3.5C18.0997 3.6 17.8997 3.8 17.6997 4V0.999998C17.6997 0.699998 17.5997 0.399998 17.3997 0.199998C16.9997 -0.100002 16.3997 -0.200002 15.9997 0.199998C15.7997 0.399998 15.6997 0.599998 15.6997 0.999998V12C15.6997 12.3 15.7997 12.6 15.9997 12.7C16.3997 13.1 16.9997 13.1 17.3997 12.7C17.5997 12.5 17.6997 12.3 17.6997 11.9V6.9C17.6997 6.5 17.7997 6.1 17.9997 5.8C18.1997 5.5 18.3997 5.3 18.6997 5.1C18.9997 4.9 19.2997 4.9 19.6997 4.9C20.2997 4.9 20.6997 5.1 21.0997 5.5C21.3997 5.9 21.5997 6.4 21.5997 7V12C21.5997 12.3 21.6997 12.6 21.8997 12.7C22.0997 12.9 22.2997 13 22.5997 13C22.8997 13 23.0997 12.9 23.2997 12.7C23.4997 12.5 23.5997 12.3 23.5997 11.9V6.7C23.3997 6.1 23.2997 5.5 22.9997 4.9Z" fill="white"/>
</svg>
