<svg width="24" height="24" viewBox="0 0 24 24" fill="none" xmlns="http://www.w3.org/2000/svg">
<path d="M18.5998 2.1666C18.3998 1.96937 18.0998 1.87075 17.7998 1.67352C18.0998 1.77214 18.3998 1.96937 18.5998 2.1666Z" fill="white"/>
<path d="M20.1 0.197248C20.1 0.197248 20 0.197248 20 0.0986328C20 0.197248 20.1 0.197248 20.1 0.197248Z" fill="white"/>
<path d="M20.4 0.493089C20.3 0.394475 20.3 0.394475 20.4 0.493089C20.3 0.394475 20.3 0.493089 20.4 0.493089Z" fill="white"/>
<path d="M20.7999 4.2333L20.3999 0.886294C20.2999 0.492529 19.9999 0.197205 19.5999 0.197205H19.4999C19.2999 0.197205 19.0999 0.295646 18.8999 0.492529C18.7999 0.689411 18.6999 0.886294 18.6999 1.08318L18.7999 2.06759V2.36291L18.4999 2.16603C16.4999 0.886294 14.1999 0.197205 11.7999 0.197205C9.49989 0.197205 7.29989 0.787852 5.39989 2.06759C0.699885 5.02083 -1.30012 10.9273 0.699884 16.0463C0.799885 16.3416 1.09988 16.5385 1.49988 16.5385C1.59988 16.5385 1.69988 16.5385 1.79988 16.44C1.99989 16.3416 2.19989 16.2431 2.29989 16.0463C2.39989 15.8494 2.39989 15.5541 2.29989 15.3572C0.599884 10.9273 2.29989 5.9068 6.29989 3.34733C7.89989 2.36291 9.79989 1.77227 11.7999 1.77227C13.7999 1.77227 15.6999 2.36291 17.3999 3.44577L17.6999 3.64265L17.2999 3.74109L16.2999 3.83953C15.7999 3.93798 15.4999 4.33174 15.5999 4.82395C15.6999 5.21771 15.9999 5.51304 16.3999 5.51304C16.4999 5.51304 18.9999 5.21771 19.8999 5.11927C20.0999 5.11927 20.2999 5.02083 20.4999 4.82395C20.6999 4.72551 20.7999 4.43018 20.7999 4.2333Z" fill="white"/>
<path d="M1 16.6366C1.1 16.6366 1.1 16.7352 1.2 16.7352C1.1 16.6366 1.1 16.6366 1 16.6366Z" fill="white"/>
<path d="M0.799805 16.4397C0.899805 16.5383 0.899805 16.5383 0.999805 16.6369C0.899805 16.5383 0.799805 16.4397 0.799805 16.4397Z" fill="white"/>
<path d="M0.599854 16.1443C0.599854 16.243 0.699854 16.243 0.699854 16.3416C0.699854 16.243 0.699854 16.243 0.599854 16.1443Z" fill="white"/>
<path d="M17.0999 1.27972C17.2999 1.37834 17.4999 1.47695 17.5999 1.57557C17.3999 1.37834 17.1999 1.27972 17.0999 1.27972Z" fill="white"/>
<path d="M22.9 7.38394C22.8 7.28532 22.8 7.28532 22.7 7.18671C22.8 7.18671 22.9 7.28532 22.9 7.38394Z" fill="white"/>
<path d="M23.1 7.5812C23.1 7.48259 23 7.48259 23 7.38397C23 7.48259 23.1 7.5812 23.1 7.5812Z" fill="white"/>
<path d="M23 7.67891C22.9 7.38359 22.6 7.18671 22.2 7.18671C22.1 7.18671 22 7.18671 21.9 7.28515C21.7 7.38359 21.5 7.48203 21.4 7.67891C21.3 7.8758 21.3 8.17112 21.4 8.368C23.1 12.7979 21.4 17.8184 17.4 20.3778C15.8 21.3623 13.9 21.9529 11.9 21.9529C9.9 21.9529 8 21.3623 6.3 20.2794L6 19.9841L6.4 19.8856L7.4 19.7872C7.9 19.6888 8.2 19.295 8.1 18.8028C8 18.409 7.7 18.1137 7.3 18.1137C7.2 18.1137 4.7 18.409 3.8 18.5075C3.6 18.5075 3.4 18.6059 3.2 18.8028C3 19.0981 3 19.295 3 19.4919L3.4 22.8389C3.5 23.3311 3.8 23.6264 4.2 23.6264H4.3C4.5 23.6264 4.7 23.528 4.9 23.3311C5 23.1342 5.1 22.9373 5.1 22.7404L5 21.6576V21.3623L5.3 21.5591C7.3 22.8389 9.6 23.528 12 23.528C14.3 23.528 16.5 22.9373 18.4 21.6576C23 18.7043 25 12.7979 23 7.67891Z" fill="white"/>
<path d="M22.7 7.18669C22.6 7.18669 22.6 7.08807 22.5 7.08807C22.6 7.08807 22.7 7.08807 22.7 7.18669Z" fill="white"/>
<path d="M21.8 6.98948C21.9 6.98948 22.0001 6.89087 22.1001 6.89087C22.0001 6.98948 21.9 6.98948 21.8 6.98948Z" fill="white"/>
</svg>
