<svg width="24" height="24" viewBox="0 0 24 24" fill="none" xmlns="http://www.w3.org/2000/svg">
<path d="M22.8 1.67351L21.8 0.689091C21.4 0.196883 20.8 0 20.3 0C19.7 0 19.2 0.196883 18.8 0.590649L18 1.37818H17.9H4.9C2.1 1.37818 0 3.44545 0 6.10338V18.9008C0 21.5587 2.1 23.626 4.8 23.626H17.8C20.4 23.626 22.6 21.5587 22.6 18.9008V6.10338C22.6 5.70961 22.6 5.41429 22.5 5.02052L22.8 4.7252C23.6 3.83922 23.6 2.46104 22.8 1.67351ZM21 6.49714V18.9008C21 20.5743 19.6 22.0509 17.8 22.0509H4.8C3.1 22.0509 1.6 20.6727 1.6 18.9008V6.10338C1.6 4.33143 3 2.95325 4.8 2.95325H16.2H16.3L16.2 3.05169L7.4 11.7145C7.3 11.813 7.2 11.9114 7.2 12.1083L6.2 15.9475C6.1 16.2429 6.2 16.5382 6.4 16.7351C6.6 16.9319 6.8 16.932 7 16.932C7.1 16.932 7.1 16.932 7.2 16.932L11.1 15.9475C11.2 15.9475 11.4 15.8491 11.5 15.7507L21 6.49714V6.3987V6.49714ZM8.8 12.9943L10.2 14.3725L10.3 14.4709H10.2L8.3 14.9631H8.2V14.8647L8.8 12.9943ZM21.7 3.5439L11.6 13.4865L9.8 11.813L19.9 1.77195C20 1.67351 20.1 1.57507 20.3 1.57507C20.4 1.57507 20.6 1.67351 20.7 1.77195L21.7 2.75636C21.9 2.95325 21.9 3.34701 21.7 3.5439Z" fill="white"/>
</svg>
