<svg width="23" height="32" viewBox="0 0 23 32" fill="none" xmlns="http://www.w3.org/2000/svg">
<g clip-path="url(#clip0)">
<path d="M20.8 15.5L11.7 0.5C11.5 0.2 11.2 0 10.9 0C10.6 0 10.3 0.2 10.1 0.5L1.5 15.6C0.4 17.4 0 19 0 20.8C0 27 5 32 11.2 32C17.4 32 22.4 27 22.4 20.8C22.4 18.6 21.8 17.1 20.8 15.5ZM11.2 30.1C6.1 30.1 1.9 25.9 1.9 20.8C1.9 19.3 2.3 18.1 3.1 16.6L10.9 2.8L19.2 16.5C20 17.9 20.5 19.1 20.5 20.8C20.5 25.9 16.4 30.1 11.2 30.1Z" fill="white"/>
<path d="M12.2999 28.3C7.6999 28.3 3.8999 24.5 3.8999 19.9C3.8999 19.4 4.2999 19 4.7999 19C5.2999 19 5.6999 19.4 5.6999 19.9C5.6999 23.5 8.5999 26.4 12.1999 26.4C12.6999 26.4 13.0999 26.8 13.0999 27.3C13.0999 27.8 12.7999 28.3 12.2999 28.3Z" fill="white"/>
</g>
<defs>
<clipPath id="clip0">
<rect width="22.4" height="32" fill="white"/>
</clipPath>
</defs>
</svg>
