<svg width="20" height="20" viewBox="0 0 20 20" fill="none" xmlns="http://www.w3.org/2000/svg">
<path d="M0.199609 19.8001C0.499609 20.1001 1.09961 20.1001 1.39961 19.8001L9.99961 11.2001L18.5996 19.8001C18.8996 20.1001 19.4996 20.1001 19.7996 19.8001C20.0996 19.5001 20.0996 19.0001 19.7996 18.6001L11.1996 10.0001L19.7996 1.4001C20.0996 1.1001 20.0996 0.600098 19.7996 0.200098C19.4996 -0.0999023 18.9996 -0.0999023 18.5996 0.200098L9.99961 8.8001L1.39961 0.300098C1.09961 9.76622e-05 0.499609 9.76622e-05 0.199609 0.300098C-0.100391 0.600098 -0.100391 1.1001 0.199609 1.5001L8.79961 10.0001L0.199609 18.6001C-0.100391 18.9001 -0.100391 19.4001 0.199609 19.8001Z" fill="white"/>
</svg>
