<svg width="20" height="20" viewBox="0 0 20 20" fill="none" xmlns="http://www.w3.org/2000/svg">
<path d="M0.200098 19.8001C0.500098 20.1001 1.1001 20.1001 1.4001 19.8001L10.0001 11.2001L18.6001 19.8001C18.9001 20.1001 19.5001 20.1001 19.8001 19.8001C20.1001 19.5001 20.1001 19.0001 19.8001 18.6001L11.2001 10.0001L19.8001 1.4001C20.1001 1.1001 20.1001 0.600098 19.8001 0.200098C19.5001 -0.0999023 19.0001 -0.0999023 18.6001 0.200098L10.0001 8.8001L1.4001 0.300098C1.1001 9.76622e-05 0.500098 9.76622e-05 0.200098 0.300098C-0.0999023 0.600098 -0.0999023 1.1001 0.200098 1.5001L8.8001 10.0001L0.200098 18.6001C-0.0999023 18.9001 -0.0999023 19.4001 0.200098 19.8001Z" fill="white"/>
</svg>
