<svg width="26" height="24" viewBox="0 0 26 24" fill="none" xmlns="http://www.w3.org/2000/svg">
<g clip-path="url(#clip0)">
<path d="M21.4856 24H5.06665C2.80905 24 0.961914 22.2 0.961914 20V4C0.961914 1.8 2.80905 0 5.06665 0H21.4856C23.7432 0 25.5903 1.8 25.5903 4V20C25.5903 22.2 23.7432 24 21.4856 24Z" fill="#1790C9"/>
<path d="M11.7366 17.3C11.7366 16.5 11.8392 15.8 12.0445 15.3C12.7628 13.6 14.5073 12.7 17.278 12.7C16.9701 11.7 16.0466 11 15.0204 11H11.2235C9.88947 11 8.86328 12 8.86328 13.3V15.5V17V18C8.86328 18.8 9.47899 19.4 10.2999 19.4H11.3261H12.1471C11.8392 18.4 11.7366 17.8 11.7366 17.3Z" fill="white"/>
<path d="M16.7652 17.2C16.5599 17.2 16.3547 17.2 16.0469 17.3C15.8416 17.3 15.739 17.4 15.6364 17.4C15.5338 17.5 15.4311 17.5 15.3285 17.6C15.2259 17.7 15.2259 17.7 15.1233 17.8C15.0207 17.9 15.0207 18.1 14.918 18.2C14.918 18.4 14.8154 18.6 14.8154 18.9C14.8154 19 14.8154 19.1 14.8154 19.1H14.918H15.9442C16.7652 19.1 17.3809 18.5 17.3809 17.7V17C17.1757 17.1 16.9704 17.2 16.7652 17.2Z" fill="white"/>
<path d="M13.1734 10.2C14.9179 10.2 16.3545 8.8 16.3545 7.1C16.3545 5.4 14.9179 4 13.1734 4C11.4288 4 9.99219 5.4 9.99219 7.1C9.99219 8.8 11.4288 10.2 13.1734 10.2Z" fill="white"/>
<path d="M21.8957 14.6L19.2277 12C19.2277 12 19.125 12 19.0224 12C18.9198 12 18.8172 12 18.8172 12.1C18.7146 12.2 18.7146 12.2 18.7146 12.3V13.6H17.5858C15.1229 13.6 13.5836 14.3 13.0706 15.6C12.8653 16 12.7627 16.6 12.7627 17.3C12.7627 17.9 12.9679 18.6 13.3784 19.6C13.3784 19.6 13.3784 19.7 13.481 19.7C13.481 19.8 13.481 19.8 13.5836 19.9C13.5836 19.9 13.5836 20 13.6863 20C13.6863 20.1 13.7889 20.1 13.7889 20.1C13.8915 20.1 13.8915 20.1 13.8915 20.1V20V19.9C13.8915 19.8 13.8915 19.8 13.8915 19.8C13.8915 19.6 13.8915 19.4 13.8915 19.2C13.8915 18.9 13.8915 18.6 13.9941 18.3C14.0967 18 14.0967 17.8 14.1994 17.6C14.302 17.4 14.4046 17.2 14.6098 17.1C14.8151 17 14.9177 16.8 15.1229 16.8C15.3282 16.7 15.5334 16.6 15.8412 16.6C16.1491 16.5 16.3543 16.5 16.6622 16.5C16.9701 16.5 17.2779 16.5 17.5858 16.5H18.7146V17.8C18.7146 17.9 18.7146 18 18.8172 18C18.9198 18.1 18.9198 18.1 19.0224 18.1C19.125 18.1 19.2277 18.1 19.2277 18L21.8957 15.4C21.9984 15.3 21.9984 15.3 21.9984 15.2C21.9984 15.1 21.9984 14.7 21.8957 14.6Z" fill="white"/>
</g>
<defs>
<clipPath id="clip0">
<rect width="24.6284" height="24" fill="white" transform="translate(0.961914)"/>
</clipPath>
</defs>
</svg>
