<svg width="17" height="12" viewBox="0 0 17 12" fill="none" xmlns="http://www.w3.org/2000/svg">
<path d="M16.4215 5.6999C16.3189 5.4999 12.8299 0.899902 8.31468 0.899902C3.90209 0.899902 0.310442 5.4999 0.207823 5.6999C0.105205 5.8999 0.105205 6.0999 0.207823 6.2999C0.310442 6.4999 3.79947 11.0999 8.31468 11.0999C12.7273 11.0999 16.3189 6.4999 16.4215 6.2999C16.5242 6.0999 16.5242 5.8999 16.4215 5.6999ZM8.31468 9.1999C6.57016 9.1999 5.03089 7.7999 5.03089 5.9999C5.03089 4.1999 6.46755 2.7999 8.31468 2.7999C10.1618 2.7999 11.5985 4.1999 11.5985 5.9999C11.5985 7.7999 10.0592 9.1999 8.31468 9.1999Z" fill="white"/>
<path d="M8.31425 8.1998C9.56109 8.1998 10.5718 7.21483 10.5718 5.9998C10.5718 4.78478 9.56109 3.7998 8.31425 3.7998C7.0674 3.7998 6.05664 4.78478 6.05664 5.9998C6.05664 7.21483 7.0674 8.1998 8.31425 8.1998Z" fill="white"/>
</svg>
