<svg width="18" height="18" viewBox="0 0 18 18" fill="none" xmlns="http://www.w3.org/2000/svg">
<path d="M13.3995 8.09783C13.6994 7.79767 13.6991 7.39767 13.399 7.09783C13.0988 6.79799 12.6988 6.79821 12.399 7.09837L9.00076 10.4002L5.59892 7.00203C5.29876 6.7022 4.89876 6.70241 4.59892 7.00257C4.49898 7.10263 4.39908 7.30268 4.39919 7.50268C4.3993 7.70268 4.49941 7.90263 4.59946 8.00257L8.50156 11.9005C8.60167 12.1004 8.80173 12.2003 9.00173 12.2002C9.20173 12.2001 9.40167 12.1 9.50162 11.9999L13.3995 8.09783Z" fill="white"/>
<path d="M17 8.99569C16.9976 4.59569 13.3957 0.997628 8.99569 1C4.59569 1.00237 0.997629 4.60431 1 9.00431C1.00237 13.4043 4.60431 17.0024 9.00431 17C13.4043 16.9976 17.0024 13.3957 17 8.99569ZM2.5 9.0035C2.49806 5.4035 5.3965 2.50194 8.9965 2.5C12.5965 2.49806 15.4981 5.3965 15.5 8.9965C15.5019 12.5965 12.6035 15.4981 9.0035 15.5C5.40351 15.5019 2.50194 12.6035 2.5 9.0035Z" fill="white"/>
</svg>
