<svg width="16" height="16" viewBox="0 0 16 16" fill="none" xmlns="http://www.w3.org/2000/svg">
<path d="M16.0002 11.7V12.2C16.0002 12.3 15.9002 12.5 15.9002 12.6L12.6002 15.9C12.5002 16 12.4002 16 12.2002 16H11.7002V12.2C11.7002 11.9 11.9002 11.7 12.2002 11.7H16.0002Z" fill="white"/>
<path d="M14.2 3.29999H9.2V4.79999C9.2 5.49999 8.6 5.99999 8 5.99999C7.4 5.99999 6.8 5.49999 6.8 4.79999V3.29999H1.8C0.8 3.29999 0 4.19999 0 5.19999V14.2C0 15.2 0.8 16 1.8 16H11V12.2C11 11.6 11.5 11 12.2 11H16V5.19999C16 4.19999 15.2 3.29999 14.2 3.29999ZM9.3 13H3.2C2.9 13 2.7 12.8 2.7 12.5C2.7 12.2 2.9 12 3.2 12H9.4C9.7 12 9.9 12.2 9.9 12.5C9.9 12.8 9.6 13 9.3 13ZM12.8 10.3H3.2C2.9 10.3 2.7 10.1 2.7 9.79999C2.7 9.49999 2.9 9.29999 3.2 9.29999H12.9C13.2 9.29999 13.4 9.49999 13.4 9.79999C13.3 10.1 13.1 10.3 12.8 10.3ZM12.8 7.69999H3.2C2.9 7.69999 2.7 7.49999 2.7 7.19999C2.7 6.89999 2.9 6.69999 3.2 6.69999H12.9C13.2 6.69999 13.4 6.89999 13.4 7.19999C13.4 7.49999 13.1 7.69999 12.8 7.69999Z" fill="white"/>
<path d="M8 5.29999C7.7 5.29999 7.5 5.09999 7.5 4.79999V2.29999C7.5 1.99999 7.7 1.79999 8 1.79999C8.3 1.79999 8.5 1.99999 8.5 2.29999V4.79999C8.5 5.09999 8.3 5.29999 8 5.29999Z" fill="white"/>
<path d="M8.0002 2.7C7.3002 2.7 6.7002 2.1 6.7002 1.4C6.7002 0.6 7.3002 0 8.0002 0C8.7002 0 9.3002 0.6 9.3002 1.3C9.3002 2.1 8.7002 2.7 8.0002 2.7Z" fill="white"/>
</svg>
