<svg width="24" height="24" viewBox="0 0 24 24" fill="none" xmlns="http://www.w3.org/2000/svg">
<path fill-rule="evenodd" clip-rule="evenodd" d="M12 0C5.4 0 0 5.4 0 12C0 18.6 5.4 24 12 24C18.6 24 24 18.6 24 12C24 5.4 18.6 0 12 0ZM16.3 17.8H7.7C7.2 17.8 6.9 17.4 6.9 17C6.9 16.6 7.3 16.2 7.7 16.2H16.3C16.8 16.2 17.1 16.6 17.1 17C17.1 17.4 16.7 17.8 16.3 17.8ZM16.9 10.7L12.7 14.9C12.5 15.1 12.3 15.1 12 15.1C11.8 15.1 11.5 15.1 11.3 14.9L7.1 10.7C6.8 10.4 6.8 9.9 7.1 9.6C7.4 9.3 7.9 9.3 8.2 9.6L11.3 12.7V4.7C11.2 4.3 11.6 4 12 4C12.4 4 12.8 4.3 12.8 4.8V12.7L15.9 9.6C16.2 9.3 16.7 9.3 17 9.6C17.2 9.9 17.2 10.4 16.9 10.7Z" fill="url(#paint0_linear)"/>
<defs>
<linearGradient id="paint0_linear" x1="12" y1="21.9329" x2="12" y2="-11.9706" gradientUnits="userSpaceOnUse">
<stop stop-color="white"/>
<stop offset="1" stop-color="#72CCFF"/>
</linearGradient>
</defs>
</svg>
