<svg width="18" height="18" viewBox="0 0 18 18" fill="none" xmlns="http://www.w3.org/2000/svg">
<g clip-path="url(#clip0)">
<path d="M13.3978 8.08963C13.6971 7.78891 13.6961 7.38892 13.3954 7.08964C13.0947 6.79036 12.6947 6.79132 12.3954 7.09204L9.00336 10.4002L5.59521 7.00837C5.29449 6.70909 4.89449 6.71005 4.59521 7.01077C4.49545 7.11101 4.39593 7.31125 4.39641 7.51125C4.39689 7.71125 4.49737 7.91101 4.59761 8.01077L8.50697 11.9014C8.60745 12.1012 8.80769 12.2007 9.00769 12.2002C9.20769 12.1997 9.40745 12.0992 9.5072 11.999L13.3978 8.08963Z" fill="white"/>
<path d="M17 8.98079C16.9894 4.5808 13.3808 0.989455 8.98079 1.00002C4.5808 1.01059 0.989455 4.61923 1.00002 9.01921C1.01059 13.4192 4.61923 17.0105 9.01921 17C13.4192 16.9894 17.0105 13.3808 17 8.98079ZM2.50002 9.01561C2.49137 5.41562 5.3844 2.50867 8.98439 2.50002C12.5844 2.49137 15.4913 5.3844 15.5 8.98439C15.5086 12.5844 12.6156 15.4913 9.01561 15.5C5.41562 15.5086 2.50867 12.6156 2.50002 9.01561Z" fill="white"/>
</g>
<defs>
<clipPath id="clip0">
<rect width="16" height="16" fill="white" transform="translate(17.0192 16.9808) rotate(179.862)"/>
</clipPath>
</defs>
</svg>
