<svg width="20" height="20" viewBox="0 0 20 20" fill="none" xmlns="http://www.w3.org/2000/svg">
<path d="M9.30013 13.6001C9.10013 13.6001 8.90013 13.5001 8.70013 13.4001L4.90013 9.2001C4.70013 8.9001 4.70013 8.4001 5.00013 8.2001C5.30013 7.9001 5.80013 7.9001 6.10013 8.2001L9.40013 11.7001L18.4001 2.7001C18.7001 2.4001 19.2001 2.4001 19.5001 2.7001C19.8001 3.0001 19.8001 3.5001 19.5001 3.8001L9.90013 13.4001C9.70013 13.5001 9.50013 13.6001 9.30013 13.6001Z" fill="#36AE75"/>
<path d="M10 20C4.5 20 0 15.5 0 10C0 4.5 4.5 0 10 0C10.4 0 10.8 0.3 10.8 0.8C10.8 1.3 10.4 1.5 10 1.5C5.3 1.5 1.5 5.3 1.5 10C1.5 14.7 5.3 18.5 10 18.5C14.7 18.5 18.5 14.7 18.5 10C18.5 9.6 18.8 9.2 19.3 9.2C19.8 9.2 20 9.6 20 10C20 15.5 15.5 20 10 20Z" fill="#36AE75"/>
</svg>
