<svg width="14" height="17" viewBox="0 0 14 17" fill="none" xmlns="http://www.w3.org/2000/svg">
<path d="M3.7366 13.3C3.7366 12.5 3.8392 11.8 4.0445 11.3C4.7628 9.6 6.5073 8.7 9.278 8.7C8.9701 7.7 8.0466 7 7.0204 7H3.2235C1.88947 7 0.86328 8 0.86328 9.3V11.5V13V14C0.86328 14.8 1.47899 15.4 2.2999 15.4H3.3261H4.1471C3.8392 14.4 3.7366 13.8 3.7366 13.3Z" fill="white"/>
<path d="M8.7652 13.2C8.5599 13.2 8.3547 13.2 8.0469 13.3C7.8416 13.3 7.739 13.4 7.6364 13.4C7.5338 13.5 7.4311 13.5 7.3285 13.6C7.2259 13.7 7.2259 13.7 7.1233 13.8C7.0207 13.9 7.0207 14.1 6.918 14.2C6.918 14.4 6.8154 14.6 6.8154 14.9C6.8154 15 6.8154 15.1 6.8154 15.1H6.918H7.9442C8.7652 15.1 9.3809 14.5 9.3809 13.7V13C9.1757 13.1 8.9704 13.2 8.7652 13.2Z" fill="white"/>
<path d="M5.1734 6.2C6.9179 6.2 8.3545 4.8 8.3545 3.1C8.3545 1.4 6.9179 0 5.1734 0C3.4288 0 1.99219 1.4 1.99219 3.1C1.99219 4.8 3.4288 6.2 5.1734 6.2Z" fill="white"/>
<path d="M13.8957 10.6L11.2277 8C11.2277 8 11.125 8 11.0224 8C10.9198 8 10.8172 8 10.8172 8.1C10.7146 8.2 10.7146 8.2 10.7146 8.3V9.6H9.5858C7.1229 9.6 5.5836 10.3 5.0706 11.6C4.8653 12 4.7627 12.6 4.7627 13.3C4.7627 13.9 4.9679 14.6 5.3784 15.6C5.3784 15.6 5.3784 15.7 5.481 15.7C5.481 15.8 5.481 15.8 5.5836 15.9C5.5836 15.9 5.5836 16 5.6863 16C5.6863 16.1 5.7889 16.1 5.7889 16.1C5.8915 16.1 5.8915 16.1 5.8915 16.1V16V15.9C5.8915 15.8 5.8915 15.8 5.8915 15.8C5.8915 15.6 5.8915 15.4 5.8915 15.2C5.8915 14.9 5.8915 14.6 5.9941 14.3C6.0967 14 6.0967 13.8 6.1994 13.6C6.302 13.4 6.4046 13.2 6.6098 13.1C6.8151 13 6.9177 12.8 7.1229 12.8C7.3282 12.7 7.5334 12.6 7.8412 12.6C8.1491 12.5 8.3543 12.5 8.6622 12.5C8.9701 12.5 9.2779 12.5 9.5858 12.5H10.7146V13.8C10.7146 13.9 10.7146 14 10.8172 14C10.9198 14.1 10.9198 14.1 11.0224 14.1C11.125 14.1 11.2277 14.1 11.2277 14L13.8957 11.4C13.9984 11.3 13.9984 11.3 13.9984 11.2C13.9984 11.1 13.9984 10.7 13.8957 10.6Z" fill="white"/>
</svg>
