<svg width="15" height="24" viewBox="0 0 15 24" fill="none" xmlns="http://www.w3.org/2000/svg">
<path d="M12.8117 11.8458C11.9262 11.2103 10.6199 10.5931 8.81815 9.95875C6.85539 9.27159 6.057 8.84907 5.73221 8.61505C5.34877 8.33918 5.17031 7.97762 5.17031 7.47812C5.17031 7.12106 5.17031 6.03413 8.33424 6.03413C10.0324 6.03413 11.5737 6.28135 12.9153 6.76877C13.0744 6.82664 13.2535 6.81821 13.4048 6.74545C13.5558 6.67297 13.6644 6.54402 13.7002 6.39288L14.3049 3.84652C14.3685 3.57767 14.1904 3.30994 13.8962 3.23437C12.7889 2.9495 11.3575 2.77673 9.63432 2.71942V0.564673C9.64774 0.41915 9.5922 0.275594 9.48301 0.168278C9.37256 0.0612431 9.21781 0 9.05682 0H7.06724C6.905 0 6.75025 0.0612431 6.64012 0.168559C6.52998 0.275875 6.47507 0.420274 6.48849 0.565516L6.50502 2.83797C4.7616 3.07761 3.41628 3.66335 2.50026 4.582C1.49595 5.58998 0.986468 6.77102 0.986468 8.09252C0.986468 9.62304 1.71591 10.9246 3.15826 11.9629C4.00283 12.5616 5.31976 13.1779 7.18548 13.8474C8.60724 14.3528 9.58846 14.7939 10.1014 15.1588C10.6346 15.5381 10.8942 15.9783 10.8942 16.5045C10.8942 17.4858 9.62652 17.9836 7.12589 17.9836C5.29417 17.9836 3.547 17.6998 1.93181 17.1405C1.77332 17.0854 1.59548 17.0958 1.44604 17.1694C1.29659 17.2427 1.1902 17.3711 1.15526 17.5206L0.5503 20.1021C0.485093 20.381 0.68009 20.6558 0.98834 20.7196C2.7093 21.0775 4.55007 21.2747 6.46883 21.3078L6.47913 23.446C6.47008 23.5898 6.50346 23.7309 6.61328 23.8357C6.72311 23.9407 6.87598 24 7.03604 24H9.05714C9.05963 24 9.06213 24 9.064 24C9.38504 24 9.64462 23.766 9.64462 23.4772C9.64462 23.437 9.63963 23.3977 9.62996 23.3603L9.63744 21.1331C13.1489 20.5763 15 18.6983 15 15.6796C15.0006 14.1842 14.264 12.8948 12.8117 11.8458Z" fill="#199ED8"/>
</svg>
