<?xml version="1.0" encoding="utf-8"?>
<!-- Svg Vector Icons : http://www.onlinewebfonts.com/icon -->
<!DOCTYPE svg PUBLIC "-//W3C//DTD SVG 1.1//EN" "http://www.w3.org/Graphics/SVG/1.1/DTD/svg11.dtd">
<svg version="1.1" xmlns="http://www.w3.org/2000/svg" xmlns:xlink="http://www.w3.org/1999/xlink" x="0px" y="0px" viewBox="0 0 1000 1000" enable-background="new 0 0 1000 1000" xml:space="preserve">
<metadata> Svg Vector Icons : http://www.onlinewebfonts.com/icon </metadata>
<g><path d="M786.7,827.4l-0.5,73.1h0.5L786.7,827.4z"/><path d="M393.1,232.3c-24.1,0-43.7,19.9-43.7,44.5l0.4,535.2c0,24.6,19.5,44.5,43.7,44.5c24.1,0,43.7-19.9,43.7-44.5l-0.4-535.2C436.8,252.2,417.2,232.3,393.1,232.3z"/><path d="M218.7,189.5l696.9-0.3c24.1,0,43.7-19.9,43.7-44.5s-19.5-44.5-43.7-44.5L568,100.4l-0.2-46c0-24.6-19.5-44.5-43.7-44.5h-43.7c-24.1,0-43.7,19.9-43.7,44.5l0.2,46l-352.6,0.2c-24.1,0-43.7,19.9-43.7,44.5c0,24.6,19.5,44.5,43.7,44.5l47.1,0l0.4,737.7c0,0,0.1-6.4,0,0c-0.3,36.9,14.6,62.8,41.4,62.5c1.5,0.2,5.2,0,6.7,0c1.5,0-1.5,0.1,0,0l643.2-0.4c2.4,0.4,4.8,0.6,7.3,0.6c24.1,0,43.7-19.9,43.7-44.5L873.7,277c0-24.6-19.6-44.5-43.7-44.5c-24.1,0-43.7,19.9-43.7,44.5l0.3,543.2c-1.5,66.9-20.5,80.3-87.4,80.3l-392.8-1.1c-68.3,0-86.4-12.8-87.3-83.5L218.7,189.5z"/><path d="M611.4,232.3c-24.1,0-43.7,19.9-43.7,44.5l0.4,535.2c0,24.6,19.5,44.5,43.7,44.5c24.1,0,43.7-19.9,43.7-44.5l-0.4-535.2C655.1,252.2,635.5,232.3,611.4,232.3z"/></g>
</svg>