<svg width="16" height="16" viewBox="0 0 16 16" fill="none" xmlns="http://www.w3.org/2000/svg">
<path d="M8 0.5C7.8 0.5 7.6 0.7 7.6 0.9C7.6 1.1 7.8 1.3 8 1.3C11.6 1.3 14.6 4.3 14.6 7.9C14.6 11.5 11.6 14.5 8 14.5C4.4 14.5 1.4 11.5 1.4 7.9C1.4 6.1 2.2 4.4 3.4 3.2V4C3.4 4.2 3.6 4.4 3.8 4.4C4 4.4 4.2 4.2 4.2 4V2.3C4.2 2.1 4 1.9 3.7 1.9H2.1C1.8 1.8 1.6 2 1.6 2.3C1.6 2.6 1.8 2.7 2 2.7H2.7C1.3 4.1 0.5 6 0.5 8C0.5 12.1 3.9 15.5 8 15.5C12.1 15.5 15.5 12.1 15.5 8C15.5 3.9 12.1 0.5 8 0.5Z" fill="white"/>
<path d="M8.0002 3.19995C5.3002 3.19995 3.2002 5.39995 3.2002 7.99995C3.2002 10.7 5.4002 12.8 8.0002 12.8C10.7002 12.8 12.8002 10.6 12.8002 7.99995C12.8002 5.29995 10.7002 3.19995 8.0002 3.19995ZM9.2002 9.19995C9.0002 9.39995 8.8002 9.39995 8.6002 9.19995L7.7002 8.29995C7.6002 8.19995 7.6002 8.09995 7.6002 7.99995V6.19995C7.6002 5.99995 7.8002 5.79995 8.0002 5.79995C8.2002 5.79995 8.4002 5.99995 8.4002 6.19995V7.79995L9.2002 8.59995C9.4002 8.69995 9.4002 8.99995 9.2002 9.19995Z" fill="white"/>
</svg>
