<svg width="24" height="24" viewBox="0 0 24 24" fill="none" xmlns="http://www.w3.org/2000/svg">
<g clip-path="url(#clip0)">
<path d="M17.8 6.2L11.8 0.2C11.6 0.1 11.4 0 11.2 0H1.5C0.7 0 0 0.7 0 1.5V22.5C0 23.3 0.7 24 1.5 24H16.5C17.3 24 18 23.3 18 22.5V6.7C18 6.6 17.9 6.4 17.8 6.2ZM12 2.6L15.4 6H12V2.6ZM16.5 22.5H1.5V1.5H10.5V6C10.5 6.8 11.2 7.5 12 7.5H16.5V22.5Z" fill="white"/>
<path d="M22.9998 15.6998H11.9998C11.5998 15.6998 11.2998 15.3998 11.2998 14.9998C11.2998 14.5998 11.5998 14.2998 11.9998 14.2998H22.9998C23.3998 14.2998 23.6998 14.5998 23.6998 14.9998C23.6998 15.3998 23.3998 15.6998 22.9998 15.6998Z" fill="white"/>
<path d="M11.4998 11.1998H3.4998C3.0998 11.1998 2.7998 10.8998 2.7998 10.4998C2.7998 10.0998 3.0998 9.7998 3.4998 9.7998H11.4998C11.8998 9.7998 12.1998 10.0998 12.1998 10.4998C12.1998 10.8998 11.8998 11.1998 11.4998 11.1998Z" fill="white"/>
<path d="M11.4998 20.1998H3.4998C3.0998 20.1998 2.7998 19.8998 2.7998 19.4998C2.7998 19.0998 3.0998 18.7998 3.4998 18.7998H11.4998C11.8998 18.7998 12.1998 19.0998 12.1998 19.4998C12.1998 19.8998 11.8998 20.1998 11.4998 20.1998Z" fill="white"/>
<path d="M8.9998 17.1998H3.4998C3.0998 17.1998 2.7998 16.8998 2.7998 16.4998C2.7998 16.0998 3.0998 15.7998 3.4998 15.7998H8.9998C9.3998 15.7998 9.6998 16.0998 9.6998 16.4998C9.6998 16.8998 9.3998 17.1998 8.9998 17.1998Z" fill="white"/>
<path d="M8.9998 14.1998H3.4998C3.0998 14.1998 2.7998 13.8998 2.7998 13.4998C2.7998 13.0998 3.0998 12.7998 3.4998 12.7998H8.9998C9.3998 12.7998 9.6998 13.0998 9.6998 13.4998C9.6998 13.8998 9.3998 14.1998 8.9998 14.1998Z" fill="white"/>
<path d="M22.9999 15.6999C22.7999 15.6999 22.5999 15.5999 22.4999 15.4999L19.9999 12.9999C19.6999 12.6999 19.6999 12.2999 19.9999 11.9999C20.2999 11.6999 20.6999 11.6999 20.9999 11.9999L23.4999 14.4999C23.7999 14.7999 23.7999 15.1999 23.4999 15.4999C23.3999 15.6999 23.1999 15.6999 22.9999 15.6999Z" fill="white"/>
<path d="M20.4999 18.1999C20.2999 18.1999 20.0999 18.0999 19.9999 17.9999C19.6999 17.6999 19.6999 17.2999 19.9999 16.9999L22.4999 14.4999C22.7999 14.1999 23.1999 14.1999 23.4999 14.4999C23.7999 14.7999 23.7999 15.1999 23.4999 15.4999L20.9999 17.9999C20.8999 18.1999 20.6999 18.1999 20.4999 18.1999Z" fill="white"/>
</g>
<defs>
<clipPath id="clip0">
<rect width="23.7" height="24" fill="white"/>
</clipPath>
</defs>
</svg>
