<svg width="24" height="24" viewBox="0 0 24 24" fill="none" xmlns="http://www.w3.org/2000/svg">
<path d="M21.3 11.4001C20.8 11.4001 20.5 11.8001 20.5 12.2001V20.8001C20.5 21.6001 19.9 22.2001 19.1 22.2001H3.1C2.3 22.2001 1.7 21.6001 1.7 20.8001V4.90006C1.7 4.10006 2.3 3.50006 3.1 3.50006H10.8C11.3 3.50006 11.6 3.10006 11.6 2.70006C11.6 2.20006 11.2 1.90006 10.8 1.90006H3.1C1.4 1.80006 0 3.20006 0 4.90006V20.8001C0 22.6001 1.4 24.0001 3.1 24.0001H19C20.7 24.0001 22.1 22.6001 22.1 20.9001V12.3001C22.2 11.8001 21.8 11.4001 21.3 11.4001Z" fill="white"/>
<path d="M23.7 0.700098C23.7 0.600098 23.7 0.500098 23.7 0.500098C23.7 0.400098 23.6 0.400098 23.6 0.300098C23.6 0.300098 23.6 0.300098 23.6 0.200098C23.6 0.200098 23.6 0.200098 23.5 0.200098C23.4 0.100098 23.4 0.100098 23.3 0.100098C23.2 0.100098 23.2 0.100098 23.1 0.100098H23H14.9C14.4 0.100098 14.1 0.500098 14.1 0.900098C14.1 1.4001 14.5 1.7001 14.9 1.7001H21L9.00005 13.7001C8.80005 13.9001 8.80005 14.1001 8.80005 14.3001C8.80005 14.5001 8.90005 14.7001 9.00005 14.9001C9.20005 15.1001 9.40005 15.1001 9.60005 15.1001C9.80005 15.1001 10 15.0001 10.2 14.9001L22.2 2.9001V8.8001C22.2 9.3001 22.6 9.6001 23 9.6001C23.5 9.6001 23.8 9.2001 23.8 8.8001L23.7 0.700098C23.7 0.800098 23.7 0.800098 23.7 0.700098Z" fill="white"/>
</svg>
