<svg width="24" height="24" viewBox="0 0 24 24" fill="none" xmlns="http://www.w3.org/2000/svg">
<g clip-path="url(#clip0)">
<path d="M17.8 6.2L11.8 0.2C11.6 0.1 11.4 0 11.2 0H1.5C0.7 0 0 0.7 0 1.5V22.5C0 23.3 0.7 24 1.5 24H16.5C17.3 24 18 23.3 18 22.5V6.7C18 6.6 17.9 6.4 17.8 6.2ZM12 2.6L15.4 6H12V2.6ZM16.5 22.5H1.5V1.5H10.5V6C10.5 6.8 11.2 7.5 12 7.5H16.5V22.5Z" fill="white"/>
<path d="M22.9998 15.7H11.9998C11.5998 15.7 11.2998 15.4 11.2998 15C11.2998 14.6 11.5998 14.3 11.9998 14.3H22.9998C23.3998 14.3 23.6998 14.6 23.6998 15C23.6998 15.4 23.3998 15.7 22.9998 15.7Z" fill="white"/>
<path d="M11.4998 11.2H3.4998C3.0998 11.2 2.7998 10.9 2.7998 10.5C2.7998 10.1 3.0998 9.80005 3.4998 9.80005H11.4998C11.8998 9.80005 12.1998 10.1 12.1998 10.5C12.1998 10.9 11.8998 11.2 11.4998 11.2Z" fill="white"/>
<path d="M11.4998 20.2001H3.4998C3.0998 20.2001 2.7998 19.9 2.7998 19.5C2.7998 19.1 3.0998 18.8 3.4998 18.8H11.4998C11.8998 18.8 12.1998 19.1 12.1998 19.5C12.1998 19.9 11.8998 20.2001 11.4998 20.2001Z" fill="white"/>
<path d="M8.9998 17.2H3.4998C3.0998 17.2 2.7998 16.9 2.7998 16.5C2.7998 16.1 3.0998 15.8 3.4998 15.8H8.9998C9.3998 15.8 9.6998 16.1 9.6998 16.5C9.6998 16.9 9.3998 17.2 8.9998 17.2Z" fill="white"/>
<path d="M8.9998 14.2H3.4998C3.0998 14.2 2.7998 13.9 2.7998 13.5C2.7998 13.1 3.0998 12.8 3.4998 12.8H8.9998C9.3998 12.8 9.6998 13.1 9.6998 13.5C9.6998 13.9 9.3998 14.2 8.9998 14.2Z" fill="white"/>
<path d="M22.9994 15.7001C22.7994 15.7001 22.5994 15.6001 22.4994 15.5001L19.9994 13.0001C19.6994 12.7001 19.6994 12.3001 19.9994 12.0001C20.2994 11.7001 20.6994 11.7001 20.9994 12.0001L23.4994 14.5001C23.7994 14.8001 23.7994 15.2001 23.4994 15.5001C23.3994 15.7001 23.1994 15.7001 22.9994 15.7001Z" fill="white"/>
<path d="M20.4994 18.2001C20.2994 18.2001 20.0994 18.1001 19.9994 18.0001C19.6994 17.7001 19.6994 17.3001 19.9994 17.0001L22.4994 14.5001C22.7994 14.2001 23.1994 14.2001 23.4994 14.5001C23.7994 14.8001 23.7994 15.2001 23.4994 15.5001L20.9994 18.0001C20.8994 18.2001 20.6994 18.2001 20.4994 18.2001Z" fill="white"/>
</g>
<defs>
<clipPath id="clip0">
<rect width="23.7" height="24" fill="white"/>
</clipPath>
</defs>
</svg>
