<svg width="20" height="20" viewBox="0 0 20 20" fill="none" xmlns="http://www.w3.org/2000/svg">
<path d="M19.4 7.6L17.1 7.4C17 7.2 16.9 7 16.8 6.8L18.3 5C18.5 4.7 18.5 4.3 18.3 4L16 1.7C15.7 1.4 15.3 1.4 15 1.7L13.4 3C13.3 3.1 13.1 3.1 12.9 3.1C12.7 3 12.6 2.9 12.6 2.7L12.4 0.7C12.3 0.3 12 0 11.6 0H8.4C8 0 7.7 0.3 7.6 0.6L7.4 2.6C7.4 2.8 7.3 2.9 7.1 3C6.9 3.1 6.7 3.1 6.6 3L5 1.7C4.7 1.5 4.3 1.5 4 1.7L1.8 4.1C1.5 4.4 1.5 4.8 1.8 5.1L3 6.6C3.1 6.7 3.1 6.9 3 7.1C3 7.3 2.8 7.4 2.6 7.4L0.6 7.6C0.3 7.7 0 8 0 8.4V11.7C0 12.1 0.3 12.4 0.6 12.4L2.6 12.6C2.8 12.6 2.9 12.7 3 12.9C3.1 13.1 3 13.3 2.9 13.4L1.7 15C1.5 15.3 1.5 15.7 1.7 16L4 18.3C4.3 18.6 4.7 18.6 5 18.3L6.6 17C6.7 16.9 6.9 16.9 7.1 16.9C7.3 17 7.4 17.1 7.4 17.3L7.6 19.3C7.7 19.7 8 20 8.4 20H11.7C12.1 20 12.4 19.7 12.4 19.4L12.6 17.4C12.6 17.2 12.7 17.1 12.9 17C13.1 16.9 13.3 17 13.4 17.1L15 18.4C15.3 18.6 15.7 18.6 16 18.4L18.3 16.1C18.6 15.8 18.6 15.4 18.3 15.1L17 13.4C16.9 13.3 16.9 13.1 16.9 12.9C17 12.7 17.1 12.6 17.3 12.6L19.3 12.4C19.7 12.4 19.9 12.1 19.9 11.7V8.4C20 8 19.7 7.7 19.4 7.6ZM15.6 12.3C15.3 13 15.4 13.7 15.9 14.3L16.8 15.4L15.4 16.8L14.3 15.9C13.7 15.5 13 15.3 12.3 15.6C11.6 15.9 11.2 16.5 11.1 17.2L11 18.6H9L8.9 17.2C8.8 16.5 8.4 15.9 7.7 15.6C7 15.3 6.3 15.4 5.7 15.9L4.6 16.8L3.2 15.4L4.1 14.3C4.5 13.7 4.7 13 4.4 12.3C4.1 11.6 3.5 11.2 2.8 11.1L1.4 11V9L2.8 8.9C3.5 8.8 4.1 8.4 4.4 7.7C4.7 7 4.6 6.3 4.1 5.7L3.2 4.6L4.6 3.2L5.7 4.1C6.3 4.5 7 4.7 7.7 4.4C8.4 4.1 8.8 3.5 8.9 2.8L9 1.4H11L11.1 2.8C11.2 3.5 11.6 4.1 12.3 4.4C13 4.7 13.7 4.6 14.3 4.1L15.4 3.2L16.8 4.6L15.5 6.2C15.3 6.4 15.3 6.7 15.4 7C15.6 7.4 15.8 7.8 15.9 8.2C16 8.5 16.2 8.7 16.5 8.7L18.6 9V11L17.2 11.1C16.5 11.2 15.9 11.7 15.6 12.3Z" fill="#119DB5"/>
<path d="M11.2002 8.39989L9.6002 9.99989L8.8002 9.39989C8.5002 9.09989 8.1002 9.09989 7.8002 9.39989C7.5002 9.69989 7.5002 10.0999 7.8002 10.3999L9.0002 11.5999C9.1002 11.6999 9.3002 11.7999 9.5002 11.7999C9.7002 11.7999 9.9002 11.6999 10.0002 11.5999L12.1002 9.49989C12.4002 9.19989 12.4002 8.79989 12.1002 8.49989C11.9002 8.19989 11.4002 8.19989 11.2002 8.39989Z" fill="#119DB5"/>
<path d="M10.0002 5.19995C7.3002 5.19995 5.2002 7.39995 5.2002 9.99995C5.2002 12.6 7.4002 14.9 10.0002 14.9C12.6002 14.9 14.9002 12.7 14.9002 9.99995C14.9002 7.29995 12.7002 5.19995 10.0002 5.19995ZM13.4002 9.99995C13.4002 11.9 11.9002 13.4 10.0002 13.4C8.1002 13.4 6.6002 11.9 6.6002 9.99995C6.6002 8.09995 8.1002 6.59995 10.0002 6.59995C11.9002 6.59995 13.4002 8.09995 13.4002 9.99995Z" fill="#119DB5"/>
</svg>
