<svg width="20" height="24" viewBox="0 0 20 24" fill="none" xmlns="http://www.w3.org/2000/svg">
<path d="M19.3 4.3C19.2 4.2 15.6 0.6 15.2 0.2L15.1 0.1C15 0.1 14.8 0 14.7 0H1.6C0.7 0 0 0.7 0 1.6V22.4C0 23.3 0.7 24 1.6 24H17.8C18.7 24 19.4 23.3 19.4 22.4V4.7C19.4 4.6 19.4 4.4 19.3 4.3ZM15.3 4.1V2.2L17.2 4.1H15.3ZM14.7 5.3H18.2V22.4C18.2 22.6 18 22.7 17.8 22.7H1.6C1.4 22.7 1.2 22.5 1.2 22.4V1.6C1.2 1.4 1.4 1.3 1.6 1.3H14V4.7C14.1 5 14.3 5.3 14.7 5.3Z" fill="white"/>
<path d="M10.6004 4.80005C10.4004 4.80005 10.2004 4.90005 10.1004 5.00005C9.90039 5.10005 9.90039 5.30005 9.90039 5.50005V10.2C9.90039 10.5 10.2004 10.8 10.5004 10.8H15.2004C15.4004 10.8 15.6004 10.7 15.7004 10.6C15.8004 10.5 15.9004 10.3 15.9004 10.1C15.8004 7.10005 13.5004 4.80005 10.6004 4.80005ZM14.6004 9.50005H11.1004V6.10005C12.9004 6.30005 14.3004 7.80005 14.6004 9.50005Z" fill="white"/>
<path d="M8.50028 17.5999C9.90028 17.5999 11.3003 17.0999 12.3003 16.0999C13.3003 15.0999 13.9003 13.7999 13.9003 12.3999C13.9003 12.1999 13.8003 11.9999 13.7003 11.8999C13.6003 11.7999 13.4003 11.6999 13.2003 11.6999H9.20028V7.6999C9.20028 7.6999 9.20028 7.6999 9.20028 7.5999C9.20028 7.1999 8.80028 6.8999 8.40028 6.8999C7.00028 6.8999 5.70028 7.4999 4.70028 8.4999C3.70028 9.4999 3.20028 10.8999 3.20028 12.2999C3.10028 15.1999 5.50028 17.5999 8.50028 17.5999ZM8.00028 12.6999C8.10028 12.7999 8.30028 12.8999 8.40028 12.8999H12.5003C12.2003 14.8999 10.5003 16.3999 8.40028 16.3999H8.50028C6.20028 16.3999 4.40028 14.4999 4.40028 12.2999C4.40028 10.1999 5.90028 8.4999 7.90028 8.1999V12.2999C7.80028 12.3999 7.90028 12.4999 8.00028 12.6999Z" fill="white"/>
<path d="M14.9004 19.3999H4.50039C4.20039 19.3999 3.90039 19.6999 3.90039 19.9999C3.90039 20.2999 4.20039 20.5999 4.50039 20.5999H14.9004C15.2004 20.5999 15.5004 20.2999 15.5004 19.9999C15.6004 19.6999 15.3004 19.3999 14.9004 19.3999Z" fill="white"/>
</svg>
