<svg width="15" height="20" viewBox="0 0 15 20" fill="none" xmlns="http://www.w3.org/2000/svg">
<path d="M13.8 0H8.8C8.5 0 8.3 0.1 8.2 0.4C8.1 0.6 8.2 0.8 8.3 1L9.5 2.2L8 3.7C7.3 3.3 6.5 3.1 5.6 3.1C2.5 3.1 0 5.7 0 8.7C0 11.1 1.5 13.2 3.8 14V14.7H2.5C2.2 14.7 1.9 15 1.9 15.3V17.8C1.9 18.1 2.2 18.4 2.5 18.4H3.8V19.4C3.8 19.7 4 20 4.4 20H6.9C7.2 20 7.5 19.7 7.5 19.4V18.4H8.8C9.1 18.4 9.4 18.1 9.4 17.8V15.3C9.4 15 9.1 14.7 8.8 14.7H7.4V14C9.6 13.2 11.2 11.1 11.2 8.7C11.2 7.9 11 7 10.6 6.3L12.1 4.8L13.4 6C13.6 6.2 13.8 6.2 14 6.1C14.2 6 14.4 5.8 14.4 5.6V0.6C14.4 0.3 14.1 0 13.8 0ZM13.2 4.2L12.6 3.6C12.4 3.4 12 3.4 11.8 3.6L9.5 5.8C9.3 6 9.3 6.3 9.4 6.5C9.8 7.2 10 8 10 8.7C10 10.7 8.6 12.5 6.7 13C6.4 13.1 6.3 13.3 6.3 13.6V15.3C6.3 15.6 6.6 15.9 6.9 15.9H8.2V17.2H6.9C6.6 17.2 6.3 17.5 6.3 17.8V18.8H4.9V17.8C4.9 17.5 4.6 17.2 4.3 17.2H3.1V15.9H4.4C4.7 15.9 5 15.6 5 15.3V13.6C5 13.3 4.8 13.1 4.6 13C2.6 12.5 1.3 10.7 1.3 8.7C1.3 6.3 3.3 4.3 5.7 4.3C6.5 4.3 7.3 4.5 8 4.9C8.1 5.1 8.4 5 8.6 4.8L10.8 2.6C11 2.4 11 2 10.8 1.8L10.2 1.2H13.2V4.2Z" fill="#617882"/>
</svg>
