<svg width="24" height="22" viewBox="0 0 24 22" fill="none" xmlns="http://www.w3.org/2000/svg">
<path d="M12 8.68583C14.2523 8.68583 16.0781 6.85999 16.0781 4.6077C16.0781 2.35542 14.2523 0.529577 12 0.529577C9.74771 0.529577 7.92188 2.35542 7.92188 4.6077C7.92188 6.85999 9.74771 8.68583 12 8.68583Z" fill="white"/>
<path d="M20.25 8.68578C21.6739 8.68578 22.8281 7.53152 22.8281 6.10766C22.8281 4.6838 21.6739 3.52953 20.25 3.52953C18.8261 3.52953 17.6719 4.6838 17.6719 6.10766C17.6719 7.53152 18.8261 8.68578 20.25 8.68578Z" fill="white"/>
<path d="M3.75 8.68578C5.17386 8.68578 6.32812 7.53152 6.32812 6.10766C6.32812 4.6838 5.17386 3.52953 3.75 3.52953C2.32614 3.52953 1.17188 4.6838 1.17188 6.10766C1.17188 7.53152 2.32614 8.68578 3.75 8.68578Z" fill="white"/>
<path d="M6.29016 11.001C5.27531 10.1695 4.35623 10.2796 3.18281 10.2796C1.42781 10.2796 0 11.699 0 13.4432V18.5624C0 19.3199 0.618281 19.9358 1.37859 19.9358C4.66106 19.9358 4.26562 19.9952 4.26562 19.7943C4.26562 16.1668 3.83597 13.5066 6.29016 11.001V11.001Z" fill="white"/>
<path d="M13.1161 10.2983C11.0665 10.1273 9.28505 10.3002 7.74844 11.5686C5.17702 13.6283 5.67187 16.4015 5.67187 19.7942C5.67187 20.6918 6.40219 21.4358 7.31344 21.4358C17.2079 21.4358 17.6017 21.755 18.1884 20.4556C18.3809 20.0162 18.3281 20.1559 18.3281 15.9523C18.3281 12.6136 15.4372 10.2983 13.1161 10.2983V10.2983Z" fill="white"/>
<path d="M20.8172 10.2795C19.6373 10.2795 18.7233 10.1706 17.7098 11.0009C20.1457 13.4879 19.7344 15.9666 19.7344 19.7942C19.7344 19.9964 19.4061 19.9358 22.5722 19.9358C23.3597 19.9358 24 19.2978 24 18.5136V13.4431C24 11.6989 22.5722 10.2795 20.8172 10.2795Z" fill="white"/>
</svg>
