<svg width="29" height="32" viewBox="0 0 29 32" fill="none" xmlns="http://www.w3.org/2000/svg">
<path d="M24.4 4.7C24.4 2.1 22.3 0 19.7 0C17.1 0 15 2.1 15 4.7C15 7.3 17.1 9.4 19.7 9.4C22.3 9.4 24.4 7.3 24.4 4.7ZM19.7 7.5C18.1 7.5 16.9 6.2 16.9 4.7C16.9 3.2 18.2 1.9 19.7 1.9C21.2 1.9 22.5 3.2 22.5 4.7C22.5 6.2 21.2 7.5 19.7 7.5Z" fill="white"/>
<path d="M1.9 31.1C1.9 31.6 2.3 32 2.8 32H25.3C25.8 32 26.2 31.6 26.2 31.1V22.5C27.4 20.9 28.1 19 28.1 16.9C28.1 12.8 24.7 9.39999 20.6 9.39999H15.9C15.2 9.39999 14.5 9.69999 14 10.1C13.5 9.69999 12.8 9.39999 12.1 9.39999H7.5C3.4 9.39999 0 12.7 0 16.9C0 19 0.7 21 1.9 22.5V31.1ZM3.7 24.4C5.3 25.6 7.2 26.3 9.3 26.3V30.2H3.7V24.4ZM13.1 23.4C13.1 22.3 12.4 21.3 11.5 20.9C11.7 20.7 11.9 20.6 12.2 20.6H15.9C16.2 20.6 16.4 20.7 16.6 20.9C15.7 21.4 15 22.3 15 23.4C15 24.6 15.8 25.7 16.9 26.1V30.1H11.3V26.1C12.3 25.7 13.1 24.7 13.1 23.4ZM18.7 30.1V26.2C20.8 26.2 22.8 25.5 24.3 24.3V30.1H18.7ZM14.1 13.1C15.1 13.1 16 13.9 16 15C16 16.1 15.2 16.9 14.1 16.9C13 16.9 12.2 16 12.2 15C12.2 14 13 13.1 14.1 13.1ZM7.5 11.2H12.2C12.4 11.2 12.6 11.3 12.8 11.4C11.4 11.9 10.3 13.3 10.3 14.9C10.3 17 12 18.6 14.1 18.6C16.2 18.6 17.8 16.9 17.8 14.9C17.8 13.3 16.8 11.9 15.3 11.4C15.5 11.3 15.7 11.2 15.9 11.2H20.6C23.7 11.2 26.2 13.7 26.2 16.8C26.2 20.9 22.8 24.3 18.7 24.3H17.8C17.3 24.3 16.9 23.9 16.9 23.4C16.9 22.9 17.3 22.5 17.8 22.5H18.7C21.8 22.5 24.3 20 24.3 16.9C24.3 16.4 23.9 16 23.4 16C22.9 16 22.5 16.4 22.5 16.9C22.5 19 20.8 20.7 18.7 20.7H18.5C18.1 19.6 17.1 18.8 15.8 18.8H12.1C10.9 18.8 9.8 19.6 9.4 20.7C7.3 20.7 5.6 19 5.6 16.9C5.6 16.4 5.2 16 4.7 16C4.2 16 3.8 16.4 3.8 16.9C3.8 20 6.3 22.5 9.4 22.5H10.3C10.8 22.5 11.2 22.9 11.2 23.4C11.2 23.9 10.8 24.3 10.3 24.3H9.4C5.3 24.3 1.9 20.9 1.9 16.8C1.9 13.8 4.4 11.2 7.5 11.2Z" fill="white"/>
<path d="M13.1 4.7C13.1 2.1 11 0 8.39995 0C5.79995 0 3.69995 2.1 3.69995 4.7C3.69995 7.3 5.79995 9.4 8.39995 9.4C11 9.4 13.1 7.3 13.1 4.7ZM8.39995 7.5C6.79995 7.5 5.59995 6.2 5.59995 4.7C5.59995 3.2 6.89995 1.9 8.39995 1.9C9.99995 1.9 11.2 3.2 11.2 4.7C11.2 6.2 9.99995 7.5 8.39995 7.5Z" fill="white"/>
</svg>
