<svg width="22" height="32" viewBox="0 0 22 32" fill="none" xmlns="http://www.w3.org/2000/svg">
<path d="M15.4998 0C13.3998 0 11.7998 1.7 11.7998 3.7C11.7998 5.8 13.4998 7.4 15.4998 7.4C17.4998 7.4 19.1998 5.7 19.1998 3.7C19.1998 1.7 17.4998 0 15.4998 0ZM15.4998 5.7C14.3998 5.7 13.4998 4.8 13.4998 3.7C13.4998 2.6 14.3998 1.7 15.4998 1.7C16.5998 1.7 17.4998 2.6 17.4998 3.7C17.3998 4.8 16.5998 5.7 15.4998 5.7Z" fill="white"/>
<path d="M18.6 8.4H17.6C17.2 8.4 16.9 8.6 16.8 8.9L15.6 11.9L14.3 8.9C14.2 8.6 13.8 8.4 13.5 8.4H12.5C10.9 8.4 9.5 9.7 9.5 11.4V22C9.5 22.5 9.9 22.9 10.4 22.9H10.9V31.2C10.9 31.7 11.3 32.1 11.8 32.1H19.5C20 32.1 20.4 31.7 20.4 31.2V22.9H20.9C21.4 22.9 21.8 22.5 21.8 22V11.4C21.6 9.7 20.2 8.4 18.6 8.4ZM18.4 30.2H16.4V26.1C16.4 25.6 16 25.2 15.5 25.2C15 25.2 14.6 25.6 14.6 26.1V30.2H12.6V22.8H18.5L18.4 30.2ZM11.2 21.1V11.4C11.2 10.7 11.7 10.2 12.4 10.2H12.8L14.6 14.7C14.9 15.4 15.9 15.5 16.2 14.7L18 10.2H18.4C19.1 10.2 19.6 10.7 19.6 11.4V21.1H11.2Z" fill="white"/>
<path d="M5.6 1.8C6.1 1.8 6.5 1.4 6.5 0.9C6.5 0.4 6.1 0 5.6 0H0.9C0.4 0 0 0.4 0 0.9V31.1C0 31.6 0.4 32 0.9 32H5.6C6.1 32 6.5 31.6 6.5 31.1C6.5 30.6 6.1 30.2 5.6 30.2H1.8V27.7H5.6C6.1 27.7 6.5 27.3 6.5 26.8C6.5 26.3 6.1 25.9 5.6 25.9H1.8V23.3H3.6C4.1 23.3 4.5 22.9 4.5 22.4C4.5 21.9 4.1 21.5 3.6 21.5H1.8V19H5.6C6.1 19 6.5 18.6 6.5 18.1C6.5 17.6 6.1 17.2 5.6 17.2H1.8V14.6H3.6C4.1 14.6 4.5 14.2 4.5 13.7C4.5 13.2 4.1 12.8 3.6 12.8H1.8V10.3H5.6C6.1 10.3 6.5 9.9 6.5 9.4C6.5 8.9 6.1 8.5 5.6 8.5H1.8V6H3.6C4.1 6 4.5 5.6 4.5 5.1C4.5 4.6 4.1 4.2 3.6 4.2H1.8V1.7L5.6 1.8Z" fill="white"/>
</svg>
