<svg width="12" height="16" viewBox="0 0 12 16" fill="none" xmlns="http://www.w3.org/2000/svg">
<path d="M4.90029 6.2C6.60029 6.2 8.00029 4.8 8.00029 3.1C8.00029 1.4 6.60029 0 4.90029 0C3.20029 0 1.80029 1.4 1.80029 3.1C1.80029 4.8 3.20029 6.2 4.90029 6.2Z" fill="white"/>
<path d="M4.1002 12.8999C4.1002 10.6999 5.9002 8.8999 8.1002 8.8999C8.4002 8.8999 8.7002 8.8999 9.0002 8.9999C8.9002 7.7999 7.9002 6.8999 6.7002 6.8999H3.0002C1.7002 6.8999 0.700195 7.9999 0.700195 9.1999V13.7999C0.700195 14.5999 1.3002 15.1999 2.1002 15.1999H4.8002C4.4002 14.4999 4.1002 13.7999 4.1002 12.8999Z" fill="white"/>
<path d="M8.2001 9.7998C6.5001 9.7998 5.1001 11.1998 5.1001 12.8998C5.1001 14.5998 6.5001 15.9998 8.2001 15.9998C9.9001 15.9998 11.3001 14.5998 11.3001 12.8998C11.3001 11.1998 9.9001 9.7998 8.2001 9.7998ZM9.3001 13.3998H8.7001V13.9998C8.7001 14.2998 8.5001 14.4998 8.2001 14.4998C7.9001 14.4998 7.7001 14.2998 7.7001 13.9998V13.3998H7.1001C6.8001 13.3998 6.6001 13.1998 6.6001 12.8998C6.6001 12.5998 6.8001 12.3998 7.1001 12.3998H7.7001V11.7998C7.7001 11.4998 7.9001 11.2998 8.2001 11.2998C8.5001 11.2998 8.7001 11.4998 8.7001 11.7998V12.3998H9.3001C9.6001 12.3998 9.8001 12.5998 9.8001 12.8998C9.8001 13.1998 9.5001 13.3998 9.3001 13.3998Z" fill="white"/>
</svg>
