<svg width="32" height="32" viewBox="0 0 32 32" fill="none" xmlns="http://www.w3.org/2000/svg">
<path d="M16 32C24.8366 32 32 24.8366 32 16C32 7.16344 24.8366 0 16 0C7.16344 0 0 7.16344 0 16C0 24.8366 7.16344 32 16 32Z" fill="#D7E9F3"/>
<path d="M11.1002 13.3C11.1002 13.3 9.90018 12.4 9.40018 13.2C9.10018 13.8 9.10018 14.5 9.70018 15.5C10.3002 16.4 10.0002 16.7 10.2002 16.9C10.4002 17.1 11.2002 17.2 11.2002 17.1C11.2002 17 11.8002 13.4 11.1002 13.3Z" fill="white"/>
<path d="M20.5 13.3C20.5 13.3 21.7 12.4 22.2 13.2C22.5 13.8 22.5 14.5 21.9 15.5C21.3 16.4 21.6 16.7 21.4 16.9C21.2 17.1 20.4 17.2 20.4 17.1C20.4 17 19.8 13.4 20.5 13.3Z" fill="white"/>
<path d="M28.1001 26.5001C26.2001 25.6001 22.1001 24.3001 20.7001 24.0001C19.4001 23.7001 19.4001 20.4001 19.5001 18.6001C18.5001 19.4001 17.2001 20.0001 15.8001 20.0001C14.7001 20.0001 13.6001 19.7001 12.7001 19.2001C12.7001 21.1001 12.6001 23.7001 11.5001 24.0001C10.0001 24.4001 6.0001 25.6001 4.1001 26.5001C6.9001 29.9001 11.2001 32.0001 16.0001 32.0001C20.8001 32.0001 25.1001 29.9001 28.1001 26.5001Z" fill="white"/>
<path d="M19.6002 22.3001C19.4002 21.1001 19.4002 19.6001 19.4002 18.6001C18.4002 19.4001 17.1002 20.0001 15.7002 20.0001C14.6002 20.0001 13.5002 19.7001 12.6002 19.2001C12.6002 20.4001 12.6002 22.0001 12.2002 23.0001C12.2002 23.0001 13.5002 24.8001 15.3002 24.8001C19.1002 24.8001 19.7002 22.5001 19.6002 22.3001Z" fill="#F5FAFC"/>
<path d="M21.0001 10.0001C21.0001 8.9001 19.9001 7.4001 18.7001 7.0001C16.8001 6.3001 14.7001 6.3001 12.8001 7.0001C11.6001 7.4001 10.5001 8.9001 10.5001 10.0001C10.5001 10.0001 10.4001 15.2001 10.6001 16.2001C10.8001 17.2001 11.1001 19.0001 11.6001 19.8001C12.1001 20.6001 13.9001 21.9001 14.3001 22.1001C14.7001 22.3001 15.0001 22.4001 15.8001 22.4001C16.5001 22.4001 16.9001 22.3001 17.3001 22.1001C17.7001 21.9001 19.5001 20.6001 20.0001 19.8001C20.5001 19.0001 20.8001 17.2001 21.0001 16.2001C21.1001 15.2001 21.0001 10.0001 21.0001 10.0001Z" fill="white"/>
<path d="M12.4998 5.59999C11.1998 5.09999 10.8998 5.79999 10.4998 6.29999C8.99976 8.29999 9.69976 12.9 9.69976 12.9C10.4998 12.7 10.5998 13.8 10.3998 14.2C10.1998 14.6 10.5998 15.8 10.5998 15.8C10.7998 15 10.8998 14.1 10.8998 13.5C10.8998 13 11.6998 11.9 11.5998 11.1C11.4998 9.49999 12.5998 9.09999 13.5998 8.99999C14.0998 8.99999 14.6998 9.99999 16.1998 10.4C17.9998 10.8 19.9998 9.79999 19.9998 9.79999C20.0998 10.1 20.0998 10.4 20.0998 10.5C20.0998 10.8 19.9998 11 20.0998 11.3C20.2998 12.2 20.6998 13.1 20.6998 13.4C20.6998 14 20.7998 14.9 20.9998 15.7C20.9998 15.7 21.3998 14.5 21.1998 14.1C20.9998 13.7 21.0998 12.6 21.8998 12.8C21.8998 12.8 22.4998 10.7 22.0998 8.69999L12.4998 5.59999Z" fill="#B6CDD6"/>
<path d="M21.9998 8.79998C21.9998 8.79998 22.4998 8.39998 22.7998 7.39998C23.0998 6.49998 22.3998 5.59998 22.3998 5.59998C22.2998 6.39998 21.2998 6.59998 20.5998 6.19998C19.6998 5.69998 18.9998 4.59998 17.2998 4.39998C12.6998 3.69998 12.2998 5.59998 12.2998 5.59998C12.2998 5.59998 12.6998 7.39998 13.7998 8.99998C14.1998 9.19998 14.8998 9.99998 16.1998 10.3C17.7998 10.7 19.4998 9.99998 19.8998 9.79998C20.4998 9.39998 21.2998 9.09998 21.9998 8.79998Z" fill="#B6CDD6"/>
</svg>
