<svg width="20" height="25" viewBox="0 0 20 25" fill="none" xmlns="http://www.w3.org/2000/svg">
<path d="M15.2282 13.5211L13.0145 11.3074C12.846 11.1389 12.5473 11.1598 12.3536 11.3536C12.1598 11.5473 12.1389 11.846 12.3074 12.0145L14.5211 14.2282C14.6895 14.3966 14.9882 14.3758 15.182 14.182C15.3758 13.9882 15.3966 13.6895 15.2282 13.5211Z" fill="url(#paint0_linear)"/>
<path d="M13.0145 14.2282L15.2282 12.0145C15.3966 11.846 15.3758 11.5473 15.182 11.3536C14.9882 11.1598 14.6895 11.1389 14.5211 11.3074L12.3074 13.5211C12.1389 13.6895 12.1598 13.9882 12.3536 14.182C12.5473 14.3758 12.846 14.3966 13.0145 14.2282Z" fill="url(#paint1_linear)"/>
<path d="M18.9787 1.96424H14.8658V1.0612C14.8658 0.47958 14.4072 0 13.851 0H6.19124C5.63505 0 5.17644 0.47958 5.17644 1.0612V1.96424H1.0148C0.746461 1.94383 0.0439095 2.19382 0 3.02543V23.9382C0 24.5198 0.45861 24.9994 1.0148 24.9994H19.0323C19.6812 25.0249 20.0227 24.28 19.9983 23.9382V3.02543C20.0227 2.78054 19.7837 1.99485 18.9787 1.96424ZM7.20604 2.12239H12.8899V3.92847H7.20604V2.12239ZM18.0175 22.928H1.97593V4.08663H5.17156V4.93355C5.23499 5.81108 5.93266 5.99474 6.18636 5.99474H13.8998C14.4072 5.99474 14.8658 5.51517 14.8658 4.93355V4.08663H18.0127V22.928H18.0175Z" fill="url(#paint2_linear)"/>
<path d="M5.06862 21.5811H14.882C15.6288 21.5811 16.2446 20.924 16.2446 20.127C16.2446 19.3301 15.6288 18.673 14.882 18.673H5.06862C4.3218 18.673 3.70601 19.3301 3.70601 20.127C3.70601 20.924 4.3218 21.5811 5.06862 21.5811Z" fill="url(#paint3_linear)"/>
<path d="M5.06862 17.6016H14.882C15.6288 17.6016 16.2446 16.9445 16.2446 16.1475C16.2446 15.3506 15.6288 14.6935 14.882 14.6935H5.06862C4.3218 14.6935 3.70601 15.3506 3.70601 16.1475C3.70601 16.9445 4.3218 17.6016 5.06862 17.6016Z" fill="url(#paint4_linear)"/>
<path d="M11.4896 10.8604L10.9337 10.7962C10.9464 10.6989 10.9539 10.6002 10.9539 10.4996C10.9539 9.92237 10.7367 9.39026 10.3744 8.95807L11.1293 8.19963C11.3426 7.98537 11.3181 7.65957 11.0753 7.47184C10.8323 7.28411 10.4626 7.30532 10.2495 7.51958L9.5075 8.2652C9.17153 8.08852 8.79324 7.96902 8.38904 7.92186L8.42884 7.56659C8.46028 7.28307 8.22565 7.03051 7.90355 7.00266C7.58363 6.97392 7.29532 7.18169 7.26355 7.46521L7.20418 7.9951C6.80834 8.09294 6.4451 8.2599 6.13472 8.48299L5.72549 8.06391C5.51478 7.84804 5.14536 7.82328 4.89986 8.0091C4.65503 8.19491 4.62726 8.52042 4.83815 8.73674L5.38333 9.29507C5.23182 9.54926 5.1273 9.82806 5.07796 10.1228L4.66121 10.0747C4.3428 10.0385 4.04679 10.2368 4.00499 10.5195C3.96318 10.8018 4.18894 11.061 4.5097 11.0978L5.14603 11.1709C5.25155 11.5176 5.43634 11.8358 5.68235 12.1097L5.09301 12.7022C4.88029 12.916 4.90404 13.2419 5.14703 13.4299C5.25807 13.5156 5.39587 13.5576 5.53301 13.5576C5.69589 13.5576 5.85744 13.4987 5.97333 13.3824L6.57421 12.7786C6.60364 12.7933 6.63408 12.806 6.66435 12.8191L6.59545 13.4333C6.56384 13.7168 6.79897 13.9692 7.12073 13.9971C7.13996 13.9991 7.15953 14 7.17893 14C7.4761 14 7.73097 13.8008 7.76074 13.5349L7.81007 13.0952C7.87362 13.0988 7.93633 13.1041 8.00072 13.1041C8.33753 13.1041 8.65929 13.0519 8.96098 12.9598L9.63343 13.649C9.74899 13.7676 9.91304 13.8286 10.0773 13.8286C10.2126 13.8286 10.348 13.7877 10.4584 13.704C10.7037 13.5179 10.7315 13.1923 10.5203 12.9763L9.98261 12.4255C10.2101 12.2435 10.4047 12.03 10.5597 11.7945L11.3385 11.8841C11.364 11.8872 11.3901 11.8881 11.415 11.8881C11.7043 11.8881 11.9561 11.699 11.9949 11.4391C12.0363 11.1563 11.81 10.8973 11.4896 10.8604ZM8.86248 9.5584C9.14527 9.5584 9.37472 9.76027 9.37472 10.0096C9.37472 10.2586 9.14544 10.4608 8.86248 10.4608C8.57952 10.4608 8.35057 10.2586 8.35057 10.0096C8.35091 9.76027 8.57968 9.5584 8.86248 9.5584ZM7.56741 11.0526C7.22876 11.0526 6.95433 10.8105 6.95433 10.5122C6.95433 10.214 7.22876 9.97202 7.56741 9.97202C7.90606 9.97202 8.18083 10.214 8.18083 10.5122C8.18083 10.8106 7.90606 11.0526 7.56741 11.0526ZM8.76615 12.2804C8.35057 12.2804 8.01359 11.9833 8.01359 11.6173C8.01359 11.2512 8.35057 10.9542 8.76615 10.9542C9.18156 10.9542 9.5187 11.2512 9.5187 11.6173C9.5187 11.9833 9.18156 12.2804 8.76615 12.2804Z" fill="white"/>
<path d="M11.4896 10.8604L10.9337 10.7962C10.9464 10.6989 10.9539 10.6002 10.9539 10.4996C10.9539 9.92237 10.7367 9.39026 10.3744 8.95807L11.1293 8.19963C11.3426 7.98537 11.3181 7.65957 11.0753 7.47184C10.8323 7.28411 10.4626 7.30532 10.2495 7.51958L9.5075 8.2652C9.17153 8.08852 8.79324 7.96902 8.38904 7.92186L8.42884 7.56659C8.46028 7.28307 8.22565 7.03051 7.90355 7.00266C7.58363 6.97392 7.29532 7.18169 7.26355 7.46521L7.20418 7.9951C6.80834 8.09294 6.4451 8.2599 6.13472 8.48299L5.72549 8.06391C5.51478 7.84804 5.14536 7.82328 4.89986 8.0091C4.65503 8.19491 4.62726 8.52042 4.83815 8.73674L5.38333 9.29507C5.23182 9.54926 5.1273 9.82806 5.07796 10.1228L4.66121 10.0747C4.3428 10.0385 4.04679 10.2368 4.00499 10.5195C3.96318 10.8018 4.18894 11.061 4.5097 11.0978L5.14603 11.1709C5.25155 11.5176 5.43634 11.8358 5.68235 12.1097L5.09301 12.7022C4.88029 12.916 4.90404 13.2419 5.14703 13.4299C5.25807 13.5156 5.39587 13.5576 5.53301 13.5576C5.69589 13.5576 5.85744 13.4987 5.97333 13.3824L6.57421 12.7786C6.60364 12.7933 6.63408 12.806 6.66435 12.8191L6.59545 13.4333C6.56384 13.7168 6.79897 13.9692 7.12073 13.9971C7.13996 13.9991 7.15953 14 7.17893 14C7.4761 14 7.73097 13.8008 7.76074 13.5349L7.81007 13.0952C7.87362 13.0988 7.93633 13.1041 8.00072 13.1041C8.33753 13.1041 8.65929 13.0519 8.96098 12.9598L9.63343 13.649C9.74899 13.7676 9.91304 13.8286 10.0773 13.8286C10.2126 13.8286 10.348 13.7877 10.4584 13.704C10.7037 13.5179 10.7315 13.1923 10.5203 12.9763L9.98261 12.4255C10.2101 12.2435 10.4047 12.03 10.5597 11.7945L11.3385 11.8841C11.364 11.8872 11.3901 11.8881 11.415 11.8881C11.7043 11.8881 11.9561 11.699 11.9949 11.4391C12.0363 11.1563 11.81 10.8973 11.4896 10.8604ZM8.86248 9.5584C9.14527 9.5584 9.37472 9.76027 9.37472 10.0096C9.37472 10.2586 9.14544 10.4608 8.86248 10.4608C8.57952 10.4608 8.35057 10.2586 8.35057 10.0096C8.35091 9.76027 8.57968 9.5584 8.86248 9.5584ZM7.56741 11.0526C7.22876 11.0526 6.95433 10.8105 6.95433 10.5122C6.95433 10.214 7.22876 9.97202 7.56741 9.97202C7.90606 9.97202 8.18083 10.214 8.18083 10.5122C8.18083 10.8106 7.90606 11.0526 7.56741 11.0526ZM8.76615 12.2804C8.35057 12.2804 8.01359 11.9833 8.01359 11.6173C8.01359 11.2512 8.35057 10.9542 8.76615 10.9542C9.18156 10.9542 9.5187 11.2512 9.5187 11.6173C9.5187 11.9833 9.18156 12.2804 8.76615 12.2804Z" fill="url(#paint5_linear)"/>
<defs>
<linearGradient id="paint0_linear" x1="13" y1="7" x2="13" y2="20" gradientUnits="userSpaceOnUse">
<stop stop-color="#72CCFF"/>
<stop offset="1" stop-color="white"/>
</linearGradient>
<linearGradient id="paint1_linear" x1="13.5" y1="9" x2="13.5" y2="20.5" gradientUnits="userSpaceOnUse">
<stop stop-color="#72CCFF"/>
<stop offset="0.397228" stop-color="#AAE0FF" stop-opacity="0.602772"/>
<stop offset="1" stop-color="white" stop-opacity="0"/>
</linearGradient>
<linearGradient id="paint2_linear" x1="9.961" y1="34" x2="9.961" y2="-8" gradientUnits="userSpaceOnUse">
<stop stop-color="white"/>
<stop offset="1" stop-color="#72CCFF"/>
</linearGradient>
<linearGradient id="paint3_linear" x1="9.961" y1="34.5" x2="9.961" y2="-11" gradientUnits="userSpaceOnUse">
<stop stop-color="white"/>
<stop offset="1" stop-color="#72CCFF"/>
</linearGradient>
<linearGradient id="paint4_linear" x1="9.961" y1="34.5" x2="9.961" y2="-11" gradientUnits="userSpaceOnUse">
<stop stop-color="white"/>
<stop offset="1" stop-color="#72CCFF"/>
</linearGradient>
<linearGradient id="paint5_linear" x1="8" y1="2.5" x2="8" y2="34" gradientUnits="userSpaceOnUse">
<stop stop-color="#72CCFF"/>
<stop offset="1" stop-color="white" stop-opacity="0"/>
</linearGradient>
</defs>
</svg>
