<svg width="18" height="18" viewBox="0 0 18 18" fill="none" xmlns="http://www.w3.org/2000/svg">
<g clip-path="url(#clip0)">
<path d="M13.3955 8.07824C13.6939 7.77674 13.692 7.37675 13.3905 7.07825C13.089 6.77975 12.689 6.78175 12.3905 7.08324L9.00699 10.4002L5.59006 7.0172C5.28856 6.71871 4.88857 6.7207 4.59007 7.0222C4.49057 7.1227 4.39157 7.32319 4.39257 7.52319C4.39357 7.72319 4.49456 7.92269 4.59506 8.02219L8.51449 11.9027C8.61549 12.1022 8.81598 12.2012 9.01598 12.2002C9.21598 12.1992 9.41548 12.0982 9.51498 11.9977L13.3955 8.07824Z" fill="white"/>
<path d="M16.9999 8.96005C16.9779 4.5601 13.36 0.978126 8.96005 1.0001C4.5601 1.02207 0.978125 4.64001 1.0001 9.03995C1.02207 13.4399 4.64001 17.0219 9.03995 16.9999C13.4399 16.9779 17.0219 13.36 16.9999 8.96005ZM2.50008 9.03246C2.4821 5.43251 5.36758 2.51806 8.96754 2.50008C12.5675 2.4821 15.4819 5.36758 15.4999 8.96754C15.5179 12.5675 12.6324 15.4819 9.03246 15.4999C5.43251 15.5179 2.51806 12.6324 2.50008 9.03246Z" fill="white"/>
</g>
<defs>
<clipPath id="clip0">
<rect width="16" height="16" fill="white" transform="translate(17.0399 16.9599) rotate(179.714)"/>
</clipPath>
</defs>
</svg>
