<svg width="20" height="25" viewBox="0 0 20 25" fill="none" xmlns="http://www.w3.org/2000/svg">
<path d="M18.9787 1.96424H14.8658V1.0612C14.8658 0.47958 14.4072 0 13.851 0H6.19124C5.63505 0 5.17644 0.47958 5.17644 1.0612V1.96424H1.0148C0.746461 1.94383 0.0439095 2.19382 0 3.02543V23.9382C0 24.5198 0.45861 24.9994 1.0148 24.9994H19.0323C19.6812 25.0249 20.0227 24.28 19.9983 23.9382V3.02543C20.0227 2.78054 19.7837 1.99485 18.9787 1.96424ZM7.20604 2.12239H12.8899V3.92847H7.20604V2.12239ZM18.0175 22.928H1.97593V4.08663H5.17156V4.93355C5.23499 5.81108 5.93266 5.99474 6.18636 5.99474H13.8998C14.4072 5.99474 14.8658 5.51517 14.8658 4.93355V4.08663H18.0127V22.928H18.0175Z" fill="url(#paint0_linear)"/>
<path d="M5.06862 21.5811H14.882C15.6288 21.5811 16.2446 20.924 16.2446 20.127C16.2446 19.3301 15.6288 18.673 14.882 18.673H5.06862C4.3218 18.673 3.70601 19.3301 3.70601 20.127C3.70601 20.924 4.3218 21.5811 5.06862 21.5811Z" fill="url(#paint1_linear)"/>
<path d="M5.06862 17.6016H14.882C15.6288 17.6016 16.2446 16.9445 16.2446 16.1475C16.2446 15.3506 15.6288 14.6935 14.882 14.6935H5.06862C4.3218 14.6935 3.70601 15.3506 3.70601 16.1475C3.70601 16.9445 4.3218 17.6016 5.06862 17.6016Z" fill="url(#paint2_linear)"/>
<path d="M13.4896 10.8604L12.9337 10.7962C12.9464 10.6989 12.9539 10.6002 12.9539 10.4996C12.9539 9.92237 12.7367 9.39026 12.3744 8.95807L13.1293 8.19963C13.3426 7.98537 13.3181 7.65957 13.0753 7.47184C12.8323 7.28411 12.4626 7.30532 12.2495 7.51958L11.5075 8.2652C11.1715 8.08852 10.7932 7.96902 10.389 7.92186L10.4288 7.56659C10.4603 7.28307 10.2256 7.03051 9.90355 7.00266C9.58363 6.97392 9.29532 7.18169 9.26355 7.46521L9.20418 7.9951C8.80834 8.09294 8.4451 8.2599 8.13472 8.48299L7.72549 8.06391C7.51478 7.84804 7.14536 7.82328 6.89986 8.0091C6.65503 8.19491 6.62726 8.52042 6.83815 8.73674L7.38333 9.29507C7.23182 9.54926 7.1273 9.82806 7.07796 10.1228L6.66121 10.0747C6.3428 10.0385 6.04679 10.2368 6.00499 10.5195C5.96318 10.8018 6.18894 11.061 6.5097 11.0978L7.14603 11.1709C7.25155 11.5176 7.43634 11.8358 7.68235 12.1097L7.09301 12.7022C6.88029 12.916 6.90404 13.2419 7.14703 13.4299C7.25807 13.5156 7.39587 13.5576 7.53301 13.5576C7.69589 13.5576 7.85744 13.4987 7.97333 13.3824L8.57421 12.7786C8.60364 12.7933 8.63408 12.806 8.66435 12.8191L8.59545 13.4333C8.56384 13.7168 8.79897 13.9692 9.12073 13.9971C9.13996 13.9991 9.15953 14 9.17893 14C9.4761 14 9.73097 13.8008 9.76074 13.5349L9.81007 13.0952C9.87362 13.0988 9.93633 13.1041 10.0007 13.1041C10.3375 13.1041 10.6593 13.0519 10.961 12.9598L11.6334 13.649C11.749 13.7676 11.913 13.8286 12.0773 13.8286C12.2126 13.8286 12.348 13.7877 12.4584 13.704C12.7037 13.5179 12.7315 13.1923 12.5203 12.9763L11.9826 12.4255C12.2101 12.2435 12.4047 12.03 12.5597 11.7945L13.3385 11.8841C13.364 11.8872 13.3901 11.8881 13.415 11.8881C13.7043 11.8881 13.9561 11.699 13.9949 11.4391C14.0363 11.1563 13.81 10.8973 13.4896 10.8604ZM10.8625 9.5584C11.1453 9.5584 11.3747 9.76027 11.3747 10.0096C11.3747 10.2586 11.1454 10.4608 10.8625 10.4608C10.5795 10.4608 10.3506 10.2586 10.3506 10.0096C10.3509 9.76027 10.5797 9.5584 10.8625 9.5584ZM9.56741 11.0526C9.22876 11.0526 8.95433 10.8105 8.95433 10.5122C8.95433 10.214 9.22876 9.97202 9.56741 9.97202C9.90606 9.97202 10.1808 10.214 10.1808 10.5122C10.1808 10.8106 9.90606 11.0526 9.56741 11.0526ZM10.7661 12.2804C10.3506 12.2804 10.0136 11.9833 10.0136 11.6173C10.0136 11.2512 10.3506 10.9542 10.7661 10.9542C11.1816 10.9542 11.5187 11.2512 11.5187 11.6173C11.5187 11.9833 11.1816 12.2804 10.7661 12.2804Z" fill="white"/>
<path d="M13.4896 10.8604L12.9337 10.7962C12.9464 10.6989 12.9539 10.6002 12.9539 10.4996C12.9539 9.92237 12.7367 9.39026 12.3744 8.95807L13.1293 8.19963C13.3426 7.98537 13.3181 7.65957 13.0753 7.47184C12.8323 7.28411 12.4626 7.30532 12.2495 7.51958L11.5075 8.2652C11.1715 8.08852 10.7932 7.96902 10.389 7.92186L10.4288 7.56659C10.4603 7.28307 10.2256 7.03051 9.90355 7.00266C9.58363 6.97392 9.29532 7.18169 9.26355 7.46521L9.20418 7.9951C8.80834 8.09294 8.4451 8.2599 8.13472 8.48299L7.72549 8.06391C7.51478 7.84804 7.14536 7.82328 6.89986 8.0091C6.65503 8.19491 6.62726 8.52042 6.83815 8.73674L7.38333 9.29507C7.23182 9.54926 7.1273 9.82806 7.07796 10.1228L6.66121 10.0747C6.3428 10.0385 6.04679 10.2368 6.00499 10.5195C5.96318 10.8018 6.18894 11.061 6.5097 11.0978L7.14603 11.1709C7.25155 11.5176 7.43634 11.8358 7.68235 12.1097L7.09301 12.7022C6.88029 12.916 6.90404 13.2419 7.14703 13.4299C7.25807 13.5156 7.39587 13.5576 7.53301 13.5576C7.69589 13.5576 7.85744 13.4987 7.97333 13.3824L8.57421 12.7786C8.60364 12.7933 8.63408 12.806 8.66435 12.8191L8.59545 13.4333C8.56384 13.7168 8.79897 13.9692 9.12073 13.9971C9.13996 13.9991 9.15953 14 9.17893 14C9.4761 14 9.73097 13.8008 9.76074 13.5349L9.81007 13.0952C9.87362 13.0988 9.93633 13.1041 10.0007 13.1041C10.3375 13.1041 10.6593 13.0519 10.961 12.9598L11.6334 13.649C11.749 13.7676 11.913 13.8286 12.0773 13.8286C12.2126 13.8286 12.348 13.7877 12.4584 13.704C12.7037 13.5179 12.7315 13.1923 12.5203 12.9763L11.9826 12.4255C12.2101 12.2435 12.4047 12.03 12.5597 11.7945L13.3385 11.8841C13.364 11.8872 13.3901 11.8881 13.415 11.8881C13.7043 11.8881 13.9561 11.699 13.9949 11.4391C14.0363 11.1563 13.81 10.8973 13.4896 10.8604ZM10.8625 9.5584C11.1453 9.5584 11.3747 9.76027 11.3747 10.0096C11.3747 10.2586 11.1454 10.4608 10.8625 10.4608C10.5795 10.4608 10.3506 10.2586 10.3506 10.0096C10.3509 9.76027 10.5797 9.5584 10.8625 9.5584ZM9.56741 11.0526C9.22876 11.0526 8.95433 10.8105 8.95433 10.5122C8.95433 10.214 9.22876 9.97202 9.56741 9.97202C9.90606 9.97202 10.1808 10.214 10.1808 10.5122C10.1808 10.8106 9.90606 11.0526 9.56741 11.0526ZM10.7661 12.2804C10.3506 12.2804 10.0136 11.9833 10.0136 11.6173C10.0136 11.2512 10.3506 10.9542 10.7661 10.9542C11.1816 10.9542 11.5187 11.2512 11.5187 11.6173C11.5187 11.9833 11.1816 12.2804 10.7661 12.2804Z" fill="url(#paint3_linear)"/>
<defs>
<linearGradient id="paint0_linear" x1="9.961" y1="34" x2="9.961" y2="-8" gradientUnits="userSpaceOnUse">
<stop stop-color="white"/>
<stop offset="1" stop-color="#72CCFF"/>
</linearGradient>
<linearGradient id="paint1_linear" x1="9.961" y1="34.5" x2="9.961" y2="-11" gradientUnits="userSpaceOnUse">
<stop stop-color="white"/>
<stop offset="1" stop-color="#72CCFF"/>
</linearGradient>
<linearGradient id="paint2_linear" x1="9.961" y1="34.5" x2="9.961" y2="-11" gradientUnits="userSpaceOnUse">
<stop stop-color="white"/>
<stop offset="1" stop-color="#72CCFF"/>
</linearGradient>
<linearGradient id="paint3_linear" x1="10" y1="2.5" x2="10" y2="34" gradientUnits="userSpaceOnUse">
<stop stop-color="#72CCFF"/>
<stop offset="1" stop-color="white" stop-opacity="0"/>
</linearGradient>
</defs>
</svg>
