<svg width="20" height="20" viewBox="0 0 20 20" fill="none" xmlns="http://www.w3.org/2000/svg">
<path d="M9.6 20C14.9 20 19.2 15.7 19.3 10.4C19.3 5.1 15 0.8 9.7 0.7C7.2 0.7 4.8 1.7 3 3.4V0.7C3 0.3 2.6 0 2.2 0C1.8 0 1.5 0.3 1.5 0.7V5.1C1.5 5.4 1.7 5.7 2 5.8L6.4 7.3C6.8 7.4 7.2 7.2 7.3 6.8C7.5 6.5 7.3 6.1 6.9 6L3.6 4.9C6.6 1.6 11.8 1.4 15.1 4.4C18.4 7.4 18.6 12.6 15.6 15.9C12.6 19.2 7.4 19.4 4.1 16.4C2.1 14.5 1.1 11.8 1.6 9.1C1.7 8.6 1.4 8.2 1 8.2C0.6 8.1 0.2 8.3 0.1 8.8C0 9.3 0 9.8 0 10.4C0 15.7 4.3 20 9.6 20Z" fill="#E17126"/>
</svg>
