<svg width="32" height="32" viewBox="0 0 32 32" fill="none" xmlns="http://www.w3.org/2000/svg">
<path d="M31.7 5.3L26.7 0.3C26.3 -0.1 25.7 -0.1 25.4 0.3C25 0.7 25 1.3 25.4 1.6L27.2 3.4L23 7.6L20 4.6C19.6 4.2 19 4.2 18.7 4.6C18.3 5 18.3 5.6 18.7 5.9L19 6.2L10.3 14.9C9.2 16 8.7 17.5 9 19L6.4 21.6C6 22 6 22.6 6.3 23L7 23.7L0.3 30.4C-0.1 30.8 -0.1 31.4 0.3 31.7C0.5 31.9 0.7 32 0.9 32C1.1 32 1.4 31.9 1.6 31.7L8.3 25L9 25.7C9.2 25.9 9.4 26 9.7 26C9.9 26 10.2 25.9 10.4 25.7L13 23C14.5 23.2 16.1 22.8 17.2 21.7L25.9 13L26.1 13.2C26.3 13.4 26.5 13.5 26.8 13.5C27.1 13.5 27.3 13.4 27.5 13.2C27.9 12.8 27.9 12.2 27.5 11.9L24.5 8.9L28.7 4.7L30.5 6.5C30.7 6.7 30.9 6.8 31.2 6.8C31.4 6.8 31.7 6.7 31.9 6.5C32.1 6.2 32.1 5.6 31.7 5.3ZM15.8 20.3C15 21.1 13.9 21.3 12.9 21C12.6 20.9 12.2 21 12 21.2L9.7 23.5L8.4 22.2L10.7 19.9C10.9 19.7 11 19.3 10.9 19C10.7 18.2 10.8 17.3 11.3 16.5L12 17.2C12.2 17.4 12.4 17.5 12.7 17.5C12.9 17.5 13.2 17.4 13.4 17.2C13.8 16.8 13.8 16.2 13.4 15.9L12.7 15.2L14 13.9L14.7 14.6C14.9 14.8 15.1 14.9 15.4 14.9C15.6 14.9 15.9 14.8 16.1 14.6C16.5 14.2 16.5 13.6 16.1 13.3L15.4 12.6L16.7 11.3L20.9 15.5L15.8 20.3ZM22 14.2L17.8 10L20.3 7.5L24.5 11.7L22 14.2Z" fill="#1790C9"/>
</svg>
