<svg width="32" height="32" viewBox="0 0 32 32" fill="none" xmlns="http://www.w3.org/2000/svg">
<path d="M31.1 18.9H25.8V16.1C25.8 15.6 25.4 15.2 24.9 15.2H17V13.2H19.8C20.3 13.2 20.7 12.8 20.7 12.3C20.7 11.8 20.3 11.4 19.8 11.4H19.3L19 9.4H22.3C22.8 9.4 23.2 9 23.2 8.5V0.9C23.2 0.4 22.8 0 22.3 0H9.8C9.2 0 8.8 0.4 8.8 0.9V8.4C8.8 8.9 9.2 9.3 9.7 9.3H13L12.7 11.2H12.2C11.7 11.2 11.3 11.6 11.3 12.1C11.3 12.6 11.7 13 12.2 13H15V15H7.2C6.7 15 6.3 15.4 6.3 15.9V18.7H0.9C0.4 18.7 0 19.1 0 19.6V27.1C0 27.6 0.4 28 0.9 28H4.2L3.9 29.9H3.4C2.9 29.9 2.5 30.3 2.5 30.8C2.5 31.3 2.9 32 3.4 32H10.9C11.4 32 11.8 31.6 11.8 31.1C11.8 30.6 11.4 30.2 10.9 30.2H10.4L10.1 28.3H13.4C13.9 28.3 14.3 27.9 14.3 27.4V19.9C14.3 19.4 13.9 19 13.4 19H8.1V17H23.9V18.9H18.6C18.1 18.9 17.7 19.3 17.7 19.8V27.3C17.7 27.8 18.1 28.2 18.6 28.2H21.9L21.6 30.1H21.1C20.6 30.1 20.2 30.5 20.2 31C20.2 31.5 20.6 31.9 21.1 31.9H28.6C29.1 31.9 29.5 31.5 29.5 31C29.5 30.5 29.1 30.1 28.6 30.1H28.1L27.8 28.2H31.1C31.6 28.2 32 27.8 32 27.3V19.8C32 19.3 31.6 18.9 31.1 18.9ZM10.7 1.9H21.3V7.5H10.7V1.9ZM14.9 9.4H17.1L17.4 11.3H14.6L14.9 9.4ZM8.6 30.1H5.8L6.1 28.2H8.3L8.6 30.1ZM12.5 26.4H1.9V20.8H12.5V26.4ZM26.2 30.1H23.4L23.7 28.2H25.9L26.2 30.1ZM30.1 26.4H19.5V20.8H30.1V26.4Z" fill="#015E99"/>
</svg>
