<svg width="24" height="32" viewBox="0 0 24 32" fill="none" xmlns="http://www.w3.org/2000/svg">
<path d="M23.9999 31L22.9999 18.4C22.8999 17.2 22.0999 16.2 21.0999 15.8C21.1999 15.1 20.9999 14.3 20.3999 13.8C13.6999 6.8 14.0999 7.3 13.8999 7.10001C15.0999 6.50001 15.9999 5.20001 15.9999 3.80001C15.9999 1.70001 14.2999 0.100005 12.1999 0.100005C9.6999 5.1707e-06 7.8999 2.40001 8.5999 4.80001C5.1999 4.50001 2.3999 6.5 1.2999 9.3L0.0999023 12.3C-9.76548e-05 12.6 -9.76548e-05 12.8 0.0999023 13L0.999902 15C0.999902 15.1 0.999902 25.2 0.999902 25.3C0.999902 25.8 1.3999 26.2 1.8999 26.2L3.7999 26.4V31C3.7999 31.5 4.1999 31.9 4.6999 31.9H12.1999C12.6999 31.9 13.0999 31.5 13.0999 31V27.2C13.5999 27.2 13.9999 26.8 13.9999 26.3V14.9L17.3999 17.2C16.8999 18.1 17.0999 18.7 17.0999 19.6C17.0999 20.1 17.5999 20.5 18.0999 20.5C18.5999 20.5 18.9999 20 18.9999 19.5C18.8999 18.7 18.7999 18.3 19.1999 17.9C19.7999 17.2 20.9999 17.6 21.0999 18.5L21.9999 31.1C21.9999 31.6 22.4999 32 22.9999 32C23.5999 32 23.9999 31.5 23.9999 31ZM12.1999 1.90001C13.1999 1.90001 14.0999 2.70001 14.0999 3.80001C14.0999 4.90001 13.2999 5.70001 12.1999 5.70001C11.1999 5.70001 10.2999 4.90001 10.2999 3.80001C10.2999 2.70001 11.1999 1.90001 12.1999 1.90001ZM2.7999 19.4C3.2999 20.4 4.4999 20.8 5.5999 20.4C6.6999 20 7.2999 18.7 6.8999 17.6L5.4999 13.1L6.7999 10.7C6.9999 10.2 6.8999 9.7 6.3999 9.4C5.9999 9.3 5.3999 9.5 5.0999 9.9L3.5999 12.6C3.4999 12.8 3.4999 13.1 3.4999 13.3L5.0999 18.1C5.1999 18.5 4.6999 18.8 4.3999 18.4L1.9999 12.7L2.9999 10C4.5999 5.9 9.8999 5.70001 12.8999 8.8C19.4999 15.6 19.0999 15.2 19.1999 15.3C19.3999 15.5 19.3999 15.7 19.1999 15.9C19.0999 15.9 19.0999 15.9 18.9999 16C18.7999 16 19.1999 16.2 13.6999 12.5C13.0999 12.1 12.1999 12.5 12.1999 13.3V25.4L2.7999 24.6V19.4ZM5.5999 26.6L7.4999 26.8V30.1H5.5999V26.6ZM9.3999 30.1V26.9L11.2999 27.1V30.1H9.3999Z" fill="white"/>
</svg>
