<svg width="20" height="20" viewBox="0 0 20 20" fill="none" xmlns="http://www.w3.org/2000/svg">
<path d="M19.375 18.5H18.375V14C18.625 13.75 18.875 13.375 18.875 13V11.5C18.875 10.625 18.125 10 17.25 10H16.5V6.375C16.5 5.75 16 5.25 15.375 5.25H15.25V4.75C16 4.5 16.5 3.875 16.5 3.125C16.5 2.875 16.375 2.375 15.875 1.375C15.625 0.75 15.25 0.375 15.25 0.375C15.125 0.125 14.875 0 14.75 0C14.5 0 14.375 0.125 14.25 0.25C14.25 0.25 14 0.75 13.625 1.25C13 2.375 13 2.75 13 3C13 3.75 13.5 4.375 14.25 4.625V5H14.125C13.5 5 13 5.5 13 6.125V10H11.75V6.375C11.75 5.75 11.25 5.25 10.625 5.25V4.75C11.375 4.5 11.875 3.875 11.875 3.125C11.875 2.875 11.75 2.375 11.25 1.375C10.75 0.75 10.5 0.25 10.5 0.25C10.375 0.125 10.25 0 10 0C9.75 0 9.625 0.125 9.5 0.25C9.5 0.25 9.25 0.75 8.875 1.25C8.25 2.375 8.25 2.875 8.25 3.125C8.25 3.875 8.75 4.5 9.5 4.75V5.125H9.375C8.75 5.25 8.25 5.75 8.25 6.375V10H7V6.375C7 5.75 6.5 5.25 5.875 5.25V4.75C6.625 4.5 7.125 3.875 7.125 3.125C7.125 2.875 7 2.375 6.5 1.375C6.125 0.75 5.75 0.25 5.75 0.25C5.625 0.125 5.5 0 5.25 0C5.125 0 4.875 0.125 4.75 0.25C4.75 0.25 4.5 0.75 4.125 1.25C3.625 2.375 3.5 2.875 3.5 3.125C3.5 3.875 4 4.5 4.75 4.75V5.125H4.625C4 5.125 3.5 5.625 3.5 6.25V10H2.75C1.875 10 1.125 10.625 1.125 11.5V13C1.125 13.375 1.25 13.75 1.625 14V18.5H0.625C0.25 18.5 0 18.75 0 19.125C0 19.5 0.25 19.75 0.625 19.75H19.5C19.875 19.75 20.125 19.5 20.125 19.125C20 18.75 19.75 18.5 19.375 18.5ZM14.125 3.125C14.125 3 14.375 2.375 14.75 1.75C15.125 2.375 15.375 3 15.375 3.125C15.375 3.5 15 3.75 14.75 3.75C14.375 3.75 14.125 3.5 14.125 3.125ZM14.125 6.375H15.375V10H14.125V6.375ZM9.375 3.125C9.375 3 9.625 2.375 10 1.75C10.375 2.375 10.625 3 10.625 3.125C10.625 3.5 10.375 3.75 10 3.75C9.625 3.75 9.375 3.5 9.375 3.125ZM9.375 6.375H10.625V10H9.375V6.375ZM4.625 3.125C4.625 3 4.875 2.375 5.25 1.75C5.625 2.375 5.875 3 5.875 3.125C5.875 3.5 5.625 3.75 5.25 3.75C5 3.75 4.625 3.5 4.625 3.125ZM4.625 6.375H5.875V10H4.625V6.375ZM17.25 18.5H2.75V14.375C2.875 14.375 2.875 14.375 3 14.375L4.5 13.875C5.375 13.625 6.25 13.625 7.125 13.875L8.25 14.25C8.75 14.375 9.375 14.5 9.875 14.5C10.375 14.5 11 14.375 11.5 14.25L12.625 13.875C13.5 13.625 14.375 13.625 15.25 13.875L16.75 14.375C16.875 14.375 16.875 14.375 17 14.375V18.5H17.25ZM17.75 13C17.75 13 17.625 13.125 17.75 13C17.625 13.125 17.5 13.25 17.375 13.125L15.875 12.625C14.75 12.25 13.625 12.25 12.5 12.625L11.375 13C10.5 13.25 9.625 13.25 8.75 13L7.5 12.75C7 12.625 6.375 12.5 5.875 12.5C5.375 12.5 4.75 12.625 4.25 12.75L2.75 13.25C2.625 13.25 2.5 13.25 2.375 13.25L2.25 13.125V11.5C2.25 11.375 2.5 11.125 2.75 11.125H17.25C17.5 11.125 17.75 11.25 17.75 11.5V13Z" fill="#617882"/>
</svg>
