<svg width="85" height="49" viewBox="0 0 85 49" fill="none" xmlns="http://www.w3.org/2000/svg">
<path d="M44.2815 24.8192H39.2532C38.6044 24.8192 37.9556 25.0126 37.3068 25.2061C36.0091 22.3044 33.4139 20.1765 30.4942 20.1765H21.573C18.6534 20.1765 16.0581 22.1109 14.7605 25.2061C14.1117 25.0126 13.3007 24.8192 12.6519 24.8192H7.62356C3.40627 24.8192 0 28.8816 0 33.9112V43.5835C0 46.6786 2.10864 49 4.54169 49H47.3634C49.9586 49 51.9051 46.4852 51.9051 43.5835V33.9112C51.9051 28.8816 48.4988 24.8192 44.2815 24.8192ZM48.8232 43.5835C48.8232 44.5507 48.1744 45.3245 47.3634 45.3245H38.1178V29.2684C38.1178 29.075 38.1178 28.8816 38.1178 28.6881C38.4422 28.4947 38.9288 28.4947 39.2532 28.4947H44.2815C46.8768 28.4947 48.8232 31.0095 48.8232 33.9112V43.5835ZM4.54169 45.518C3.73068 45.518 3.08186 44.7442 3.08186 43.7769V34.1046C3.08186 31.0095 5.19051 28.6881 7.62356 28.6881H12.6519C13.1385 28.6881 13.4629 28.6881 13.7873 28.8816C13.7873 29.075 13.7873 29.2685 13.7873 29.4619V45.518H4.54169ZM21.4108 23.8519H30.332C32.9273 23.8519 34.8737 26.3668 34.8737 29.2684V45.3245H16.8691V29.2684C16.8691 26.3668 18.9778 23.8519 21.4108 23.8519Z" fill="#16A0C9"/>
<path d="M9.88666 23.0588C13.9473 23.0588 17.3017 19.7597 17.3017 15.7661C17.3017 11.7725 13.9473 8.64705 9.88666 8.64705C5.82607 8.64705 2.47167 11.7725 2.47167 15.7661C2.47167 19.7597 5.82607 23.0588 9.88666 23.0588ZM13.7707 15.7661C13.7707 18.0234 12.0052 19.7597 9.71011 19.7597C7.415 19.7597 5.82607 18.0234 5.82607 15.7661C5.82607 13.5089 7.59154 11.7725 9.88666 11.7725C12.1818 11.7725 13.7707 13.6825 13.7707 15.7661Z" fill="#16A0C9"/>
<path d="M25.9525 20.1765C30.7414 20.1765 34.6034 15.6322 34.6034 9.99735C34.6034 4.36248 30.7414 -3.8147e-06 25.9525 -3.8147e-06C21.1637 -3.8147e-06 17.3017 4.54425 17.3017 10.1791C17.3017 15.814 21.1637 20.1765 25.9525 20.1765ZM25.9525 3.45363C29.0421 3.45363 31.6683 6.54372 31.6683 10.1791C31.6683 13.8145 29.0421 16.9046 25.9525 16.9046C22.8629 16.9046 20.2368 13.8145 20.2368 10.1791C20.2368 6.36195 22.8629 3.45363 25.9525 3.45363Z" fill="#16A0C9"/>
<path d="M42.0184 23.0588C46.079 23.0588 49.4334 19.7597 49.4334 15.7661C49.4334 11.7725 46.079 8.64705 42.0184 8.64705C37.9578 8.64705 34.6034 11.9461 34.6034 15.9398C34.7799 19.7597 37.9578 23.0588 42.0184 23.0588ZM42.0184 11.7725C44.3135 11.7725 46.079 13.6825 46.079 15.7661C46.079 17.8497 44.3135 19.7597 42.0184 19.7597C39.7233 19.7597 37.9578 18.0234 37.9578 15.7661C38.1343 13.6825 39.8998 11.7725 42.0184 11.7725Z" fill="#16A0C9"/>
<path d="M70.0522 0.504134C69.6283 0.303406 69.2045 0.102679 68.7807 0.104443C68.357 0.106208 67.9334 0.310465 67.5098 0.514723L53.3243 14.3433C52.6891 14.9535 52.6899 16.1684 53.3259 16.7733C53.9619 17.3781 55.233 17.3728 55.8682 16.7627L67.0897 5.98379L67.1169 47.0898C67.1176 48.1023 67.9655 48.7062 68.8129 48.7027C69.8722 48.6983 70.5072 47.8857 70.5067 47.0757L70.4795 5.96967L81.7152 16.655C82.3512 17.2598 83.6223 17.2546 84.2575 16.6444C85.1044 15.8309 85.1037 14.8185 84.4678 14.2136L70.0522 0.504134Z" fill="#16A0C9"/>
</svg>
