<svg width="96" height="96" viewBox="0 0 96 96" fill="none" xmlns="http://www.w3.org/2000/svg">
<path d="M48 96C74.5097 96 96 74.5097 96 48C96 21.4903 74.5097 0 48 0C21.4903 0 0 21.4903 0 48C0 74.5097 21.4903 96 48 96Z" fill="#D7E9F3"/>
<path d="M28.6 73.2C30.8 72.4 33.2 71.8 35.4 70.6C37.2 69.6 38.6 67.2 38.6 65C38.6 64.6 38.4 64.4 38.2 64.2C33.8 58 31.6 51 30.4 43.6C29.8 39.6 29.6 35.4 30.4 31.4C31.6 24.4 36.4 20 43.4 19.2C47 18.8 50.4 18.8 53.8 19.4C60.4 20.8 64.4 25.2 65.4 32.2C66.6 41.4 64.6 50.2 60.8 58.6C60 60.4 59 62 58 63.6C57.8 64 57.6 64.4 57.6 64.8C57.6 66 57.8 67 58.2 68C58.6 69.2 59.4 70 60.4 70.6C63.4 72.2 66.8 73 70.2 74.2C74.2 75.6 78.2 77.2 82.2 79.2C82.8 79.4 83.2 79.8 83.8 80.2C91.4 71.6 96 60.4 96 48C96 21.4 74.6 0 48 0C21.4 0 0 21.4 0 48C0 60.4 4.6 71.6 12.2 80C12.6 79.8 12.8 79.6 13.2 79.4C18.2 76.6 23.4 74.8 28.6 73.2Z" fill="#D7E9F3"/>
<path d="M48 95.9999C62.2 95.9999 74.8 89.7999 83.6 80.1999C83 79.7999 82.6 79.5999 82 79.1999C78.2 77.1999 74.2 75.5999 70 74.1999C66.8 72.9999 63.4 72.1999 60.2 70.5999C59.2 69.9999 58.4 69.1999 58 67.9999C57.6 66.9999 57.4 65.7999 57.4 64.7999C57.4 64.3999 57.4 63.9999 57.8 63.5999C59 61.9999 59.8 60.3999 60.6 58.5999C64.4 50.1999 66.4 41.5999 65.2 32.1999C64.4 25.3999 60.2 20.9999 53.6 19.3999C50.2 18.5999 46.6 18.5999 43.2 19.1999C36.2 19.9999 31.6 24.3999 30.2 31.3999C29.4 35.5999 29.6 39.5999 30.2 43.5999C31.4 50.9999 33.6 57.9999 38 64.1999C38.2 64.3999 38.4 64.5999 38.4 64.9999C38.6 66.9999 37.2 69.5999 35.2 70.5999C33 71.7999 30.8 72.3999 28.4 73.1999C23.2 74.9999 17.8 76.7999 13 79.3999C12.6 79.5999 12.4 79.7999 12 79.9999C21 89.7999 33.8 95.9999 48 95.9999Z" fill="white"/>
<path d="M48 46.2001C54.6 46.2001 60.2 50.6001 61.4 56.6001C62.4 53.4001 63 49.6001 63 45.6001C63 32.4001 56.2 21.6001 48 21.6001C39.8 21.6001 33 32.4001 33 45.6001C33 49.6001 33.6 53.2001 34.6 56.6001C35.8 50.8001 41.4 46.2001 48 46.2001Z" fill="white"/>
<path d="M61.2002 57.2C61.2002 57 61.4002 57 61.4002 56.8C61.4002 56.8 61.4002 57 61.2002 57.2Z" fill="#F5FAFC"/>
<path d="M47.9999 72.2C51.9999 72.2 55.5999 70.6 57.9999 68C57.5999 67 57.3999 66.0001 57.3999 64.8001V64.6C54.7999 68 51.5999 69.8001 47.9999 69.8001C42.1999 69.8001 36.9999 64.4 34.5999 56.8C34.5999 57.2 34.3999 57.6 34.3999 58C35.3999 60.2 36.5999 62.4001 38.1999 64.4001C38.3999 64.6001 38.5999 64.8 38.5999 65.2C38.5999 66.2 38.3999 67.2 37.9999 68C40.3999 70.6 43.9999 72.2 47.9999 72.2Z" fill="#F5FAFC"/>
<path d="M48 69.7999C53.8 69.7999 59 64.3999 61.4 56.7999C60.2 50.7999 54.6 46.3999 48 46.3999C41.4 46.3999 35.2 50.9999 34 56.7999C36.6 64.3999 42.2 69.7999 48 69.7999Z" fill="white"/>
</svg>
