<svg width="22" height="32" viewBox="0 0 22 32" fill="none" xmlns="http://www.w3.org/2000/svg">
<path d="M21.3 18.9L19.2 13.7C18.9 12.9 17.6 9.99999 14 8.59999C15 7.69999 15.7 6.39999 15.7 4.89999C15.7 2.19999 13.5 -0.100006 10.7 -0.100006C7.89996 -0.100006 5.69996 2.09999 5.69996 4.89999C5.69996 6.39999 6.29996 7.69999 7.39996 8.59999C3.89996 9.99999 2.59996 13 2.29996 13.7L0.199961 18.9C-0.200039 19.8 -0.100039 20.8 0.499961 21.7C0.799961 22.1 1.69996 23.2 3.29996 23L2.79996 24.9C2.69996 25.4 3.09996 26 3.69996 26H5.79996V31.1C5.79996 31.6 6.19996 32 6.69996 32H14.7C15.2 32 15.6 31.6 15.6 31.1V26H17.7C18.3 26 18.8 25.4 18.6 24.8L18.1 22.9C19.7 23.1 20.6 22 20.9 21.6C21.6 20.8 21.7 19.8 21.3 18.9ZM10.8 1.89999C12.5 1.89999 13.9 3.29999 13.9 4.99999C13.9 6.69999 12.5 7.99999 10.8 7.99999C9.09996 7.99999 7.69996 6.69999 7.69996 4.99999C7.69996 3.29999 9.09996 1.89999 10.8 1.89999ZM2.09996 20.6C1.89996 20.3 1.89996 19.9 1.99996 19.6L3.99996 14.4C4.49996 13.3 5.19996 12.3 6.09996 11.5L5.19996 15.3C4.69996 17.2 4.29996 19 3.99996 20.3C3.69996 21.2 2.59996 21.4 2.09996 20.6ZM9.79996 30.1H7.69996V26H9.79996V30.1ZM13.8 30.1H11.7V26H13.8V30.1ZM4.89996 24.1L7.89996 12.1C8.19996 10.8 9.39996 9.89999 10.7 9.89999C12 9.89999 13.2 10.8 13.5 12.1L16.5 24.1H4.89996ZM19.5 20.6C19 21.4 17.8 21.2 17.6 20.3L15.4 11.6C16.3 12.4 17 13.3 17.5 14.5L19.6 19.7C19.7 19.9 19.7 20.3 19.5 20.6Z" fill="white"/>
</svg>
