<svg width="480" height="480" viewBox="0 0 480 480" fill="none" xmlns="http://www.w3.org/2000/svg">
<g filter="url(#filter0_b)">
<path d="M472 160H432V104C432 99.582 428.418 96 424 96H400V8C400 3.582 396.418 0 392 0H88C83.582 0 80 3.582 80 8V96H56C51.582 96 48 99.582 48 104V160H8C3.582 160 0 163.582 0 168V392C0 396.418 3.582 400 8 400H80V472C80 476.418 83.582 480 88 480H392C396.418 480 400 476.418 400 472V400H472C476.418 400 480 396.418 480 392V168C480 163.582 476.418 160 472 160ZM400 112H416V160H400V112ZM96 16H384V160H96V16ZM64 112H80V160H64V112ZM80 352H72V328H80V352ZM384 464H96V328H384V464ZM464 384H400V368H416C420.418 368 424 364.418 424 360V320C424 315.582 420.418 312 416 312H64C59.582 312 56 315.582 56 320V360C56 364.418 59.582 368 64 368H80V384H16V176H464V384ZM400 352V328H408V352H400Z" fill="white"/>
<path d="M352 352H176V368H352V352Z" fill="white"/>
<path d="M352 384H128V400H352V384Z" fill="white"/>
<path d="M304 416H128V432H304V416Z" fill="white"/>
<path d="M160 352H128V368H160V352Z" fill="white"/>
<path d="M104 192H40C35.582 192 32 195.582 32 200V232C32 236.418 35.582 240 40 240H104C108.418 240 112 236.418 112 232V200C112 195.582 108.418 192 104 192ZM96 224H48V208H96V224Z" fill="white"/>
<path d="M208 224H128V240H208V224Z" fill="white"/>
<path d="M240 224H224V240H240V224Z" fill="white"/>
</g>
<defs>
<filter id="filter0_b" x="-4" y="-4" width="488" height="488" filterUnits="userSpaceOnUse" color-interpolation-filters="sRGB">
<feFlood flood-opacity="0" result="BackgroundImageFix"/>
<feGaussianBlur in="BackgroundImage" stdDeviation="2"/>
<feComposite in2="SourceAlpha" operator="in" result="effect1_backgroundBlur"/>
<feBlend mode="normal" in="SourceGraphic" in2="effect1_backgroundBlur" result="shape"/>
</filter>
</defs>
</svg>
