<svg width="19" height="25" viewBox="0 0 19 25" fill="none" xmlns="http://www.w3.org/2000/svg">
<path d="M18.9844 20.073C18.331 15.7335 16.6215 11.4556 12.5806 10.0776C14.1489 9.11615 15.1944 7.40398 15.1944 5.45015C15.1944 2.44228 12.7165 0 9.65313 0C6.59497 0 4.11186 2.43714 4.11186 5.45015C4.11186 7.40398 5.15738 9.11615 6.72566 10.0776C2.68472 11.4556 0.975294 15.7335 0.321843 20.073C0.201608 20.8803 0.844604 21.6052 1.67579 21.6052H6.0513L6.06176 21.5949L5.41876 20.9625C4.42552 19.9856 4.42552 18.402 5.41876 17.4251C5.8997 16.952 6.53747 16.6949 7.21706 16.6949C7.89665 16.6949 8.53442 16.9572 9.01536 17.4251L9.65835 18.0575L10.3013 17.4251C10.7823 16.952 11.4201 16.6949 12.0996 16.6949C12.7792 16.6949 13.417 16.9572 13.8979 17.4251C14.3789 17.8981 14.6403 18.5254 14.6403 19.1938C14.6403 19.8622 14.3737 20.4895 13.8979 20.9625L13.2497 21.6001L13.2602 21.6104H17.6357C18.4616 21.6104 19.1099 20.8854 18.9844 20.073ZM9.65313 3.67628C8.65988 3.67628 7.8496 4.47324 7.8496 5.45015C7.8496 5.89748 7.47844 6.26253 7.02364 6.26253C6.56884 6.26253 6.19768 5.89748 6.19768 5.45015C6.19768 3.57345 7.75028 2.04638 9.65835 2.04638C10.1132 2.04638 10.4843 2.41143 10.4843 2.85876C10.4791 3.31122 10.1079 3.67628 9.65313 3.67628Z" fill="white"/>
<path d="M18.9844 20.073C18.331 15.7335 16.6215 11.4556 12.5806 10.0776C14.1489 9.11615 15.1944 7.40398 15.1944 5.45015C15.1944 2.44228 12.7165 0 9.65313 0C6.59497 0 4.11186 2.43714 4.11186 5.45015C4.11186 7.40398 5.15738 9.11615 6.72566 10.0776C2.68472 11.4556 0.975294 15.7335 0.321843 20.073C0.201608 20.8803 0.844604 21.6052 1.67579 21.6052H6.0513L6.06176 21.5949L5.41876 20.9625C4.42552 19.9856 4.42552 18.402 5.41876 17.4251C5.8997 16.952 6.53747 16.6949 7.21706 16.6949C7.89665 16.6949 8.53442 16.9572 9.01536 17.4251L9.65835 18.0575L10.3013 17.4251C10.7823 16.952 11.4201 16.6949 12.0996 16.6949C12.7792 16.6949 13.417 16.9572 13.8979 17.4251C14.3789 17.8981 14.6403 18.5254 14.6403 19.1938C14.6403 19.8622 14.3737 20.4895 13.8979 20.9625L13.2497 21.6001L13.2602 21.6104H17.6357C18.4616 21.6104 19.1099 20.8854 18.9844 20.073ZM9.65313 3.67628C8.65988 3.67628 7.8496 4.47324 7.8496 5.45015C7.8496 5.89748 7.47844 6.26253 7.02364 6.26253C6.56884 6.26253 6.19768 5.89748 6.19768 5.45015C6.19768 3.57345 7.75028 2.04638 9.65835 2.04638C10.1132 2.04638 10.4843 2.41143 10.4843 2.85876C10.4791 3.31122 10.1079 3.67628 9.65313 3.67628Z" fill="url(#paint0_linear)"/>
<path d="M11.3835 18.4997L9.65313 20.2016L7.92279 18.4997C7.53072 18.114 6.89295 18.114 6.49565 18.4997C6.10358 18.8853 6.10358 19.5126 6.49565 19.9033L8.22599 21.6052L6.49565 23.3071C6.10358 23.6927 6.10358 24.32 6.49565 24.7108C6.88772 25.0964 7.52549 25.0964 7.92279 24.7108L9.65313 23.0089L11.3835 24.7108C11.7755 25.0964 12.4133 25.0964 12.8106 24.7108C13.2027 24.3252 13.2027 23.6979 12.8106 23.3071L11.0803 21.6001L12.8106 19.8982C13.2027 19.5126 13.2027 18.8853 12.8106 18.4945C12.4133 18.1089 11.7755 18.1089 11.3835 18.4997Z" fill="white"/>
<path d="M11.3835 18.4997L9.65313 20.2016L7.92279 18.4997C7.53072 18.114 6.89295 18.114 6.49565 18.4997C6.10358 18.8853 6.10358 19.5126 6.49565 19.9033L8.22599 21.6052L6.49565 23.3071C6.10358 23.6927 6.10358 24.32 6.49565 24.7108C6.88772 25.0964 7.52549 25.0964 7.92279 24.7108L9.65313 23.0089L11.3835 24.7108C11.7755 25.0964 12.4133 25.0964 12.8106 24.7108C13.2027 24.3252 13.2027 23.6979 12.8106 23.3071L11.0803 21.6001L12.8106 19.8982C13.2027 19.5126 13.2027 18.8853 12.8106 18.4945C12.4133 18.1089 11.7755 18.1089 11.3835 18.4997Z" fill="url(#paint1_linear)"/>
<defs>
<linearGradient id="paint0_linear" x1="10" y1="4" x2="10" y2="31.5" gradientUnits="userSpaceOnUse">
<stop stop-color="#72CCFF"/>
<stop offset="1" stop-color="white" stop-opacity="0"/>
</linearGradient>
<linearGradient id="paint1_linear" x1="9.5" y1="-8.5" x2="10" y2="33.5" gradientUnits="userSpaceOnUse">
<stop stop-color="#72CCFF"/>
<stop offset="1" stop-color="white" stop-opacity="0"/>
</linearGradient>
</defs>
</svg>
