<svg width="20" height="20" viewBox="0 0 20 20" fill="none" xmlns="http://www.w3.org/2000/svg">
<path d="M17.1 2.9001C13.2 -0.999902 6.8 -0.999902 2.9 2.9001C1 4.8001 0 7.3001 0 10.0001C0 12.7001 1 15.2001 2.9 17.1001C4.9 19.1001 7.4 20.0001 10 20.0001C12.6 20.0001 15.1 19.0001 17.1 17.1001C21 13.2001 21 6.8001 17.1 2.9001ZM16 16.0001C12.7 19.3001 7.3 19.3001 4 16.0001C2.4 14.4001 1.5 12.3001 1.5 10.0001C1.5 7.7001 2.4 5.6001 4 4.0001C7.3 0.700098 12.7 0.700098 16 4.0001C19.3 7.3001 19.3 12.7001 16 16.0001Z" fill="#617882"/>
<path d="M13.3002 6.7001C13.0002 6.4001 12.5002 6.4001 12.2002 6.7001L10.0002 8.9001L7.9002 6.7001C7.6002 6.4001 7.1002 6.4001 6.8002 6.7001C6.5002 7.0001 6.5002 7.5001 6.8002 7.8001L9.0002 10.0001L6.8002 12.2001C6.5002 12.5001 6.5002 13.0001 6.8002 13.3001C7.0002 13.5001 7.2002 13.5001 7.3002 13.5001C7.4002 13.5001 7.7002 13.4001 7.8002 13.3001L10.0002 11.1001L12.2002 13.3001C12.4002 13.5001 12.5002 13.5001 12.7002 13.5001C12.9002 13.5001 13.1002 13.4001 13.2002 13.3001C13.5002 13.0001 13.5002 12.5001 13.2002 12.2001L11.2002 10.0001L13.4002 7.8001C13.6002 7.5001 13.6002 7.0001 13.3002 6.7001Z" fill="#617882"/>
</svg>
