<svg width="21" height="25" viewBox="0 0 21 25" fill="none" xmlns="http://www.w3.org/2000/svg">
<path d="M19.0177 1.96424H14.9048V1.0612C14.9048 0.47958 14.4462 0 13.89 0H6.23024C5.67405 0 5.21544 0.47958 5.21544 1.0612V1.96424H1.0538C0.785463 1.94383 0.082911 2.19382 0.0390015 3.02543V23.9382C0.0390015 24.5198 0.497612 24.9994 1.0538 24.9994H19.0713C19.7202 25.0249 20.0617 24.28 20.0373 23.9382V3.02543C20.0617 2.78054 19.8227 1.99485 19.0177 1.96424ZM7.24504 2.12239H12.9289V3.92847H7.24504V2.12239ZM18.0565 22.928H2.01493V4.08663H5.21056V4.93355C5.27399 5.81108 5.97166 5.99474 6.22536 5.99474H13.9388C14.4462 5.99474 14.9048 5.51517 14.9048 4.93355V4.08663H18.0517V22.928H18.0565Z" fill="url(#paint0_linear)"/>
<path d="M5.10762 21.5811H14.921C15.6678 21.5811 16.2836 20.924 16.2836 20.127C16.2836 19.3301 15.6678 18.673 14.921 18.673H5.10762C4.3608 18.673 3.74501 19.3301 3.74501 20.127C3.74501 20.924 4.3608 21.5811 5.10762 21.5811Z" fill="url(#paint1_linear)"/>
<path d="M5.10762 17.6016H14.921C15.6678 17.6016 16.2836 16.9445 16.2836 16.1475C16.2836 15.3506 15.6678 14.6935 14.921 14.6935H5.10762C4.3608 14.6935 3.74501 15.3506 3.74501 16.1475C3.74501 16.9445 4.3608 17.6016 5.10762 17.6016Z" fill="url(#paint2_linear)"/>
<path d="M8.05275 11.5389H8.75585V12.2806C8.75585 13.0158 9.3356 13.6221 10.0387 13.6221C10.7418 13.6221 11.3216 13.0158 11.3216 12.2806V11.5453H12.0247C12.7278 11.5453 13.3075 10.9391 13.3075 10.2038C13.3075 9.46857 12.7278 8.8623 12.0247 8.8623H11.3216V8.12705C11.3216 7.3918 10.7418 6.78554 10.0387 6.78554C9.3356 6.78554 8.75585 7.3918 8.75585 8.12705V8.8623H8.05275C7.34964 8.8623 6.76989 9.46857 6.76989 10.2038C6.76989 10.9326 7.34348 11.5389 8.05275 11.5389Z" fill="url(#paint3_linear)"/>
<defs>
<linearGradient id="paint0_linear" x1="10" y1="34" x2="10" y2="-8" gradientUnits="userSpaceOnUse">
<stop stop-color="white"/>
<stop offset="1" stop-color="#72CCFF"/>
</linearGradient>
<linearGradient id="paint1_linear" x1="10" y1="34.5" x2="10" y2="-11" gradientUnits="userSpaceOnUse">
<stop stop-color="white"/>
<stop offset="1" stop-color="#72CCFF"/>
</linearGradient>
<linearGradient id="paint2_linear" x1="10" y1="34.5" x2="10" y2="-11" gradientUnits="userSpaceOnUse">
<stop stop-color="white"/>
<stop offset="1" stop-color="#72CCFF"/>
</linearGradient>
<linearGradient id="paint3_linear" x1="10" y1="34" x2="10" y2="-9" gradientUnits="userSpaceOnUse">
<stop stop-color="white"/>
<stop offset="1" stop-color="#72CCFF"/>
</linearGradient>
</defs>
</svg>
