<svg width="24" height="24" viewBox="0 0 24 24" fill="none" xmlns="http://www.w3.org/2000/svg">
<path d="M24 5.9C24 5.8 23.9 5.6 23.8 5.5C23.8 5.5 24.1 5.8 18.5 0.2C18.4 0.1 18.2 0 18 0C17.6 0 2.5 0 2.1 0C0.9 0 0 0.9 0 2.1V21.9C0 23.1 0.9 24 2.1 24H21.9C23.1 24 24 23.1 24 21.9C24 4.8 24 6 24 5.9ZM16.2 1.4V6C16.2 6.4 15.9 6.7 15.5 6.7H14.6V1.4H16.2ZM13.2 1.4V6.7H6.7C6.3 6.7 6 6.4 6 6V1.4H13.2ZM16.2 15H6V14.1C6 13.7 6.3 13.4 6.7 13.4H15.5C15.9 13.4 16.2 13.7 16.2 14.1V15ZM6 22.6V16.5H16.2V22.6H6ZM22.6 21.9C22.6 22.3 22.3 22.6 21.9 22.6H17.6C17.6 21.7 17.6 15.2 17.6 14.2C17.6 13 16.7 12.1 15.5 12.1H6.7C5.5 12.1 4.6 13 4.6 14.2V22.6H2.1C1.7 22.6 1.4 22.3 1.4 21.9V2.1C1.4 1.7 1.7 1.4 2.1 1.4H4.5V6C4.5 7.2 5.4 8.1 6.6 8.1H15.4C16.6 8.1 17.5 7.2 17.5 6V1.4H17.6L22.5 6.3V21.9H22.6Z" fill="white"/>
</svg>
