<?xml version="1.0" encoding="utf-8"?>
<!-- Svg Vector Icons : http://www.onlinewebfonts.com/icon -->
<!DOCTYPE svg PUBLIC "-//W3C//DTD SVG 1.1//EN" "http://www.w3.org/Graphics/SVG/1.1/DTD/svg11.dtd">
<svg version="1.1" xmlns="http://www.w3.org/2000/svg" xmlns:xlink="http://www.w3.org/1999/xlink" x="0px" y="0px" viewBox="0 0 1000 1000" enable-background="new 0 0 1000 1000" xml:space="preserve">
<metadata> Svg Vector Icons : http://www.onlinewebfonts.com/icon </metadata>
<g><path d="M944.1,606.2l-68.2-39.7c4-23.2,5.9-44.3,5.9-64.6s-1.9-41.4-5.9-64.6l68.2-39.7c33.5-19.5,45-62.8,25.7-96.5l-62.3-108.8C895,170.6,871.7,157,846.7,157c-12.3,0-24.4,3.3-35.1,9.5l-74.4,40.1c-34.3-28.7-91.3-50.6-115.6-65.2V61.2c0-39-20.4-51.2-59.1-51.2H437.9c-38.7,0-83.6,12.3-83.6,51.2v80.2c-48.6,14.6-69,36.4-103.3,65.1l-65.5-40.1c-10.7-6.2-21.1-9.5-33.4-9.5c-25,0-47.5,13.6-60,35.3L30.2,301.1c-19.3,33.7-7.6,77,25.9,96.5l68.3,39.7c-4,23.2-5.9,44.3-5.9,64.6s2,41.4,5.9,64.6l-68.2,39.7c-33.5,19.5-45,62.8-25.7,96.5l62.3,108.8c12.5,21.8,35.8,35.3,60.8,35.3c12.3,0,24.4-3.3,35.1-9.5l62.2-40.1c34.4,28.7,54.7,50.6,103.3,65.2v47.8c0,39,14.2,79.8,66.8,79.8h141.4c38.7,0,59.1-40.9,59.1-79.8v-47.8c24.3-14.5,81.2-36.4,115.6-65.1l71.7,40.1c10.7,6.2,24.2,9.5,36.4,9.5c25,0,49-13.6,61.5-35.3l62.6-108.8C988.7,668.9,977.6,625.6,944.1,606.2z M427,801.3c-63.7-13-115-46.8-158.6-96.4l-2-4.8l-91,53.6c-10.8,6.3-25.1,2.2-31.2-8.6l-30.9-54.4c-6.5-11.3-2.5-25.7,8.7-32.2l92.5-53.8l-2-6.1c-10.7-32.3-16.1-64.9-16.1-96.7c0-31.8,5.4-64.4,16.2-96.7l2-6.1l-92.4-53.8c-11.1-6.5-15-21-8.5-32.2l31.1-54.4c6.2-10.8,21.1-14.9,31.8-8.6l92.1,53.6l4.3-4.8c43.6-49.5,90.4-83.4,154.1-96.5l0-1.9V95.6c0-14.9,20.4-12.8,33.3-12.8h70.9c12.8,0,17.3,3,17.3,16v101.7l9.2,1.3c63.7,13,124.3,47.5,167.9,97.1l5,4.8l92.5-53.6c10.8-6.3,25.8-2.1,32,8.6l31.2,54.4c6.4,11.3,2.7,25.7-8.5,32.2l-92.4,53.8l2,6.1c10.7,32.4,16.2,64.9,16.2,96.7c0,31.8-5.4,64.4-16.1,96.7l-2,6.1l92.4,53.8c11.1,6.5,15,20.9,8.5,32.2l-31.1,54.4c-6.2,10.8-21.1,14.8-31.8,8.6l-92.1-53.6l-4.3,4.8c-43.6,49.5-105.6,84-169.4,97.1l-9.3,1.3v75.5c0,15.4,2,38.4-21.3,38.4l-75.9-0.2c-26.9,0-24.3-17.9-24.3-38.2v-75.5L427,801.3z"/><path d="M663.6,500c0-90.9-73.4-164.9-163.6-164.9c-90.2,0-163.6,74-163.6,164.9c0,90.9,73.4,164.9,163.6,164.9C590.2,664.9,663.6,590.9,663.6,500z M500,413.6c47.2,0,85.6,38.7,85.6,86.4c0,47.6-38.4,86.4-85.6,86.4c-47.2,0-85.6-38.7-85.6-86.4C414.4,452.4,452.8,413.6,500,413.6z"/></g>
</svg>