<svg width="20" height="18" viewBox="0 0 20 18" fill="none" xmlns="http://www.w3.org/2000/svg">
<path d="M17.6992 10C18.3992 10.3 19.1992 10.6 19.8992 10.7C19.1992 10.6 18.4992 10.3 17.6992 10Z" fill="#DD3030"/>
<path d="M19.7996 15.5L11.2996 0.8C10.9996 0.3 10.4996 0 9.99961 0C9.49961 0 8.99961 0.3 8.69961 0.8L0.199609 15.5C-0.100391 16 -0.100391 16.5 0.199609 17C0.499609 17.5 0.999609 17.8 1.49961 17.8H18.4996C18.9996 17.8 19.4996 17.5 19.7996 17C20.0996 16.5 20.0996 15.9 19.7996 15.5ZM18.4996 16.3H1.49961C1.49961 16.3 1.39961 16.3 1.39961 16.2C1.39961 16.1 1.39961 16.1 1.39961 16.1L9.89961 1.5C9.89961 1.5 9.89961 1.4 9.99961 1.4C10.0996 1.4 10.0996 1.4 10.0996 1.5L18.5996 16.2C18.5996 16.2 18.5996 16.2 18.4996 16.3Z" fill="#DD3030"/>
<path d="M10.6998 5.2998H9.2998V11.6998H10.6998V5.2998Z" fill="#DD3030"/>
<path d="M9.99961 14.4001C10.4967 14.4001 10.8996 13.9972 10.8996 13.5001C10.8996 13.003 10.4967 12.6001 9.99961 12.6001C9.50255 12.6001 9.09961 13.003 9.09961 13.5001C9.09961 13.9972 9.50255 14.4001 9.99961 14.4001Z" fill="#DD3030"/>
</svg>
