<svg width="16" height="16" viewBox="0 0 16 16" fill="none" xmlns="http://www.w3.org/2000/svg">
<path d="M3.6 8.90005C3.3 9.20005 3.3 9.60005 3.6 9.90005C3.9 10.2 4.3 10.2 4.6 9.90005L8 6.60005L11.4 10C11.7 10.3 12.1 10.3 12.4 10C12.5 9.90005 12.6 9.70005 12.6 9.50005C12.6 9.30005 12.5 9.10005 12.4 9.00005L8.5 5.10005C8.4 4.90005 8.2 4.80005 8 4.80005C7.8 4.80005 7.6 4.90005 7.5 5.00005L3.6 8.90005Z" fill="white"/>
<path d="M0 8C0 12.4 3.6 16 8 16C12.4 16 16 12.4 16 8C16 3.6 12.4 0 8 0C3.6 0 0 3.6 0 8ZM14.5 8C14.5 11.6 11.6 14.5 8 14.5C4.4 14.5 1.5 11.6 1.5 8C1.5 4.4 4.4 1.5 8 1.5C11.6 1.5 14.5 4.4 14.5 8Z" fill="white"/>
</svg>
