<svg width="20" height="20" viewBox="0 0 20 20" fill="none" xmlns="http://www.w3.org/2000/svg">
<path d="M19.5005 6.80015C17.9005 2.20015 13.7005 -0.499853 8.70048 0.000146843C6.40048 0.200147 4.40048 1.20015 2.70048 3.00015C1.70048 4.10015 0.900481 5.40015 0.500481 6.90015C0.000480801 8.50015 -0.0995192 10.0001 0.100481 11.5001C1.00048 16.5001 5.00048 20.0001 10.1005 20.0001C10.2005 20.0001 10.4005 20.0001 10.5005 20.0001C11.9005 19.9001 13.3005 19.6001 14.6005 18.9001C14.8005 18.8001 15.0005 18.6001 15.1005 18.3001C15.2005 18.1001 15.1005 17.9001 15.0005 17.7001C14.8005 17.3001 14.3005 17.2001 13.8005 17.4001C13.7005 17.4001 13.6005 17.5001 13.5005 17.5001L13.4005 17.6001C12.5005 18.0001 11.5005 18.3001 10.4005 18.4001C7.90048 18.5001 5.50048 17.6001 3.80048 15.8001C2.30048 13.9001 1.50048 11.5001 1.80048 9.00015C2.30048 4.90015 5.70048 1.80015 9.90048 1.70015C12.4005 1.60015 14.8005 2.70015 16.4005 4.60015C18.0005 6.50015 18.7005 9.10015 18.1005 11.6001C18.0005 12.2001 18.2005 12.7001 18.8005 12.8001C19.0005 12.9001 19.3005 12.8001 19.4005 12.7001C19.6005 12.6001 19.8005 12.3001 19.8005 12.0001C20.0005 11.2001 20.0005 10.6001 20.0005 10.0001C20.0005 8.80015 19.9005 7.80015 19.5005 6.80015Z" fill="#FFC000"/>
<path d="M9.60067 10.2C8.60067 10.9 7.60067 11.5 6.60067 12.2C6.00067 12.6 6.00067 13.2 6.20067 13.5C6.30067 13.7 6.50067 13.8 6.70067 13.9C6.80067 13.9 6.80067 13.9 6.90067 13.9C7.10067 13.9 7.30067 13.8 7.50067 13.7C8.10067 13.3 8.60067 13 9.20067 12.6C9.80067 12.2 10.4007 11.8 10.9007 11.4C11.3007 11.2 11.4007 10.8 11.4007 10.4C11.4007 9.69996 11.4007 9.09996 11.4007 8.39996V7.59996V6.79996C11.4007 6.09996 11.4007 5.39996 11.4007 4.59996C11.4007 4.39996 11.4007 3.99996 11.0007 3.79996C10.7007 3.59996 10.4007 3.59996 10.1007 3.69996C9.90067 3.89996 9.80067 4.19996 9.80067 4.59996C9.80067 5.39996 9.80067 6.09996 9.80067 6.89996C9.80067 7.89996 9.80067 8.89996 9.80067 9.89996C9.80067 10.1 9.70067 10.2 9.60067 10.2Z" fill="#FFC000"/>
<path d="M17.6004 13.6C17.6004 13.1 17.6004 12.5 17.6004 12C17.6004 11.7 17.5004 11.4 17.3004 11.2C17.1004 11 16.9004 11 16.7004 11C16.2004 11 15.9004 11.4 15.9004 12C15.9004 13.5 15.9004 15.1 15.9004 16.6C15.9004 17.2 16.2004 17.6 16.7004 17.6C17.0004 17.6 17.2004 17.5 17.3004 17.3C17.4004 17.1 17.5004 16.9 17.5004 16.6C17.5004 16.1 17.5004 15.5 17.5004 15V14.1L17.6004 13.6Z" fill="#FFC000"/>
<path d="M16.7008 18.3003C16.2008 18.3003 15.8008 18.7003 15.8008 19.1003C15.8008 19.3003 15.9008 19.6003 16.1008 19.7003C16.3008 19.9003 16.5008 20.0003 16.7008 20.0003C17.2008 20.0003 17.5008 19.6003 17.5008 19.1003C17.6008 18.7003 17.2008 18.3003 16.7008 18.3003Z" fill="#FFC000"/>
</svg>
