<svg width="20" height="20" viewBox="0 0 20 20" fill="none" xmlns="http://www.w3.org/2000/svg">
<path d="M11.9004 0.100098C12.7004 0.200098 13.4004 0.500098 14.1004 0.800098C13.4004 0.500098 12.7004 0.300098 11.9004 0.100098Z" fill="#617882"/>
<path d="M17.1 2.9C15.2 1 12.7 0 10 0C7.3 0 4.8 1 2.9 2.9C1 4.8 0 7.3 0 10C0 12.7 1 15.2 2.9 17.1C4.8 19 7.3 20 10 20C12.7 20 15.2 19 17.1 17.1C19 15.2 20 12.7 20 10C20 7.3 19 4.8 17.1 2.9ZM10 18.4C5.3 18.4 1.6 14.6 1.6 10C1.6 5.4 5.3 1.6 10 1.6C14.7 1.6 18.4 5.4 18.4 10C18.4 14.6 14.7 18.4 10 18.4Z" fill="#617882"/>
<path d="M8.10039 19.9002C7.30039 19.8002 6.60039 19.5002 5.90039 19.2002C6.60039 19.5002 7.30039 19.7002 8.10039 19.9002Z" fill="#617882"/>
<path d="M11.7004 6.2998C11.3004 6.2998 10.9004 6.5998 10.9004 7.0998V12.9998C10.9004 13.3998 11.2004 13.7998 11.7004 13.7998C12.1004 13.7998 12.5004 13.4998 12.5004 12.9998V7.0998C12.5004 6.5998 12.1004 6.2998 11.7004 6.2998Z" fill="#617882"/>
<path d="M8.3 6.2998C7.9 6.2998 7.5 6.5998 7.5 7.0998V12.9998C7.5 13.3998 7.8 13.7998 8.3 13.7998C8.7 13.7998 9.1 13.4998 9.1 12.9998V7.0998C9.1 6.5998 8.8 6.2998 8.3 6.2998Z" fill="#617882"/>
</svg>
