<svg width="32" height="32" viewBox="0 0 32 32" fill="none" xmlns="http://www.w3.org/2000/svg">
<path d="M31.6999 4.4C28.6999 -0.399998 24.7999 -1.3 20.5999 1.6C17.7999 -0.499998 13.9999 -0.499998 11.1999 1.6C7.0999 -1.2 3.0999 -0.399998 0.0999014 4.4C-0.100099 4.8 -9.85563e-05 5.3 0.299901 5.6L4.2999 9.1C4.6999 9.5 5.2999 9.4 5.6999 9C5.6999 9 6.3999 8 7.4999 7.4C7.6999 7.3 7.8999 7.2 8.0999 7.1C7.8999 8.8 8.2999 10.5 9.0999 11.9L4.0999 15.7C2.7999 16.7 2.4999 18.5 3.4999 19.8C4.4999 21.1 6.2999 21.4 7.5999 20.4L8.0999 20L6.5999 25.7C6.3999 26.3 6.8999 26.9 7.4999 26.9H8.9999V29C8.9999 30.6 10.2999 31.9 11.8999 31.9C13.4999 31.9 14.7999 30.6 14.7999 29V26.9H16.9999V29C16.9999 30.6 18.2999 31.9 19.8999 31.9C21.4999 31.9 22.7999 30.6 22.7999 29V26.9H24.3999C24.9999 26.9 25.4999 26.3 25.2999 25.7L23.7999 20L24.2999 20.4C24.8999 20.9 25.6999 21.1 26.4999 21C28.0999 20.8 29.1999 19.3 28.9999 17.7C28.8999 16.9 28.4999 16.2 27.8999 15.8L22.8999 12C23.6999 10.5 24.0999 8.8 23.8999 7.2C24.0999 7.3 24.2999 7.4 24.4999 7.5C25.4999 8 26.1999 9 26.1999 9C26.4999 9.4 27.1999 9.5 27.5999 9.1L31.5999 5.6C31.8999 5.3 31.9999 4.8 31.6999 4.4ZM15.8999 1.9C18.2999 1.9 20.3999 3.3 21.3999 5.3C18.9999 6 17.8999 5.7 17.3999 5.4C16.9999 5.3 16.8999 5 16.8999 5C16.8999 4.5 16.4999 4.1 15.9999 4.1C15.3999 4.1 14.9999 4.5 14.9999 5C14.9999 5 14.8999 5.3 14.4999 5.5C13.9999 5.8 12.8999 6.1 10.4999 5.4C11.4999 3.3 13.4999 1.9 15.8999 1.9ZM9.8999 7.2C11.7999 7.8 14.3999 8.1 15.8999 6.8C17.3999 8.1 19.9999 7.8 21.8999 7.2C22.3999 10.9 19.5999 14.1 15.8999 14.1C12.2999 14.1 9.3999 10.8 9.8999 7.2ZM8.5999 5C7.0999 5.2 5.8999 6 4.8999 7.1L2.1999 4.8C4.2999 1.8 6.6999 1 9.8999 3C9.2999 3.6 8.8999 4.3 8.5999 5ZM6.3999 18.9C5.8999 19.3 5.2999 19.2 4.8999 18.7C4.4999 18.2 4.5999 17.6 5.0999 17.2L9.6999 13.7L8.7999 17L6.3999 18.9ZM12.9999 29.1C12.9999 29.7 12.4999 30.2 11.8999 30.2C11.2999 30.2 10.7999 29.7 10.7999 29.1V27H12.9999V29.1ZM20.9999 29.1C20.9999 29.7 20.4999 30.2 19.8999 30.2C19.2999 30.2 18.7999 29.7 18.7999 29.1V27H20.9999V29.1ZM8.6999 25.1L11.4999 14.6C14.1999 16.4 17.6999 16.5 20.4999 14.6L23.2999 25.1H8.6999ZM26.6999 17.2C27.1999 17.6 27.2999 18.2 26.8999 18.7C26.4999 19.2 25.8999 19.3 25.3999 18.9L22.9999 17.1L22.0999 13.8L26.6999 17.2ZM26.9999 7.1C25.9999 6 24.7999 5.2 23.2999 5C22.9999 4.3 22.5999 3.6 22.0999 3C24.9999 1.2 27.4999 1.6 29.7999 4.8L26.9999 7.1Z" fill="white"/>
</svg>
