<svg width="32" height="27" viewBox="0 0 32 27" fill="none" xmlns="http://www.w3.org/2000/svg">
<path d="M27.3 14H24.2C23.8 14 23.4 14.1 23 14.2C22.2 12.7 20.6 11.6 18.8 11.6H13.3C11.5 11.6 9.9 12.6 9.1 14.2C8.7 14.1 8.2 14 7.8 14H4.7C2.1 14 0 16.1 0 18.7V23.7C0 25.3 1.3 26.5 2.8 26.5H29.2C30.8 26.5 32 25.2 32 23.7V18.7C32 16.1 29.9 14 27.3 14ZM30.1 23.7C30.1 24.2 29.7 24.6 29.2 24.6H23.5V16.3C23.5 16.2 23.5 16.1 23.5 16C23.7 15.9 24 15.9 24.2 15.9H27.3C28.9 15.9 30.1 17.2 30.1 18.7V23.7ZM2.8 24.7C2.3 24.7 1.9 24.3 1.9 23.8V18.8C1.9 17.2 3.2 16 4.7 16H7.8C8.1 16 8.3 16 8.5 16.1C8.5 16.2 8.5 16.3 8.5 16.4V24.7H2.8ZM13.2 13.5H18.7C20.3 13.5 21.5 14.8 21.5 16.3V24.6H10.4V16.3C10.4 14.8 11.7 13.5 13.2 13.5Z" fill="#015E99"/>
<path d="M6.29998 13.5C8.59998 13.5 10.5 11.6 10.5 9.3C10.5 7 8.59998 5.2 6.29998 5.2C3.99998 5.2 2.09998 7 2.09998 9.3C2.09998 11.6 3.99998 13.5 6.29998 13.5ZM8.49998 9.3C8.49998 10.6 7.49998 11.6 6.19998 11.6C4.89998 11.6 3.99998 10.6 3.99998 9.3C3.99998 8 4.99998 7 6.29998 7C7.59998 7 8.49998 8.1 8.49998 9.3Z" fill="#015E99"/>
<path d="M16 11.1C19.1 11.1 21.6 8.6 21.6 5.5C21.6 2.4 19.1 0 16 0C12.9 0 10.4 2.5 10.4 5.6C10.4 8.7 12.9 11.1 16 11.1ZM16 1.9C18 1.9 19.7 3.6 19.7 5.6C19.7 7.6 18 9.3 16 9.3C14 9.3 12.3 7.6 12.3 5.6C12.3 3.5 14 1.9 16 1.9Z" fill="#015E99"/>
<path d="M25.7 13.5C28 13.5 29.9 11.6 29.9 9.3C29.9 7 28 5.2 25.7 5.2C23.4 5.2 21.5 7.1 21.5 9.4C21.6 11.6 23.4 13.5 25.7 13.5ZM25.7 7C27 7 28 8.1 28 9.3C28 10.5 27 11.6 25.7 11.6C24.4 11.6 23.4 10.6 23.4 9.3C23.5 8.1 24.5 7 25.7 7Z" fill="#015E99"/>
</svg>
