<svg width="29" height="24" viewBox="0 0 29 24" fill="none" xmlns="http://www.w3.org/2000/svg">
<g clip-path="url(#clip0)">
<path d="M28.4 8.2C28.1 7.7 27.5 7.4 26.8 7.4H24.3V4.7C24.3 3.6 23.4 2.8 22.4 2.8H13.5C13.1 2.8 12.5 2.5 12.3 2.2L11.6 1.3C11.1 0.5 10.1 0 9.2 0H6.1C5.1 0 4.2 0.7 3.8 1.6L3.6 2.2C3.5 2.5 3.1 2.8 2.8 2.8H1.9C0.9 2.8 0 3.6 0 4.7V22C0 22.1 0 22.2 0 22.3C0 22.6 0.1 23 0.3 23.2C0.7 23.7 1.3 24 1.9 24H21.5C22.7 24 23.9 23.1 24.3 22L28.5 9.9C28.8 9.3 28.7 8.7 28.4 8.2ZM1.9 4.3H2.8C3.8 4.3 4.7 3.6 5.1 2.7L5.3 2.1C5.4 1.8 5.8 1.5 6.1 1.5H9.2C9.6 1.5 10.2 1.8 10.4 2.1L11 3.1C11.5 3.8 12.6 4.3 13.4 4.3H22.3C22.5 4.3 22.7 4.5 22.7 4.7V7.5H7.2C6 7.5 4.8 8.4 4.4 9.5L1.6 17.6V4.7C1.6 4.5 1.7 4.3 1.9 4.3ZM27.1 9.4L22.9 21.5C22.7 22 22.1 22.4 21.6 22.4H1.9C1.7 22.4 1.6 22.4 1.6 22.3C1.6 22.2 1.6 22.1 1.6 22L5.9 9.9C6 9.4 6.7 9 7.2 9H26.8C27 9 27.1 9 27.1 9.1C27.2 9.2 27.1 9.3 27.1 9.4Z" fill="white"/>
</g>
<defs>
<clipPath id="clip0">
<rect width="28.7" height="24" fill="white"/>
</clipPath>
</defs>
</svg>
