<svg width="17" height="12" viewBox="0 0 17 12" fill="none" xmlns="http://www.w3.org/2000/svg">
<path d="M16.421 5.6999C16.3184 5.4999 12.8294 0.899902 8.31419 0.899902C3.9016 0.899902 0.309953 5.4999 0.207335 5.6999C0.104716 5.8999 0.104716 6.0999 0.207335 6.2999C0.309953 6.4999 3.79898 11.0999 8.31419 11.0999C12.7268 11.0999 16.3184 6.4999 16.421 6.2999C16.5237 6.0999 16.5237 5.8999 16.421 5.6999ZM8.31419 9.1999C6.56968 9.1999 5.0304 7.7999 5.0304 5.9999C5.0304 4.1999 6.46706 2.7999 8.31419 2.7999C10.1613 2.7999 11.598 4.1999 11.598 5.9999C11.598 7.7999 10.0587 9.1999 8.31419 9.1999Z" fill="white"/>
<path d="M8.31425 8.1998C9.56109 8.1998 10.5718 7.21483 10.5718 5.9998C10.5718 4.78478 9.56109 3.7998 8.31425 3.7998C7.0674 3.7998 6.05664 4.78478 6.05664 5.9998C6.05664 7.21483 7.0674 8.1998 8.31425 8.1998Z" fill="white"/>
</svg>
