<svg width="20" height="20" viewBox="0 0 20 20" fill="none" xmlns="http://www.w3.org/2000/svg">
<path d="M13.0998 14.8C12.8998 14.8 12.6998 14.7 12.4998 14.5L9.3998 10.5C9.2998 10.4 9.2998 10.2 9.2998 10.1V4.5C9.2998 4.1 9.5998 3.8 9.9998 3.8C10.3998 3.8 10.6998 4.1 10.6998 4.5V9.7L13.5998 13.6C13.7998 13.9 13.7998 14.4 13.4998 14.6C13.3998 14.7 13.1998 14.8 13.0998 14.8Z" fill="#617882"/>
<path d="M10 20C4.5 20 0 15.5 0 10C0 4.5 4.5 0 10 0C15.5 0 20 4.5 20 10C20 15.5 15.5 20 10 20ZM10 1.4C5.3 1.4 1.4 5.2 1.4 10C1.4 14.8 5.2 18.6 10 18.6C14.8 18.6 18.6 14.8 18.6 10C18.6 5.2 14.7 1.4 10 1.4Z" fill="#617882"/>
</svg>
