<svg width="32" height="32" viewBox="0 0 32 32" fill="none" xmlns="http://www.w3.org/2000/svg">
<path d="M26.7998 8.5C23.5998 6.1 19.8998 4.9 15.9998 4.9C12.0998 4.9 8.2998 6.1 5.0998 8.5C4.8998 8.6 4.7998 8.8 4.7998 9.1C4.7998 9.3 4.7998 9.6 4.9998 9.8L9.8998 16.4C10.0998 16.6 10.3998 16.8 10.6998 16.8C10.8998 16.8 11.0998 16.7 11.2998 16.6C12.6998 15.6 14.2998 15 15.9998 15C17.6998 15 19.3998 15.5 20.6998 16.6C21.0998 16.9 21.6998 16.8 21.9998 16.4L26.9998 9.8C27.0998 9.6 27.1998 9.4 27.1998 9.1C27.0998 8.9 26.9998 8.6 26.7998 8.5ZM20.9998 14.5C19.6998 13.7 18.2998 13.3 16.7998 13.1V10.2C16.7998 9.7 16.3998 9.3 15.8998 9.3C15.3998 9.3 14.9998 9.8 14.9998 10.3V13.2C13.4998 13.3 12.0998 13.8 10.7998 14.6L6.9998 9.4C9.5998 7.6 12.6998 6.7 15.8998 6.7C19.0998 6.7 22.1998 7.6 24.7998 9.4L20.9998 14.5Z" fill="white"/>
<path d="M25.6 1.8C28.1 1.8 30.1 3.8 30.1 6.3V25.7C30.1 28.2 28.1 30.2 25.6 30.2H6.3C3.8 30.2 1.8 28.2 1.8 25.7V6.3C1.8 3.8 3.8 1.8 6.3 1.8H25.6ZM25.6 0H6.3C2.8 0 0 2.8 0 6.3V25.7C0 29.2 2.8 32 6.3 32H25.6C29.1 32 31.9 29.2 31.9 25.7V6.3C31.9 2.8 29.1 0 25.6 0Z" fill="white"/>
</svg>
