<?xml version="1.0" encoding="utf-8"?>
<!-- Svg Vector Icons : http://www.onlinewebfonts.com/icon -->
<!DOCTYPE svg PUBLIC "-//W3C//DTD SVG 1.1//EN" "http://www.w3.org/Graphics/SVG/1.1/DTD/svg11.dtd">
<svg version="1.1" xmlns="http://www.w3.org/2000/svg" xmlns:xlink="http://www.w3.org/1999/xlink" x="0px" y="0px" viewBox="0 0 1000 1000" enable-background="new 0 0 1000 1000" xml:space="preserve">
<metadata> Svg Vector Icons : http://www.onlinewebfonts.com/icon </metadata>
<g><path d="M133.3,639.6c0,4.4,3.5,7,3.5,7l348.3,335.2c0,0,8.3,8.2,14.8,8.2c6.1,0,15-8.4,15-8.4l348.5-335.3c0,0,3.4-3.4,3.3-6.3c-0.1-2.9-3.3-6.9-3.3-6.9l-30.7-32.6c0,0-2.7-3.6-6.3-3.6c-3.2,0-7,3.6-7,3.6L532.7,878.1V26.4c0-9.1-7.3-16.4-16.4-16.4h-32.8c-9,0-16.4,7.3-16.4,16.4v851.9L180.2,600.2c0,0-3.2-3.8-6.9-3.8c-3.7,0.1-6.5,3.7-6.5,3.7l-30,32.5C136.8,632.7,133.3,635.1,133.3,639.6"/></g>
</svg>