<svg width="22" height="18" viewBox="0 0 22 18" fill="none" xmlns="http://www.w3.org/2000/svg">
<path d="M20.7996 15.5L12.2996 0.8C11.9996 0.3 11.4996 0 10.9996 0C10.4996 0 9.99961 0.3 9.69961 0.8L1.19961 15.5C0.899609 16 0.899609 16.5 1.19961 17C1.49961 17.5 1.99961 17.8 2.49961 17.8H19.4996C19.9996 17.8 20.4996 17.5 20.7996 17C21.0996 16.5 21.0996 15.9 20.7996 15.5ZM19.4996 16.3H2.49961C2.49961 16.3 2.39961 16.3 2.39961 16.2C2.39961 16.1 2.39961 16.1 2.39961 16.1L10.8996 1.5C10.8996 1.5 10.8996 1.4 10.9996 1.4C11.0996 1.4 11.0996 1.4 11.0996 1.5L19.5996 16.2C19.5996 16.2 19.5996 16.2 19.4996 16.3Z" fill="white"/>
<path d="M11.6998 5.2998H10.2998V11.6998H11.6998V5.2998Z" fill="white"/>
<path d="M10.9996 14.3996C11.4967 14.3996 11.8996 13.9967 11.8996 13.4996C11.8996 13.0026 11.4967 12.5996 10.9996 12.5996C10.5026 12.5996 10.0996 13.0026 10.0996 13.4996C10.0996 13.9967 10.5026 14.3996 10.9996 14.3996Z" fill="white"/>
</svg>
