<svg width="21" height="21" viewBox="0 0 21 21" fill="none" xmlns="http://www.w3.org/2000/svg">
<path d="M17.1 3.89961C13.2 -0.00039053 6.8 -0.00039053 2.9 3.89961C1 5.79961 0 8.29961 0 10.9996C0 13.6996 1 16.1996 2.9 18.0996C4.9 20.0996 7.4 20.9996 10 20.9996C12.6 20.9996 15.1 19.9996 17.1 18.0996C21 14.1996 21 7.79961 17.1 3.89961ZM16 16.9996C12.7 20.2996 7.3 20.2996 4 16.9996C2.4 15.3996 1.5 13.2996 1.5 10.9996C1.5 8.69961 2.4 6.59961 4 4.99961C7.3 1.69961 12.7 1.69961 16 4.99961C19.3 8.29961 19.3 13.6996 16 16.9996Z" fill="white"/>
<path d="M13.3002 7.69961C13.0002 7.39961 12.5002 7.39961 12.2002 7.69961L10.0002 9.89961L7.9002 7.69961C7.6002 7.39961 7.1002 7.39961 6.8002 7.69961C6.5002 7.99961 6.5002 8.49961 6.8002 8.79961L9.0002 10.9996L6.8002 13.1996C6.5002 13.4996 6.5002 13.9996 6.8002 14.2996C7.0002 14.4996 7.2002 14.4996 7.3002 14.4996C7.4002 14.4996 7.7002 14.3996 7.8002 14.2996L10.0002 12.0996L12.2002 14.2996C12.4002 14.4996 12.5002 14.4996 12.7002 14.4996C12.9002 14.4996 13.1002 14.3996 13.2002 14.2996C13.5002 13.9996 13.5002 13.4996 13.2002 13.1996L11.2002 10.9996L13.4002 8.79961C13.6002 8.49961 13.6002 7.99961 13.3002 7.69961Z" fill="white"/>
</svg>
