<svg width="980" height="914" viewBox="0 0 980 914" fill="none" xmlns="http://www.w3.org/2000/svg">
<path d="M894.3 0.799988H85.7C38.4 0.799988 0 38.6 0 85.3C0 132 38.3 169.8 85.7 169.8H894.2C941.5 169.8 979.9 132 979.9 85.3C980 38.6 941.6 0.799988 894.3 0.799988ZM894.3 744.2H85.7C38.3 744.2 0 782 0 828.7C0 875.4 38.3 913.2 85.7 913.2H894.2C941.5 913.2 979.9 875.4 979.9 828.7C980 782.1 941.6 744.2 894.3 744.2ZM891.3 372.5H88.7C39.7 372.5 0 410.3 0 457C0 503.7 39.7 541.5 88.7 541.5H891.3C940.3 541.5 980 503.7 980 457C980 410.3 940.3 372.5 891.3 372.5Z" fill="white"/>
</svg>
