<svg width="24" height="16" viewBox="0 0 24 16" fill="none" xmlns="http://www.w3.org/2000/svg">
<g clip-path="url(#clip0)">
<path d="M23.8 7.00017C23.9 7.20017 24 7.40017 24 7.60017C24 7.80017 23.9 8.00017 23.8 8.20017L17 14.9002C16.7 15.2002 16.1 15.2002 15.8 14.9002C15.5 14.6002 15.5 14.0002 15.8 13.7002L21.1 8.40017H0.799999C0.299999 8.40017 0 8.00017 0 7.60017C0 7.10017 0.399999 6.80017 0.799999 6.80017H21.1L15.8 1.50017C15.5 1.20017 15.5 0.600172 15.8 0.300172C16.2 -0.099828 16.7 -0.099828 17 0.200172L23.8 7.00017Z" fill="white"/>
</g>
<defs>
<clipPath id="clip0">
<rect width="24" height="15.14" fill="white"/>
</clipPath>
</defs>
</svg>
