
<!-- Generator: Adobe Illustrator 19.2.1, SVG Export Plug-In . SVG Version: 6.00 Build 0)  -->
<svg  xmlns="http://www.w3.org/2000/svg"  fill="none"  width="19" height="24" viewBox="0 0 19 24" >
<!-- <path  d="M73,33H30v-6.9C30,15.9,36.5,9,45.8,9c6.8,0,12.2,3.5,14.5,9.7c0.8,2.1,3.1,3.1,5.2,2.3
	c2.1-0.8,3.1-3.1,2.3-5.2C64.4,6.6,56,1,45.8,1C31.9,1,22,11.3,22,26.1V33h-3c-2.2,0-4,1.8-4,4v50c0,2.2,1.8,4,4,4h54
	c2.2,0,4-1.8,4-4V37C77,34.8,75.2,33,73,33z M69,83H23V41h46V83z" fill="white"/> -->
	<path d="M16.5 1.47663C16.9 1.47663 17.3 1.87039 17.3 2.26416V21.3619C17.3 21.7556 16.9 22.1494 16.5 22.1494H2.3C1.9 22.1494 1.5 21.7556 1.5 21.3619V2.26416C1.5 1.87039 1.9 1.47663 2.3 1.47663H16.5ZM16.5 0H2.3C0.999999 0 0 0.984418 0 2.26416V21.3619C0 22.6416 0.999999 23.626 2.3 23.626H16.5C17.8 23.626 18.8 22.6416 18.8 21.3619V2.26416C18.8 0.984418 17.8 0 16.5 0Z" fill="white"/>
<path d="M12.4001 4.13493H6.6001C6.0001 4.13493 5.6001 3.64272 5.6001 3.05207V0.886353H7.1001V2.65831H12.0001V0.984794H13.5001V3.15051C13.5001 3.64272 13.0001 4.13493 12.4001 4.13493Z" fill="white"/>
<path d="M10 12.3052C9.60005 12.3052 9.40005 12.0099 9.30005 11.7146L8.50005 8.85976L8.10005 9.54886C8.00005 9.74574 7.70005 9.94262 7.50005 9.94262H5.10005C4.70005 9.94262 4.30005 9.6473 4.30005 9.15509C4.30005 8.66288 4.60005 8.36756 5.10005 8.36756H7.00005L8.10005 6.49716C8.30005 6.20184 8.50005 6.10339 8.80005 6.10339C9.10005 6.10339 9.30005 6.39872 9.40005 6.5956L10.2 9.45042L10.7 8.85976C10.8 8.66288 11.1 8.466 11.4 8.466H13.9C14.3 8.466 14.7 8.76132 14.7 9.25353C14.7 9.74574 14.4 10.0411 13.9 10.0411H11.9L10.8 12.0099C10.5 12.1083 10.3 12.3052 10 12.3052Z" fill="white"/>
<path d="M15 16.7351H3.8C3.4 16.7351 3 16.4398 3 15.9476C3 15.4554 3.3 15.16 3.8 15.16H15C15.4 15.16 15.8 15.4554 15.8 15.9476C15.8 16.4398 15.4 16.7351 15 16.7351Z" fill="white"/>
<path d="M15 19.4914H3.8C3.4 19.4914 3 19.1961 3 18.7039C3 18.2117 3.3 17.9164 3.8 17.9164H15C15.4 17.9164 15.8 18.2117 15.8 18.7039C15.8 19.1961 15.4 19.4914 15 19.4914Z" fill="white"/>
</svg>
