<?xml version="1.0" encoding="utf-8"?>
<!-- Generator: Adobe Illustrator 22.0.1, SVG Export Plug-In . SVG Version: 6.00 Build 0)  -->
<svg version="1.1" id="Layer_1" xmlns="http://www.w3.org/2000/svg" xmlns:xlink="http://www.w3.org/1999/xlink" x="0px" y="0px"
	 viewBox="0 0 64.7 25.3" style="enable-background:new 0 0 64.7 25.3;" xml:space="preserve">
<style type="text/css">
	.st0{fill:url(#SVGID_1_);}
	.st1{fill:#F4912E;}
	.st2{fill:#E9215A;}
	.st3{fill:#606161;}
	.st4{fill:#B1B3B6;}
	.st5{opacity:0.2;}
	.st6{fill:#96CA4F;}
	.st7{fill:url(#SVGID_2_);}
	.st8{fill:#E8225B;}
	.st9{fill:#1B959A;}
	.st10{fill:#FFFFFF;}
	.st11{fill:#9EACB5;}
	.st12{fill:url(#SVGID_3_);}
	.st13{opacity:0.35;fill:#9EACB5;}
	.st14{fill:#F68820;}
	.st15{fill:url(#SVGID_4_);}
	.st16{fill:#070808;}
	.st17{fill:none;stroke:#E2E2E2;stroke-miterlimit:10;}
	.st18{fill:url(#SVGID_5_);}
	.st19{fill:url(#SVGID_6_);}
	.st20{fill:url(#SVGID_7_);}
	.st21{fill:url(#SVGID_8_);}
	.st22{fill:url(#SVGID_9_);}
	.st23{fill:url(#SVGID_10_);}
	.st24{fill:none;stroke:#C9C9C9;stroke-miterlimit:10;}
	.st25{fill:url(#SVGID_11_);}
	.st26{fill:url(#SVGID_12_);}
	.st27{fill:url(#SVGID_13_);}
	.st28{fill:url(#SVGID_14_);}
	.st29{fill:url(#SVGID_15_);}
	.st30{fill:url(#SVGID_16_);}
</style>
<g>
	<path class="st10" d="M28.9,11.5c2.2,0,3.9,1.8,3.9,4.3c0,2.6-1.7,4.3-4,4.3c-1,0-1.9-0.4-2.4-1.1h0v4.3h-2.2V11.6h2.2v1h0
		C27,11.9,27.9,11.5,28.9,11.5L28.9,11.5z M30.6,15.8c0-1.4-0.9-2.3-2.1-2.3c-1.3,0-2.2,1-2.2,2.3c0,1.4,0.9,2.3,2.2,2.3
		C29.7,18.1,30.6,17.2,30.6,15.8z"/>
	<path class="st10" d="M42.8,11.6V20h-2.1v-1h0c-0.6,0.7-1.4,1.1-2.5,1.1c-2.3,0-4-1.7-4-4.3c0-2.5,1.7-4.3,3.9-4.3
		c1,0,1.8,0.4,2.4,1.1h0v-0.9H42.8z M40.7,15.8c0-1.3-0.9-2.3-2.1-2.3c-1.2,0-2.1,0.9-2.1,2.3c0,1.3,0.9,2.3,2.1,2.3
		C39.7,18.1,40.7,17.2,40.7,15.8z"/>
	<path class="st10" d="M47.7,20.1c-1.3,0-2.5-0.4-3.4-1.2l1.1-1.5c0.7,0.6,1.4,1,2.3,1c0.6,0,1-0.3,1-0.7c0-0.4-0.4-0.6-1.5-0.9
		c-1.4-0.4-2.6-1.1-2.6-2.7c0-1.5,1.3-2.5,3-2.5c1.2,0,2.1,0.3,3,1l-1.1,1.6c-0.6-0.6-1.4-0.9-2-0.9c-0.4,0-0.8,0.2-0.8,0.6
		c0,0.3,0.4,0.6,1.2,0.9c1.8,0.7,2.9,1.1,2.9,2.7C50.9,19,49.8,20.1,47.7,20.1L47.7,20.1z"/>
	<path class="st10" d="M55.3,20.1c-1.3,0-2.5-0.4-3.4-1.2l1.1-1.5c0.7,0.6,1.4,1,2.3,1c0.6,0,1-0.3,1-0.7c0-0.4-0.4-0.6-1.5-0.9
		c-1.4-0.4-2.6-1.1-2.6-2.7c0-1.5,1.3-2.5,3-2.5c1.2,0,2.1,0.3,3,1l-1.1,1.6c-0.6-0.6-1.4-0.9-2-0.9c-0.4,0-0.8,0.2-0.8,0.6
		c0,0.3,0.4,0.6,1.2,0.9c1.8,0.7,2.9,1.1,2.9,2.7C58.5,19,57.5,20.1,55.3,20.1L55.3,20.1z"/>
</g>
<g>
	<path class="st10" d="M20.1,13l-3.9,2.6c-1,0.6-2.2,0.9-3.4,0.7c0,0,0,0-0.1,0l-3.6,2.4c0.9,0.6,1.8,1,2.9,1.2
		c2.3,0.5,4.6-0.1,6.4-1.4l3.6-2.4L20.1,13z"/>
	<path class="st10" d="M9.3,11.1c0,0,0-0.1,0-0.1c0.2-1.2,1-2.2,1.9-2.8L11.4,8l3.8-2.5l-2-3L9.6,4.9c-1.9,1.1-3.3,3-3.8,5.3
		c-0.2,1.1-0.2,2.2,0,3.2L9.3,11.1z"/>
	<path class="st10" d="M19.3,11.9l1.5-4.8l-4.9-0.4l0.7,1.1L5.3,15.3c-0.4,0.3-0.7,0.7-0.8,1.2c-0.1,0.4,0,0.8,0.1,1.1
		c0,0,0.1,0.2,0.3,0.4c0.3,0.3,0.6,0.5,1,0.6c0.5,0.1,0.8,0.1,1.2-0.1l0.2-0.1l11.3-7.5L19.3,11.9z M5.7,17.3l-0.2-0.3l3.2-2.1
		L9,15.2L5.7,17.3z M10.1,14.4l-0.2-0.3l3.2-2.1l0.2,0.3L10.1,14.4z M14.5,11.6l-0.2-0.3l3.2-2.1l0.2,0.3L14.5,11.6z"/>
</g>
</svg>
