<svg width="16" height="12" viewBox="0 0 16 12" fill="none" xmlns="http://www.w3.org/2000/svg">
<g clip-path="url(#clip0)">
<path d="M4.15466 0.00919377C3.70058 0.0329083 3.23058 0.111412 2.81257 0.234891C2.41789 0.35101 2.02959 0.521101 1.70175 0.720631C1.52988 0.825302 1.19356 1.08534 1.06413 1.21455C0.534716 1.73954 0.205824 2.37247 0.0710834 3.12398C0.00954851 3.4658 0.00848757 3.47725 0.00424378 4.50351L0 5.45455H0.96546H1.93092L1.93517 4.52805C1.9394 3.52467 1.93834 3.53285 2.002 3.24091C2.16539 2.48124 2.62372 1.92925 3.30591 1.67249C3.62101 1.55392 3.95202 1.49912 4.40929 1.49095C4.83261 1.48276 5.14664 1.51302 5.45963 1.59153C6.19168 1.7747 6.70305 2.25635 6.9354 2.98088C7.04043 3.31042 7.07651 3.61216 7.07757 4.17232V4.45689H8.03879H9L8.9947 3.98016C8.9894 3.4756 8.98196 3.37502 8.92255 3.07491C8.71885 2.04374 8.11517 1.19001 7.2208 0.66993C6.38159 0.181737 5.30367 -0.0505015 4.15466 0.00919377Z" fill="white"/>
<path d="M5.41628 4.62087C4.62183 4.69246 3.99392 5.1769 3.88001 5.80455C3.86661 5.87995 3.86566 6.13665 3.86757 8.341L3.87045 10.7937L3.89246 10.8767C3.9719 11.1753 4.15664 11.4365 4.42369 11.6315C4.67255 11.8128 4.95875 11.9255 5.3062 11.9804L5.41149 11.9964L9.57998 11.9994C12.5769 12.001 13.782 11.9994 13.8681 11.9933C14.1773 11.9712 14.4798 11.8837 14.7295 11.7435C14.8473 11.678 15.0608 11.5081 15.143 11.4145C15.3154 11.2202 15.4274 10.9795 15.4561 10.7411C15.4704 10.623 15.4704 5.98811 15.4561 5.87233C15.4005 5.42826 15.0991 5.04437 14.6243 4.81357C14.4482 4.72826 14.2395 4.66581 14.0117 4.63076C13.9236 4.61705 13.7695 4.61629 9.70444 4.61553C7.38518 4.61477 5.45553 4.61705 5.41628 4.62087ZM9.8001 6.92805C10.0634 6.95395 10.2864 7.04077 10.4759 7.19083C10.7104 7.37517 10.8196 7.58463 10.8185 7.8459C10.8176 8.0447 10.7602 8.19399 10.6204 8.36004C10.5563 8.43545 10.407 8.55275 10.3151 8.59997L10.2414 8.63806L10.2404 9.1941C10.2404 9.80422 10.2404 9.80041 10.182 9.89334C10.0825 10.051 9.88433 10.15 9.66804 10.15C9.56371 10.15 9.50437 10.1394 9.40865 10.1028C9.25454 10.0441 9.13203 9.92076 9.09661 9.78746C9.08513 9.74405 9.08225 9.63741 9.08225 9.18648V8.6373L9.02291 8.60606C8.75968 8.4682 8.58165 8.25492 8.52231 8.00737C8.50316 7.92739 8.50316 7.76744 8.52135 7.68213C8.62759 7.20377 9.1952 6.86939 9.8001 6.92805Z" fill="white"/>
</g>
<defs>
<clipPath id="clip0">
<rect width="15.95" height="12" fill="white"/>
</clipPath>
</defs>
</svg>
