<svg width="24" height="24" viewBox="0 0 24 24" fill="none" xmlns="http://www.w3.org/2000/svg">
<path d="M23.3 6.2H21.2V0.7C21.2 0.3 20.9 0 20.5 0H2.5C2.1 0 1.8 0.3 1.8 0.7V6.5H0.7C0.3 6.5 0 6.8 0 7.2V23.3C0 23.7 0.3 24 0.7 24H20.5C22.4 24 24 22.5 24 20.5V6.9C24 6.5 23.7 6.2 23.3 6.2ZM1.4 22.6V7.9H6.5L7.4 9.5C7.5 9.8 7.7 9.9 8 9.9H17.1V20.5C17.1 21.3 17.4 22 17.8 22.6H1.4ZM18.5 20.5V9.2C18.5 8.8 18.2 8.5 17.8 8.5H8.4L7.5 6.9C7.4 6.6 7.1 6.5 6.9 6.5H3.2V1.4H19.9V22.5C19.1 22.2 18.5 21.4 18.5 20.5ZM22.6 20.5C22.6 21.4 22 22.1 21.2 22.4V7.6H22.6V20.5Z" fill="url(#paint0_linear)"/>
<path d="M12.5 14.4H11.2V13C11.2 12.6 10.9 12.3 10.5 12.3H7.8C7.4 12.3 7.1 12.6 7.1 13V14.4H5.7C5.3 14.4 5 14.7 5 15.1V18C5 18.4 5.3 18.7 5.7 18.7H7V20.1C7 20.5 7.3 20.8 7.7 20.8H10.4C10.8 20.8 11.1 20.5 11.1 20.1V18.7H12.4C12.8 18.7 13.1 18.4 13.1 18V15.2C13.2 14.7 12.9 14.4 12.5 14.4ZM11.8 17.2H10.5C10.1 17.2 9.8 17.5 9.8 17.9V19.3H8.5V18C8.5 17.6 8.2 17.3 7.8 17.3H6.4V15.9H7.7C8.1 15.9 8.4 15.6 8.4 15.2V13.8H9.7V15.2C9.7 15.6 10 15.9 10.4 15.9H11.7V17.2H11.8Z" fill="url(#paint1_linear)"/>
<defs>
<linearGradient id="paint0_linear" x1="12" y1="31.4715" x2="12" y2="-9.8632" gradientUnits="userSpaceOnUse">
<stop stop-color="white"/>
<stop offset="1" stop-color="#72CCFF"/>
</linearGradient>
<linearGradient id="paint1_linear" x1="12" y1="31.4715" x2="12" y2="-9.8632" gradientUnits="userSpaceOnUse">
<stop stop-color="white"/>
<stop offset="1" stop-color="#72CCFF"/>
</linearGradient>
</defs>
</svg>
