<svg width="24" height="24" viewBox="0 0 24 24" fill="none" xmlns="http://www.w3.org/2000/svg">
<path d="M23.3 14.2H19.3V12C19.3 11.6 19 11.3 18.6 11.3H12.7V9.8H14.8C15.2 9.8 15.5 9.5 15.5 9.1C15.5 8.7 15.2 8.4 14.8 8.4H14L13.8 7H16.7C17.1 7 17.4 6.7 17.4 6.3V0.7C17.4 0.3 17.1 0 16.7 0H7.3C6.9 0 6.6 0.3 6.6 0.7V6.3C6.6 6.7 6.9 7 7.3 7H10.2L10 8.4H9.2C8.8 8.4 8.5 8.7 8.5 9.1C8.5 9.5 8.8 9.8 9.2 9.8H11.3V11.3H5.4C5 11.3 4.7 11.6 4.7 12V14.1H0.7C0.3 14.1 0 14.4 0 14.8V20.4C0 20.8 0.3 21.1 0.7 21.1H3.6L3.4 22.5H2.6C2.2 22.5 1.9 22.8 1.9 23.2C1.9 23.6 2.2 23.9 2.6 23.9H8.2C8.6 23.9 8.9 23.6 8.9 23.2C8.9 22.8 8.6 22.5 8.2 22.5H7.4L7.2 21.1H10.1C10.5 21.1 10.8 20.8 10.8 20.4V14.8C10.8 14.4 10.5 14.1 10.1 14.1H6.1V12.7H17.9V14.1H13.9C13.5 14.1 13.2 14.4 13.2 14.8V20.4C13.2 20.8 13.5 21.1 13.9 21.1H16.8L16.6 22.5H15.8C15.4 22.5 15.1 22.8 15.1 23.2C15.1 23.6 15.4 23.9 15.8 23.9H21.4C21.8 23.9 22.1 23.6 22.1 23.2C22.1 22.8 21.8 22.5 21.4 22.5H20.6L20.4 21.1H23.3C23.7 21.1 24 20.8 24 20.4V14.8C24 14.5 23.7 14.2 23.3 14.2Z" fill="url(#paint0_linear)"/>
<defs>
<linearGradient id="paint0_linear" x1="12" y1="33.6278" x2="12" y2="-7.7069" gradientUnits="userSpaceOnUse">
<stop stop-color="white"/>
<stop offset="1" stop-color="#72CCFF"/>
</linearGradient>
</defs>
</svg>
