<svg width="24" height="24" viewBox="0 0 24 24" fill="none" xmlns="http://www.w3.org/2000/svg">
<path d="M14.8 7C14.4 7 14 7.1 13.6 7.4L11.1 5.6C11.2 5.4 11.2 5.2 11.2 5C11.2 3.8 10.3 2.9 9.1 2.9C7.9 2.9 7.1 3.8 7.1 4.9C7.1 5.1 7.1 5.3 7.2 5.5L4.7 7.4C4.4 7.2 4 7 3.6 7C2.4 7 1.5 8 1.5 9.1C1.5 10.2 2.4 11.2 3.6 11.2C4.8 11.2 5.7 10.3 5.7 9.1C5.7 8.9 5.7 8.7 5.6 8.5L8 6.7C8.4 6.9 8.8 7 9.2 7C9.6 7 10 6.9 10.4 6.6L12.9 8.4C12.8 8.6 12.8 8.8 12.8 9C12.8 10.2 13.7 11.1 14.9 11.1C16.1 11.1 17 10.2 17 9C17 8.5 16.8 8.1 16.6 7.7L20 4C20.2 4 20.3 4.1 20.5 4.1C21.7 4.1 22.6 3.2 22.6 2C22.6 0.8 21.6 0 20.4 0C19.2 0 18.3 0.9 18.3 2.1C18.3 2.6 18.5 3 18.7 3.4L15.3 7.1C15.2 7.1 15 7 14.8 7Z" fill="url(#paint0_linear)"/>
<path d="M7.79998 11.3C7.39998 11.3 7.09998 11.6 7.09998 12V21.2H11.3V12C11.3 11.6 11 11.3 10.6 11.3H7.79998Z" fill="url(#paint1_linear)"/>
<path d="M13.4001 14.1C13.0001 14.1 12.7001 14.4 12.7001 14.8V21.2H16.9001V14.8C16.9001 14.4 16.6001 14.1 16.2001 14.1H13.4001Z" fill="url(#paint2_linear)"/>
<path d="M19 8.4C18.6 8.4 18.3 8.7 18.3 9.1V21.1H22.5V9.1C22.5 8.7 22.2 8.4 21.8 8.4H19Z" fill="url(#paint3_linear)"/>
<path d="M2.2 15.5C1.8 15.5 1.5 15.8 1.5 16.2V21.2H5.7V16.2C5.7 15.8 5.4 15.5 5 15.5H2.2Z" fill="url(#paint4_linear)"/>
<path d="M23.3 22.6C20.2 22.6 18.7 22.6 18.1 22.6C17.8 22.6 17.7 22.6 17.7 22.6C16.7 22.6 12.8 22.6 0.600024 22.6C0.200024 22.6 -0.0999756 22.9 -0.0999756 23.3C-0.0999756 23.7 0.300024 24 0.700024 24C9.20002 24 15.3 24 23.3 24C23.7 24 24 23.7 24 23.3C24 22.9 23.7 22.6 23.3 22.6Z" fill="url(#paint5_linear)"/>
<defs>
<linearGradient id="paint0_linear" x1="12" y1="33.6278" x2="12" y2="-7.7069" gradientUnits="userSpaceOnUse">
<stop stop-color="white"/>
<stop offset="1" stop-color="#72CCFF"/>
</linearGradient>
<linearGradient id="paint1_linear" x1="9.18748" y1="33.6278" x2="9.18748" y2="-7.7069" gradientUnits="userSpaceOnUse">
<stop stop-color="white"/>
<stop offset="1" stop-color="#72CCFF"/>
</linearGradient>
<linearGradient id="paint2_linear" x1="14.8126" y1="33.6278" x2="14.8126" y2="-7.7069" gradientUnits="userSpaceOnUse">
<stop stop-color="white"/>
<stop offset="1" stop-color="#72CCFF"/>
</linearGradient>
<linearGradient id="paint3_linear" x1="20.4375" y1="33.6278" x2="20.4375" y2="-7.7069" gradientUnits="userSpaceOnUse">
<stop stop-color="white"/>
<stop offset="1" stop-color="#72CCFF"/>
</linearGradient>
<linearGradient id="paint4_linear" x1="3.5625" y1="33.6278" x2="3.5625" y2="-7.7069" gradientUnits="userSpaceOnUse">
<stop stop-color="white"/>
<stop offset="1" stop-color="#72CCFF"/>
</linearGradient>
<linearGradient id="paint5_linear" x1="12" y1="33.6278" x2="12" y2="-7.70689" gradientUnits="userSpaceOnUse">
<stop stop-color="white"/>
<stop offset="1" stop-color="#72CCFF"/>
</linearGradient>
</defs>
</svg>
