<svg width="24" height="24" viewBox="0 0 24 24" fill="none" xmlns="http://www.w3.org/2000/svg">
<path d="M13.7 15.9C13.1 15.9 10.9 15.9 10.4 15.9C10.3 15.9 10.2 16 10.2 16.1V17.4C10.8 17.6 11.4 17.7 12.1 17.7C12.8 17.7 13.4 17.6 14 17.4V16.1C13.9 16 13.8 15.9 13.7 15.9Z" fill="url(#paint0_linear)"/>
<path d="M23.3 9.3H21.4C21.2 8.6 20.9 7.9 20.5 7.2L21.9 5.8C22 5.7 22.1 5.5 22.1 5.3C22.1 5.1 22 4.9 21.9 4.8L19.1 2C18.8 1.7 18.4 1.7 18.1 2L16.7 3.4C16 3 15.4 2.7 14.6 2.5V0.7C14.7 0.3 14.4 0 14 0H10C9.6 0 9.3 0.3 9.3 0.7V2.6C8.6 2.8 7.9 3.1 7.3 3.5L5.9 2.1C5.6 1.8 5.2 1.8 4.9 2.1L2.1 4.9C2 5 1.9 5.2 1.9 5.4C1.9 5.6 2 5.8 2.1 5.9L3.5 7.3C3.1 7.9 2.8 8.6 2.6 9.3H0.7C0.3 9.3 0 9.6 0 10V14C0 14.4 0.3 14.7 0.7 14.7H2.6C2.8 15.4 3.1 16.1 3.5 16.8L2.1 18.2C1.8 18.5 1.8 18.9 2.1 19.2L4.9 22C5.2 22.3 5.6 22.3 5.9 22L7.3 20.6C8 21 8.6 21.3 9.4 21.5V23.4C9.4 23.8 9.7 24.1 10.1 24.1H14C14.4 24.1 14.7 23.8 14.7 23.4V21.5C15.4 21.3 16.1 21 16.8 20.6L18.2 22C18.5 22.3 18.9 22.3 19.2 22L22 19.2C22.3 18.9 22.3 18.5 22 18.2L20.6 16.8C21 16.1 21.3 15.5 21.5 14.7H23.4C23.8 14.7 24.1 14.4 24.1 14V10C24 9.6 23.7 9.3 23.3 9.3ZM12 19.2C8.1 19.2 4.8 16 4.8 12C4.8 8 8.1 4.8 12 4.8C15.9 4.8 19.2 8 19.2 12C19.2 16 15.9 19.2 12 19.2Z" fill="url(#paint1_linear)"/>
<path d="M12 6.3C8.80005 6.3 6.30005 8.9 6.30005 12C6.30005 13.9 7.30005 15.6 8.70005 16.7V16.1C8.70005 15.7 8.90005 15.2 9.20005 14.9C9.50005 14.6 9.90005 14.4 10.4 14.4C11 14.4 13.2 14.4 13.7 14.4C14.1 14.4 14.5 14.6 14.9 14.9C15.2 15.2 15.4 15.6 15.4 16.1V16.7C16.9 15.7 17.8 13.9 17.8 12C17.7 8.8 15.2 6.3 12 6.3ZM12 13.9C10.7 13.9 9.60005 12.8 9.60005 11.5C9.60005 10.2 10.7 9.1 12 9.1C13.3 9.1 14.4 10.2 14.4 11.5C14.4 12.9 13.3 13.9 12 13.9Z" fill="url(#paint2_linear)"/>
<path d="M12 10.5C11.4 10.5 11 11 11 11.5C11 12.1 11.5 12.5 12 12.5C12.6 12.5 13 12 13 11.5C13 11 12.6 10.5 12 10.5Z" fill="url(#paint3_linear)"/>
<defs>
<linearGradient id="paint0_linear" x1="12" y1="33.6278" x2="12" y2="-7.70692" gradientUnits="userSpaceOnUse">
<stop stop-color="white"/>
<stop offset="1" stop-color="#72CCFF"/>
</linearGradient>
<linearGradient id="paint1_linear" x1="12" y1="33.6278" x2="12" y2="-7.7069" gradientUnits="userSpaceOnUse">
<stop stop-color="white"/>
<stop offset="1" stop-color="#72CCFF"/>
</linearGradient>
<linearGradient id="paint2_linear" x1="12" y1="33.6278" x2="12" y2="-7.7069" gradientUnits="userSpaceOnUse">
<stop stop-color="white"/>
<stop offset="1" stop-color="#72CCFF"/>
</linearGradient>
<linearGradient id="paint3_linear" x1="11.9993" y1="33.6278" x2="11.9993" y2="-7.7069" gradientUnits="userSpaceOnUse">
<stop stop-color="white"/>
<stop offset="1" stop-color="#72CCFF"/>
</linearGradient>
</defs>
</svg>
