<svg width="24" height="20" viewBox="0 0 24 20" fill="none" xmlns="http://www.w3.org/2000/svg">
<path d="M21.9 2.8H16.9V0.7C16.9 0.3 16.6 0 16.2 0H7.8C7.4 0 7.1 0.3 7.1 0.7V2.8H2.1C0.9 2.8 0 3.8 0 4.9V9.8H7.1C7.5 7.5 9.5 5.6 12 5.6C14.5 5.6 16.5 7.4 16.9 9.8H24V4.9C24 3.8 23.1 2.8 21.9 2.8ZM8.5 2.8V1.4H15.5V2.8H8.5Z" fill="url(#paint0_linear)"/>
<path d="M12 15.5C9.5 15.5 7.5 13.7 7.1 11.3H0V17.6C0 18.8 1 19.7 2.2 19.7H21.9C23.1 19.7 24 18.8 24 17.6V11.3H16.9C16.5 13.6 14.5 15.5 12 15.5Z" fill="url(#paint1_linear)"/>
<path d="M12 14.1C13.9 14.1 15.5 12.5 15.5 10.6C15.5 8.7 13.9 7 12 7C10.1 7 8.5 8.6 8.5 10.5C8.5 12.4 10.1 14.1 12 14.1ZM10.6 9.8H11.3V9.1C11.3 8.7 11.6 8.4 12 8.4C12.4 8.4 12.7 8.7 12.7 9.1V9.8H13.4C13.8 9.8 14.1 10.1 14.1 10.5C14.1 10.9 13.8 11.2 13.4 11.2H12.7V12C12.7 12.4 12.4 12.7 12 12.7C11.6 12.7 11.3 12.4 11.3 12V11.3H10.6C10.2 11.3 9.9 11 9.9 10.6C9.9 10.2 10.2 9.8 10.6 9.8Z" fill="url(#paint2_linear)"/>
<defs>
<linearGradient id="paint0_linear" x1="12" y1="31.4715" x2="12" y2="-9.8632" gradientUnits="userSpaceOnUse">
<stop stop-color="white"/>
<stop offset="1" stop-color="#72CCFF"/>
</linearGradient>
<linearGradient id="paint1_linear" x1="12" y1="31.4715" x2="12" y2="-9.8632" gradientUnits="userSpaceOnUse">
<stop stop-color="white"/>
<stop offset="1" stop-color="#72CCFF"/>
</linearGradient>
<linearGradient id="paint2_linear" x1="12" y1="31.4715" x2="12" y2="-9.8632" gradientUnits="userSpaceOnUse">
<stop stop-color="white"/>
<stop offset="1" stop-color="#72CCFF"/>
</linearGradient>
</defs>
</svg>
