<svg width="23" height="24" viewBox="0 0 23 24" fill="none" xmlns="http://www.w3.org/2000/svg">
<g clip-path="url(#clip0)">
<path d="M11.2 15.6C10 15.6 8.9 15.3 7.9 14.7L6.5 15.3L11.2 20L15.9 15.3L14.5 14.7C13.6 15.3 12.5 15.6 11.2 15.6Z" fill="url(#paint0_linear)"/>
<path d="M22.5 23.1L21.6 19.9C21.2 18.4 20.1 17.2 18.7 16.6L17.4 16L11.8 21.6C11.7 21.7 11.5 21.8 11.3 21.8C11.1 21.8 10.9 21.7 10.8 21.6L5.2 16L3.9 16.6C2.5 17.2 1.4 18.4 0.999995 19.9L-4.86709e-06 23.1C-0.100005 23.5 0.199995 24 0.699995 24H21.8C22.3 24 22.6 23.5 22.5 23.1ZM18 22.5H15.7C15.3 22.5 15 22.2 15 21.8C15 21.4 15.3 21.1 15.7 21.1H18C18.4 21.1 18.7 21.4 18.7 21.8C18.7 22.2 18.4 22.5 18 22.5Z" fill="url(#paint1_linear)"/>
<path d="M11.2 14.2C14.1 14.2 16.4 11.9 16.4 9V7.4H6V9C6 11.9 8.4 14.2 11.2 14.2Z" fill="url(#paint2_linear)"/>
<path d="M16.5 0.7C16.5 0.3 16.2 0 15.8 0H6.8C6.3 0 6 0.3 6 0.7V6H16.4V0.7H16.5ZM12 3.7C12 4.1 11.6 4.5 11.2 4.5C10.8 4.5 10.5 4.2 10.5 3.8H10.4C10 3.8 9.7 3.5 9.7 3.1C9.7 2.7 10 2.4 10.4 2.4H10.5V2.3C10.5 1.9 10.8 1.6 11.2 1.6C11.6 1.6 11.9 1.9 11.9 2.3V2.4C12.3 2.4 12.6 2.7 12.6 3.1C12.7 3.4 12.4 3.7 12 3.7Z" fill="url(#paint3_linear)"/>
</g>
<defs>
<linearGradient id="paint0_linear" x1="11.2466" y1="33.6278" x2="11.2466" y2="-7.7069" gradientUnits="userSpaceOnUse">
<stop stop-color="white"/>
<stop offset="1" stop-color="#72CCFF"/>
</linearGradient>
<linearGradient id="paint1_linear" x1="11.2466" y1="33.6278" x2="11.2466" y2="-7.7069" gradientUnits="userSpaceOnUse">
<stop stop-color="white"/>
<stop offset="1" stop-color="#72CCFF"/>
</linearGradient>
<linearGradient id="paint2_linear" x1="11.247" y1="33.6278" x2="11.247" y2="-7.7069" gradientUnits="userSpaceOnUse">
<stop stop-color="white"/>
<stop offset="1" stop-color="#72CCFF"/>
</linearGradient>
<linearGradient id="paint3_linear" x1="11.247" y1="33.6278" x2="11.247" y2="-7.7069" gradientUnits="userSpaceOnUse">
<stop stop-color="white"/>
<stop offset="1" stop-color="#72CCFF"/>
</linearGradient>
<clipPath id="clip0">
<rect width="22.5" height="24" fill="white"/>
</clipPath>
</defs>
</svg>
