<svg width="24" height="24" viewBox="0 0 24 24" fill="none" xmlns="http://www.w3.org/2000/svg">
<path d="M7.09998 12C7.09998 14.7 9.29998 16.9 12 16.9C14.7 16.9 16.9 14.7 16.9 12C16.9 10.4 16.1 8.9 14.8 8V12C14.8 12.2 14.7 12.5 14.5 12.6L12.4 14C12.2 14.2 11.9 14.2 11.6 14L9.49998 12.6C9.29998 12.5 9.19998 12.3 9.19998 12V8C7.89998 8.9 7.09998 10.4 7.09998 12Z" fill="url(#paint0_linear)"/>
<path d="M13.4 24V18.2C12.9 18.3 12.5 18.4 12 18.4C11.5 18.4 11 18.3 10.6 18.2V24H13.4Z" fill="url(#paint1_linear)"/>
<path d="M23.5 9.2L21.3 8.7C21.2 8.4 21.1 8.1 20.9 7.8L22 5.9C22.2 5.6 22.1 5.3 21.9 5L18.9 2C18.7 1.8 18.3 1.7 18 1.9L16.1 3C15.8 2.9 15.5 2.7 15.2 2.6L14.7 0.4C14.7 0.2 14.4 0 14.1 0H9.9C9.6 0 9.3 0.2 9.2 0.5L8.7 2.7C8.4 2.8 8.1 3 7.8 3.1L5.9 2C5.6 1.8 5.3 1.8 5 2.1L2 5.1C1.8 5.3 1.8 5.6 2 5.9L3.1 7.8C3 8.1 2.8 8.4 2.7 8.7L0.5 9.2C0.2 9.3 0 9.6 0 9.9V14.1C0 14.4 0.2 14.7 0.5 14.8L2.7 15.3C2.8 15.6 2.9 15.9 3.1 16.2L2 18.1C1.8 18.4 1.9 18.7 2.1 19L5.1 22C5.3 22.2 5.7 22.3 6 22.1L7.9 21C8.2 21.1 8.5 21.3 8.8 21.4L9.3 23.5V17.8C7.2 16.8 5.8 14.6 5.8 12.1C5.8 10.8 6.2 9.6 6.9 8.5C7.6 7.5 8.6 6.7 9.7 6.2C9.9 6.1 10.2 6.1 10.4 6.3C10.6 6.4 10.7 6.6 10.7 6.9V11.7L12.1 12.6L13.5 11.7V6.8C13.5 6.6 13.6 6.3 13.8 6.2C14 6.1 14.2 6 14.5 6.1C15.7 6.6 16.6 7.4 17.3 8.4C18 9.5 18.4 10.7 18.4 12C18.4 14.5 17 16.6 14.9 17.7V23.4L15.4 21.3C15.7 21.2 16 21.1 16.3 20.9L18.2 22C18.5 22.2 18.8 22.1 19.1 21.9L22.1 18.9C22.3 18.7 22.4 18.3 22.2 18L21.1 16.1C21.2 15.8 21.4 15.5 21.5 15.2L23.7 14.7C24 14.6 24.2 14.3 24.2 14V9.9C24 9.6 23.8 9.3 23.5 9.2Z" fill="url(#paint2_linear)"/>
<defs>
<linearGradient id="paint0_linear" x1="12" y1="33.6278" x2="12" y2="-7.7069" gradientUnits="userSpaceOnUse">
<stop stop-color="white"/>
<stop offset="1" stop-color="#72CCFF"/>
</linearGradient>
<linearGradient id="paint1_linear" x1="12" y1="33.6278" x2="12" y2="-7.7069" gradientUnits="userSpaceOnUse">
<stop stop-color="white"/>
<stop offset="1" stop-color="#72CCFF"/>
</linearGradient>
<linearGradient id="paint2_linear" x1="12" y1="33.6278" x2="12" y2="-7.7069" gradientUnits="userSpaceOnUse">
<stop stop-color="white"/>
<stop offset="1" stop-color="#72CCFF"/>
</linearGradient>
</defs>
</svg>
