<svg width="24" height="24" viewBox="0 0 24 24" fill="none" xmlns="http://www.w3.org/2000/svg">
<path d="M23.6 5.7L12.3 0.100002C12.1 1.52737e-06 11.9 1.52737e-06 11.7 0.100002L0.4 5.7C0.2 5.8 0 6.1 0 6.3C0 6.6 0.2 6.8 0.4 7L11.7 12.6C11.8 12.6 11.9 12.7 12 12.7C12.1 12.7 12.2 12.7 12.3 12.6L23.6 7C23.8 6.8 24 6.6 24 6.3C24 6.1 23.8 5.8 23.6 5.7Z" fill="url(#paint0_linear)"/>
<path d="M23.6 16.2L22.9 15.9L12.9 20.9C12.6 21 12.3 21.1 12 21.1C11.7 21.1 11.3 21 11.1 20.9L1.1 15.9L0.4 16.2C0.2 16.4 0 16.6 0 16.9C0 17.2 0.2 17.4 0.4 17.5L11.7 23.1C11.8 23.1 11.9 23.2 12 23.2C12.1 23.2 12.2 23.2 12.3 23.1L23.6 17.5C23.8 17.4 24 17.1 24 16.9C24 16.7 23.8 16.4 23.6 16.2Z" fill="url(#paint1_linear)"/>
<path d="M23.6 12.7L22.9 12.4L12.9 17.4C12.6 17.5 12.3 17.6 12 17.6C11.7 17.6 11.3 17.5 11.1 17.4L1.1 12.4L0.4 12.7C0.2 12.8 0 13.1 0 13.4C0 13.7 0.2 13.9 0.4 14L11.7 19.6C11.8 19.6 11.9 19.7 12 19.7C12.1 19.7 12.2 19.7 12.3 19.6L23.6 14C23.8 13.9 24 13.6 24 13.4C24 13.1 23.8 12.8 23.6 12.7Z" fill="url(#paint2_linear)"/>
<path d="M23.6 9.19999L22.9 8.89999L12.9 13.9C12.6 14 12.3 14.1 12 14.1C11.7 14.1 11.3 14 11.1 13.9L1.1 8.89999L0.4 9.19999C0.2 9.29999 0 9.59999 0 9.79999C0 10.1 0.2 10.3 0.4 10.4L11.7 16C11.8 16 11.9 16.1 12 16.1C12.1 16.1 12.2 16.1 12.3 16L23.6 10.4C23.8 10.3 24 9.99999 24 9.79999C24 9.59999 23.8 9.29999 23.6 9.19999Z" fill="url(#paint3_linear)"/>
<defs>
<linearGradient id="paint0_linear" x1="12" y1="33.2293" x2="12" y2="-8.1054" gradientUnits="userSpaceOnUse">
<stop stop-color="white"/>
<stop offset="1" stop-color="#72CCFF"/>
</linearGradient>
<linearGradient id="paint1_linear" x1="12" y1="33.2293" x2="12" y2="-8.10541" gradientUnits="userSpaceOnUse">
<stop stop-color="white"/>
<stop offset="1" stop-color="#72CCFF"/>
</linearGradient>
<linearGradient id="paint2_linear" x1="12" y1="33.2293" x2="12" y2="-8.10541" gradientUnits="userSpaceOnUse">
<stop stop-color="white"/>
<stop offset="1" stop-color="#72CCFF"/>
</linearGradient>
<linearGradient id="paint3_linear" x1="12" y1="33.2293" x2="12" y2="-8.10541" gradientUnits="userSpaceOnUse">
<stop stop-color="white"/>
<stop offset="1" stop-color="#72CCFF"/>
</linearGradient>
</defs>
</svg>
