<svg width="17" height="11" viewBox="0 0 17 11" fill="none" xmlns="http://www.w3.org/2000/svg">
<path d="M15.6939 3.84667H4.34048V3.06467C4.34048 1.90867 6.05669 1.12667 8.51219 1.12667C10.3076 1.12667 11.7334 1.52333 12.3407 2.226C12.5519 2.464 13.1592 2.57733 13.7136 2.48667C14.2681 2.396 14.5321 2.13533 14.3209 1.89733C13.4232 0.854668 11.2053 0.220001 8.51219 0.220001C4.84214 0.220001 2.22822 1.38733 2.22822 3.06467V3.84667H1.43613C0.855255 3.84667 0.379997 4.05067 0.379997 4.3V9.96667C0.379997 10.216 0.855255 10.42 1.43613 10.42H15.6939C16.2747 10.42 16.75 10.216 16.75 9.96667V4.3C16.75 4.05067 16.2747 3.84667 15.6939 3.84667ZM14.6377 9.51333H2.49226V4.75333H14.6377V9.51333Z" fill="white"/>
</svg>
