<svg width="17" height="11" viewBox="0 0 17 11" fill="none" xmlns="http://www.w3.org/2000/svg">
<path d="M4.06725 0.00721847C3.62272 0.0259887 3.16261 0.0881248 2.75339 0.18586C2.36702 0.277769 1.98689 0.412397 1.66595 0.570327C1.49769 0.653175 1.16845 0.859 1.04174 0.961266C0.523466 1.3768 0.201493 1.87777 0.0695878 2.4726C0.00934761 2.74315 0.00830899 2.75221 0.00415449 3.56451L0 4.31726H0.945147H1.89029L1.89445 3.58393C1.8986 2.78975 1.89756 2.79622 1.95988 2.56515C2.11983 1.96386 2.56852 1.52696 3.23635 1.32373C3.54482 1.22988 3.86887 1.18651 4.31652 1.18004C4.73093 1.17356 5.03836 1.19751 5.34476 1.25965C6.06141 1.40463 6.56202 1.78586 6.78948 2.35933C6.8923 2.62017 6.92762 2.859 6.92866 3.30237V3.52761H7.86965H8.81064L8.80545 3.15027C8.80026 2.75091 8.79298 2.6713 8.73482 2.43376C8.53541 1.61758 7.94443 0.941848 7.06887 0.530197C6.24732 0.143788 5.19208 -0.0400308 4.06725 0.00721847Z" fill="white"/>
<path d="M5.46414 3.92957C4.60209 3.99041 3.92075 4.40206 3.79715 4.9354C3.78261 4.99947 3.78157 5.2176 3.78365 7.09074L3.78677 9.17489L3.81065 9.24544C3.89686 9.49916 4.09731 9.72117 4.38709 9.88686C4.65713 10.0409 4.96768 10.1367 5.3447 10.1833L5.45895 10.1969L9.98215 10.1995C13.2341 10.2008 14.5417 10.1995 14.6352 10.1943C14.9707 10.1755 15.2989 10.1011 15.5699 9.98201C15.6977 9.92634 15.9293 9.78201 16.0186 9.7024C16.2056 9.53735 16.3271 9.33282 16.3583 9.13023C16.3738 9.0299 16.3738 5.09138 16.3583 4.993C16.298 4.61565 15.9709 4.28944 15.4557 4.09332C15.2646 4.02083 15.0382 3.96776 14.791 3.93798C14.6954 3.92633 14.5282 3.92568 10.1172 3.92504C7.60059 3.92439 5.50673 3.92633 5.46414 3.92957ZM10.221 5.89009C10.5067 5.9121 10.7487 5.98588 10.9543 6.11339C11.2088 6.27003 11.3272 6.44802 11.3261 6.67003C11.3251 6.83896 11.2628 6.96582 11.1111 7.10692C11.0415 7.171 10.8795 7.27068 10.7798 7.3108L10.6998 7.34317L10.6988 7.81566C10.6988 8.33411 10.6988 8.33087 10.6354 8.40984C10.5274 8.54382 10.3124 8.62796 10.0777 8.62796C9.9645 8.62796 9.9001 8.6189 9.79624 8.58783C9.62902 8.53799 9.49608 8.43314 9.45765 8.31987C9.44519 8.28298 9.44207 8.19236 9.44207 7.80919V7.34252L9.37768 7.31598C9.09205 7.19883 8.89887 7.0176 8.83448 6.80724C8.8137 6.73928 8.8137 6.60336 8.83344 6.53087C8.94872 6.12439 9.56463 5.84025 10.221 5.89009Z" fill="white"/>
</svg>
